G04 #@! TF.FileFunction,Legend,Top*
%FSLAX46Y46*%
G04 Gerber Fmt 4.6, Leading zero omitted, Abs format (unit mm)*
G04 Created by KiCad (PCBNEW 4.0.6) date 10/22/17 14:26:44*
%MOMM*%
%LPD*%
G01*
G04 APERTURE LIST*
%ADD10C,0.100000*%
%ADD11C,0.300000*%
%ADD12C,0.150000*%
G04 APERTURE END LIST*
D10*
D11*
X205125714Y-136076571D02*
X205411428Y-137076571D01*
X205697142Y-136362286D01*
X205982857Y-137076571D01*
X206268571Y-136076571D01*
X206697143Y-136076571D02*
X206982857Y-137076571D01*
X207268571Y-136362286D01*
X207554286Y-137076571D01*
X207840000Y-136076571D01*
X208268572Y-136076571D02*
X208554286Y-137076571D01*
X208840000Y-136362286D01*
X209125715Y-137076571D01*
X209411429Y-136076571D01*
X209982858Y-136933714D02*
X210054286Y-137005143D01*
X209982858Y-137076571D01*
X209911429Y-137005143D01*
X209982858Y-136933714D01*
X209982858Y-137076571D01*
X211340001Y-137076571D02*
X211340001Y-136290857D01*
X211268572Y-136148000D01*
X211125715Y-136076571D01*
X210840001Y-136076571D01*
X210697144Y-136148000D01*
X211340001Y-137005143D02*
X211197144Y-137076571D01*
X210840001Y-137076571D01*
X210697144Y-137005143D01*
X210625715Y-136862286D01*
X210625715Y-136719429D01*
X210697144Y-136576571D01*
X210840001Y-136505143D01*
X211197144Y-136505143D01*
X211340001Y-136433714D01*
X212054287Y-137076571D02*
X212054287Y-136076571D01*
X212054287Y-135576571D02*
X211982858Y-135648000D01*
X212054287Y-135719429D01*
X212125715Y-135648000D01*
X212054287Y-135576571D01*
X212054287Y-135719429D01*
X213054287Y-135576571D02*
X213197144Y-135576571D01*
X213340001Y-135648000D01*
X213411430Y-135719429D01*
X213482859Y-135862286D01*
X213554287Y-136148000D01*
X213554287Y-136505143D01*
X213482859Y-136790857D01*
X213411430Y-136933714D01*
X213340001Y-137005143D01*
X213197144Y-137076571D01*
X213054287Y-137076571D01*
X212911430Y-137005143D01*
X212840001Y-136933714D01*
X212768573Y-136790857D01*
X212697144Y-136505143D01*
X212697144Y-136148000D01*
X212768573Y-135862286D01*
X212840001Y-135719429D01*
X212911430Y-135648000D01*
X213054287Y-135576571D01*
X214054287Y-135576571D02*
X214982858Y-135576571D01*
X214482858Y-136148000D01*
X214697144Y-136148000D01*
X214840001Y-136219429D01*
X214911430Y-136290857D01*
X214982858Y-136433714D01*
X214982858Y-136790857D01*
X214911430Y-136933714D01*
X214840001Y-137005143D01*
X214697144Y-137076571D01*
X214268572Y-137076571D01*
X214125715Y-137005143D01*
X214054287Y-136933714D01*
X215625715Y-136933714D02*
X215697143Y-137005143D01*
X215625715Y-137076571D01*
X215554286Y-137005143D01*
X215625715Y-136933714D01*
X215625715Y-137076571D01*
X216340001Y-137076571D02*
X216340001Y-136076571D01*
X216340001Y-136219429D02*
X216411429Y-136148000D01*
X216554287Y-136076571D01*
X216768572Y-136076571D01*
X216911429Y-136148000D01*
X216982858Y-136290857D01*
X216982858Y-137076571D01*
X216982858Y-136290857D02*
X217054287Y-136148000D01*
X217197144Y-136076571D01*
X217411429Y-136076571D01*
X217554287Y-136148000D01*
X217625715Y-136290857D01*
X217625715Y-137076571D01*
X218911429Y-137005143D02*
X218768572Y-137076571D01*
X218482858Y-137076571D01*
X218340001Y-137005143D01*
X218268572Y-136862286D01*
X218268572Y-136290857D01*
X218340001Y-136148000D01*
X218482858Y-136076571D01*
X218768572Y-136076571D01*
X218911429Y-136148000D01*
X218982858Y-136290857D01*
X218982858Y-136433714D01*
X218268572Y-136576571D01*
X141712572Y-128785714D02*
X141641143Y-128857143D01*
X141426857Y-128928571D01*
X141284000Y-128928571D01*
X141069715Y-128857143D01*
X140926857Y-128714286D01*
X140855429Y-128571429D01*
X140784000Y-128285714D01*
X140784000Y-128071429D01*
X140855429Y-127785714D01*
X140926857Y-127642857D01*
X141069715Y-127500000D01*
X141284000Y-127428571D01*
X141426857Y-127428571D01*
X141641143Y-127500000D01*
X141712572Y-127571429D01*
X142355429Y-128928571D02*
X142355429Y-127428571D01*
X142998286Y-128928571D02*
X142998286Y-128142857D01*
X142926857Y-128000000D01*
X142784000Y-127928571D01*
X142569715Y-127928571D01*
X142426857Y-128000000D01*
X142355429Y-128071429D01*
X143712572Y-128928571D02*
X143712572Y-127928571D01*
X143712572Y-128214286D02*
X143784000Y-128071429D01*
X143855429Y-128000000D01*
X143998286Y-127928571D01*
X144141143Y-127928571D01*
X144855429Y-128928571D02*
X144712571Y-128857143D01*
X144641143Y-128785714D01*
X144569714Y-128642857D01*
X144569714Y-128214286D01*
X144641143Y-128071429D01*
X144712571Y-128000000D01*
X144855429Y-127928571D01*
X145069714Y-127928571D01*
X145212571Y-128000000D01*
X145284000Y-128071429D01*
X145355429Y-128214286D01*
X145355429Y-128642857D01*
X145284000Y-128785714D01*
X145212571Y-128857143D01*
X145069714Y-128928571D01*
X144855429Y-128928571D01*
X145998286Y-127928571D02*
X145998286Y-128928571D01*
X145998286Y-128071429D02*
X146069714Y-128000000D01*
X146212572Y-127928571D01*
X146426857Y-127928571D01*
X146569714Y-128000000D01*
X146641143Y-128142857D01*
X146641143Y-128928571D01*
X147569715Y-128928571D02*
X147426857Y-128857143D01*
X147355429Y-128785714D01*
X147284000Y-128642857D01*
X147284000Y-128214286D01*
X147355429Y-128071429D01*
X147426857Y-128000000D01*
X147569715Y-127928571D01*
X147784000Y-127928571D01*
X147926857Y-128000000D01*
X147998286Y-128071429D01*
X148069715Y-128214286D01*
X148069715Y-128642857D01*
X147998286Y-128785714D01*
X147926857Y-128857143D01*
X147784000Y-128928571D01*
X147569715Y-128928571D01*
X148641143Y-128857143D02*
X148784000Y-128928571D01*
X149069715Y-128928571D01*
X149212572Y-128857143D01*
X149284000Y-128714286D01*
X149284000Y-128642857D01*
X149212572Y-128500000D01*
X149069715Y-128428571D01*
X148855429Y-128428571D01*
X148712572Y-128357143D01*
X148641143Y-128214286D01*
X148641143Y-128142857D01*
X148712572Y-128000000D01*
X148855429Y-127928571D01*
X149069715Y-127928571D01*
X149212572Y-128000000D01*
X129819715Y-129978571D02*
X130105429Y-129978571D01*
X130248287Y-130050000D01*
X130391144Y-130192857D01*
X130462572Y-130478571D01*
X130462572Y-130978571D01*
X130391144Y-131264286D01*
X130248287Y-131407143D01*
X130105429Y-131478571D01*
X129819715Y-131478571D01*
X129676858Y-131407143D01*
X129534001Y-131264286D01*
X129462572Y-130978571D01*
X129462572Y-130478571D01*
X129534001Y-130192857D01*
X129676858Y-130050000D01*
X129819715Y-129978571D01*
X131105430Y-130478571D02*
X131105430Y-131978571D01*
X131105430Y-130550000D02*
X131248287Y-130478571D01*
X131534001Y-130478571D01*
X131676858Y-130550000D01*
X131748287Y-130621429D01*
X131819716Y-130764286D01*
X131819716Y-131192857D01*
X131748287Y-131335714D01*
X131676858Y-131407143D01*
X131534001Y-131478571D01*
X131248287Y-131478571D01*
X131105430Y-131407143D01*
X133034001Y-131407143D02*
X132891144Y-131478571D01*
X132605430Y-131478571D01*
X132462573Y-131407143D01*
X132391144Y-131264286D01*
X132391144Y-130692857D01*
X132462573Y-130550000D01*
X132605430Y-130478571D01*
X132891144Y-130478571D01*
X133034001Y-130550000D01*
X133105430Y-130692857D01*
X133105430Y-130835714D01*
X132391144Y-130978571D01*
X133748287Y-130478571D02*
X133748287Y-131478571D01*
X133748287Y-130621429D02*
X133819715Y-130550000D01*
X133962573Y-130478571D01*
X134176858Y-130478571D01*
X134319715Y-130550000D01*
X134391144Y-130692857D01*
X134391144Y-131478571D01*
X135105430Y-130907143D02*
X136248287Y-130907143D01*
X136891144Y-131407143D02*
X137034001Y-131478571D01*
X137319716Y-131478571D01*
X137462573Y-131407143D01*
X137534001Y-131264286D01*
X137534001Y-131192857D01*
X137462573Y-131050000D01*
X137319716Y-130978571D01*
X137105430Y-130978571D01*
X136962573Y-130907143D01*
X136891144Y-130764286D01*
X136891144Y-130692857D01*
X136962573Y-130550000D01*
X137105430Y-130478571D01*
X137319716Y-130478571D01*
X137462573Y-130550000D01*
X138391145Y-131478571D02*
X138248287Y-131407143D01*
X138176859Y-131335714D01*
X138105430Y-131192857D01*
X138105430Y-130764286D01*
X138176859Y-130621429D01*
X138248287Y-130550000D01*
X138391145Y-130478571D01*
X138605430Y-130478571D01*
X138748287Y-130550000D01*
X138819716Y-130621429D01*
X138891145Y-130764286D01*
X138891145Y-131192857D01*
X138819716Y-131335714D01*
X138748287Y-131407143D01*
X138605430Y-131478571D01*
X138391145Y-131478571D01*
X140176859Y-130478571D02*
X140176859Y-131478571D01*
X139534002Y-130478571D02*
X139534002Y-131264286D01*
X139605430Y-131407143D01*
X139748288Y-131478571D01*
X139962573Y-131478571D01*
X140105430Y-131407143D01*
X140176859Y-131335714D01*
X140891145Y-131478571D02*
X140891145Y-130478571D01*
X140891145Y-130764286D02*
X140962573Y-130621429D01*
X141034002Y-130550000D01*
X141176859Y-130478571D01*
X141319716Y-130478571D01*
X142462573Y-131407143D02*
X142319716Y-131478571D01*
X142034002Y-131478571D01*
X141891144Y-131407143D01*
X141819716Y-131335714D01*
X141748287Y-131192857D01*
X141748287Y-130764286D01*
X141819716Y-130621429D01*
X141891144Y-130550000D01*
X142034002Y-130478571D01*
X142319716Y-130478571D01*
X142462573Y-130550000D01*
X143676858Y-131407143D02*
X143534001Y-131478571D01*
X143248287Y-131478571D01*
X143105430Y-131407143D01*
X143034001Y-131264286D01*
X143034001Y-130692857D01*
X143105430Y-130550000D01*
X143248287Y-130478571D01*
X143534001Y-130478571D01*
X143676858Y-130550000D01*
X143748287Y-130692857D01*
X143748287Y-130835714D01*
X143034001Y-130978571D01*
X146176858Y-129978571D02*
X145891144Y-129978571D01*
X145748287Y-130050000D01*
X145676858Y-130121429D01*
X145534001Y-130335714D01*
X145462572Y-130621429D01*
X145462572Y-131192857D01*
X145534001Y-131335714D01*
X145605429Y-131407143D01*
X145748287Y-131478571D01*
X146034001Y-131478571D01*
X146176858Y-131407143D01*
X146248287Y-131335714D01*
X146319715Y-131192857D01*
X146319715Y-130835714D01*
X146248287Y-130692857D01*
X146176858Y-130621429D01*
X146034001Y-130550000D01*
X145748287Y-130550000D01*
X145605429Y-130621429D01*
X145534001Y-130692857D01*
X145462572Y-130835714D01*
X147248286Y-129978571D02*
X147391143Y-129978571D01*
X147534000Y-130050000D01*
X147605429Y-130121429D01*
X147676858Y-130264286D01*
X147748286Y-130550000D01*
X147748286Y-130907143D01*
X147676858Y-131192857D01*
X147605429Y-131335714D01*
X147534000Y-131407143D01*
X147391143Y-131478571D01*
X147248286Y-131478571D01*
X147105429Y-131407143D01*
X147034000Y-131335714D01*
X146962572Y-131192857D01*
X146891143Y-130907143D01*
X146891143Y-130550000D01*
X146962572Y-130264286D01*
X147034000Y-130121429D01*
X147105429Y-130050000D01*
X147248286Y-129978571D01*
X148319714Y-131478571D02*
X149462571Y-129978571D01*
X148534000Y-129978571D02*
X148676857Y-130050000D01*
X148748286Y-130192857D01*
X148676857Y-130335714D01*
X148534000Y-130407143D01*
X148391143Y-130335714D01*
X148319714Y-130192857D01*
X148391143Y-130050000D01*
X148534000Y-129978571D01*
X149391143Y-131407143D02*
X149462571Y-131264286D01*
X149391143Y-131121429D01*
X149248286Y-131050000D01*
X149105429Y-131121429D01*
X149034000Y-131264286D01*
X149105429Y-131407143D01*
X149248286Y-131478571D01*
X149391143Y-131407143D01*
X151248286Y-131478571D02*
X151248286Y-129978571D01*
X151391143Y-130907143D02*
X151819714Y-131478571D01*
X151819714Y-130478571D02*
X151248286Y-131050000D01*
X153034000Y-131407143D02*
X152891143Y-131478571D01*
X152605429Y-131478571D01*
X152462572Y-131407143D01*
X152391143Y-131264286D01*
X152391143Y-130692857D01*
X152462572Y-130550000D01*
X152605429Y-130478571D01*
X152891143Y-130478571D01*
X153034000Y-130550000D01*
X153105429Y-130692857D01*
X153105429Y-130835714D01*
X152391143Y-130978571D01*
X153605429Y-130478571D02*
X153962572Y-131478571D01*
X154319714Y-130478571D02*
X153962572Y-131478571D01*
X153819714Y-131835714D01*
X153748286Y-131907143D01*
X153605429Y-131978571D01*
X154891143Y-131478571D02*
X154891143Y-129978571D01*
X154891143Y-130550000D02*
X155034000Y-130478571D01*
X155319714Y-130478571D01*
X155462571Y-130550000D01*
X155534000Y-130621429D01*
X155605429Y-130764286D01*
X155605429Y-131192857D01*
X155534000Y-131335714D01*
X155462571Y-131407143D01*
X155319714Y-131478571D01*
X155034000Y-131478571D01*
X154891143Y-131407143D01*
X156462572Y-131478571D02*
X156319714Y-131407143D01*
X156248286Y-131335714D01*
X156176857Y-131192857D01*
X156176857Y-130764286D01*
X156248286Y-130621429D01*
X156319714Y-130550000D01*
X156462572Y-130478571D01*
X156676857Y-130478571D01*
X156819714Y-130550000D01*
X156891143Y-130621429D01*
X156962572Y-130764286D01*
X156962572Y-131192857D01*
X156891143Y-131335714D01*
X156819714Y-131407143D01*
X156676857Y-131478571D01*
X156462572Y-131478571D01*
X158248286Y-131478571D02*
X158248286Y-130692857D01*
X158176857Y-130550000D01*
X158034000Y-130478571D01*
X157748286Y-130478571D01*
X157605429Y-130550000D01*
X158248286Y-131407143D02*
X158105429Y-131478571D01*
X157748286Y-131478571D01*
X157605429Y-131407143D01*
X157534000Y-131264286D01*
X157534000Y-131121429D01*
X157605429Y-130978571D01*
X157748286Y-130907143D01*
X158105429Y-130907143D01*
X158248286Y-130835714D01*
X158962572Y-131478571D02*
X158962572Y-130478571D01*
X158962572Y-130764286D02*
X159034000Y-130621429D01*
X159105429Y-130550000D01*
X159248286Y-130478571D01*
X159391143Y-130478571D01*
X160534000Y-131478571D02*
X160534000Y-129978571D01*
X160534000Y-131407143D02*
X160391143Y-131478571D01*
X160105429Y-131478571D01*
X159962571Y-131407143D01*
X159891143Y-131335714D01*
X159819714Y-131192857D01*
X159819714Y-130764286D01*
X159891143Y-130621429D01*
X159962571Y-130550000D01*
X160105429Y-130478571D01*
X160391143Y-130478571D01*
X160534000Y-130550000D01*
X135498286Y-136578571D02*
X135498286Y-135078571D01*
X135855429Y-135078571D01*
X136069714Y-135150000D01*
X136212572Y-135292857D01*
X136284000Y-135435714D01*
X136355429Y-135721429D01*
X136355429Y-135935714D01*
X136284000Y-136221429D01*
X136212572Y-136364286D01*
X136069714Y-136507143D01*
X135855429Y-136578571D01*
X135498286Y-136578571D01*
X137569714Y-136507143D02*
X137426857Y-136578571D01*
X137141143Y-136578571D01*
X136998286Y-136507143D01*
X136926857Y-136364286D01*
X136926857Y-135792857D01*
X136998286Y-135650000D01*
X137141143Y-135578571D01*
X137426857Y-135578571D01*
X137569714Y-135650000D01*
X137641143Y-135792857D01*
X137641143Y-135935714D01*
X136926857Y-136078571D01*
X138212571Y-136507143D02*
X138355428Y-136578571D01*
X138641143Y-136578571D01*
X138784000Y-136507143D01*
X138855428Y-136364286D01*
X138855428Y-136292857D01*
X138784000Y-136150000D01*
X138641143Y-136078571D01*
X138426857Y-136078571D01*
X138284000Y-136007143D01*
X138212571Y-135864286D01*
X138212571Y-135792857D01*
X138284000Y-135650000D01*
X138426857Y-135578571D01*
X138641143Y-135578571D01*
X138784000Y-135650000D01*
X139498286Y-136578571D02*
X139498286Y-135578571D01*
X139498286Y-135078571D02*
X139426857Y-135150000D01*
X139498286Y-135221429D01*
X139569714Y-135150000D01*
X139498286Y-135078571D01*
X139498286Y-135221429D01*
X140855429Y-135578571D02*
X140855429Y-136792857D01*
X140784000Y-136935714D01*
X140712572Y-137007143D01*
X140569715Y-137078571D01*
X140355429Y-137078571D01*
X140212572Y-137007143D01*
X140855429Y-136507143D02*
X140712572Y-136578571D01*
X140426858Y-136578571D01*
X140284000Y-136507143D01*
X140212572Y-136435714D01*
X140141143Y-136292857D01*
X140141143Y-135864286D01*
X140212572Y-135721429D01*
X140284000Y-135650000D01*
X140426858Y-135578571D01*
X140712572Y-135578571D01*
X140855429Y-135650000D01*
X141569715Y-135578571D02*
X141569715Y-136578571D01*
X141569715Y-135721429D02*
X141641143Y-135650000D01*
X141784001Y-135578571D01*
X141998286Y-135578571D01*
X142141143Y-135650000D01*
X142212572Y-135792857D01*
X142212572Y-136578571D01*
X143498286Y-136507143D02*
X143355429Y-136578571D01*
X143069715Y-136578571D01*
X142926858Y-136507143D01*
X142855429Y-136364286D01*
X142855429Y-135792857D01*
X142926858Y-135650000D01*
X143069715Y-135578571D01*
X143355429Y-135578571D01*
X143498286Y-135650000D01*
X143569715Y-135792857D01*
X143569715Y-135935714D01*
X142855429Y-136078571D01*
X144855429Y-136578571D02*
X144855429Y-135078571D01*
X144855429Y-136507143D02*
X144712572Y-136578571D01*
X144426858Y-136578571D01*
X144284000Y-136507143D01*
X144212572Y-136435714D01*
X144141143Y-136292857D01*
X144141143Y-135864286D01*
X144212572Y-135721429D01*
X144284000Y-135650000D01*
X144426858Y-135578571D01*
X144712572Y-135578571D01*
X144855429Y-135650000D01*
X146712572Y-136578571D02*
X146712572Y-135078571D01*
X146712572Y-135650000D02*
X146855429Y-135578571D01*
X147141143Y-135578571D01*
X147284000Y-135650000D01*
X147355429Y-135721429D01*
X147426858Y-135864286D01*
X147426858Y-136292857D01*
X147355429Y-136435714D01*
X147284000Y-136507143D01*
X147141143Y-136578571D01*
X146855429Y-136578571D01*
X146712572Y-136507143D01*
X147926858Y-135578571D02*
X148284001Y-136578571D01*
X148641143Y-135578571D02*
X148284001Y-136578571D01*
X148141143Y-136935714D01*
X148069715Y-137007143D01*
X147926858Y-137078571D01*
X150998286Y-136578571D02*
X150998286Y-135792857D01*
X150926857Y-135650000D01*
X150784000Y-135578571D01*
X150498286Y-135578571D01*
X150355429Y-135650000D01*
X150998286Y-136507143D02*
X150855429Y-136578571D01*
X150498286Y-136578571D01*
X150355429Y-136507143D01*
X150284000Y-136364286D01*
X150284000Y-136221429D01*
X150355429Y-136078571D01*
X150498286Y-136007143D01*
X150855429Y-136007143D01*
X150998286Y-135935714D01*
X151712572Y-136578571D02*
X151712572Y-135578571D01*
X151712572Y-135078571D02*
X151641143Y-135150000D01*
X151712572Y-135221429D01*
X151784000Y-135150000D01*
X151712572Y-135078571D01*
X151712572Y-135221429D01*
X152712572Y-135078571D02*
X152855429Y-135078571D01*
X152998286Y-135150000D01*
X153069715Y-135221429D01*
X153141144Y-135364286D01*
X153212572Y-135650000D01*
X153212572Y-136007143D01*
X153141144Y-136292857D01*
X153069715Y-136435714D01*
X152998286Y-136507143D01*
X152855429Y-136578571D01*
X152712572Y-136578571D01*
X152569715Y-136507143D01*
X152498286Y-136435714D01*
X152426858Y-136292857D01*
X152355429Y-136007143D01*
X152355429Y-135650000D01*
X152426858Y-135364286D01*
X152498286Y-135221429D01*
X152569715Y-135150000D01*
X152712572Y-135078571D01*
X153712572Y-135078571D02*
X154641143Y-135078571D01*
X154141143Y-135650000D01*
X154355429Y-135650000D01*
X154498286Y-135721429D01*
X154569715Y-135792857D01*
X154641143Y-135935714D01*
X154641143Y-136292857D01*
X154569715Y-136435714D01*
X154498286Y-136507143D01*
X154355429Y-136578571D01*
X153926857Y-136578571D01*
X153784000Y-136507143D01*
X153712572Y-136435714D01*
X132962572Y-137628571D02*
X132676858Y-137628571D01*
X132534001Y-137700000D01*
X132462572Y-137771429D01*
X132319715Y-137985714D01*
X132248286Y-138271429D01*
X132248286Y-138842857D01*
X132319715Y-138985714D01*
X132391143Y-139057143D01*
X132534001Y-139128571D01*
X132819715Y-139128571D01*
X132962572Y-139057143D01*
X133034001Y-138985714D01*
X133105429Y-138842857D01*
X133105429Y-138485714D01*
X133034001Y-138342857D01*
X132962572Y-138271429D01*
X132819715Y-138200000D01*
X132534001Y-138200000D01*
X132391143Y-138271429D01*
X132319715Y-138342857D01*
X132248286Y-138485714D01*
X134034000Y-137628571D02*
X134176857Y-137628571D01*
X134319714Y-137700000D01*
X134391143Y-137771429D01*
X134462572Y-137914286D01*
X134534000Y-138200000D01*
X134534000Y-138557143D01*
X134462572Y-138842857D01*
X134391143Y-138985714D01*
X134319714Y-139057143D01*
X134176857Y-139128571D01*
X134034000Y-139128571D01*
X133891143Y-139057143D01*
X133819714Y-138985714D01*
X133748286Y-138842857D01*
X133676857Y-138557143D01*
X133676857Y-138200000D01*
X133748286Y-137914286D01*
X133819714Y-137771429D01*
X133891143Y-137700000D01*
X134034000Y-137628571D01*
X135105428Y-139128571D02*
X136248285Y-137628571D01*
X135319714Y-137628571D02*
X135462571Y-137700000D01*
X135534000Y-137842857D01*
X135462571Y-137985714D01*
X135319714Y-138057143D01*
X135176857Y-137985714D01*
X135105428Y-137842857D01*
X135176857Y-137700000D01*
X135319714Y-137628571D01*
X136176857Y-139057143D02*
X136248285Y-138914286D01*
X136176857Y-138771429D01*
X136034000Y-138700000D01*
X135891143Y-138771429D01*
X135819714Y-138914286D01*
X135891143Y-139057143D01*
X136034000Y-139128571D01*
X136176857Y-139057143D01*
X138248286Y-139128571D02*
X138105428Y-139057143D01*
X138034000Y-138985714D01*
X137962571Y-138842857D01*
X137962571Y-138414286D01*
X138034000Y-138271429D01*
X138105428Y-138200000D01*
X138248286Y-138128571D01*
X138462571Y-138128571D01*
X138605428Y-138200000D01*
X138676857Y-138271429D01*
X138748286Y-138414286D01*
X138748286Y-138842857D01*
X138676857Y-138985714D01*
X138605428Y-139057143D01*
X138462571Y-139128571D01*
X138248286Y-139128571D01*
X140034000Y-138128571D02*
X140034000Y-139128571D01*
X139391143Y-138128571D02*
X139391143Y-138914286D01*
X139462571Y-139057143D01*
X139605429Y-139128571D01*
X139819714Y-139128571D01*
X139962571Y-139057143D01*
X140034000Y-138985714D01*
X140534000Y-138128571D02*
X141105429Y-138128571D01*
X140748286Y-137628571D02*
X140748286Y-138914286D01*
X140819714Y-139057143D01*
X140962572Y-139128571D01*
X141105429Y-139128571D01*
X141819715Y-139128571D02*
X141676857Y-139057143D01*
X141605429Y-138914286D01*
X141605429Y-137628571D01*
X142391143Y-139128571D02*
X142391143Y-138128571D01*
X142391143Y-137628571D02*
X142319714Y-137700000D01*
X142391143Y-137771429D01*
X142462571Y-137700000D01*
X142391143Y-137628571D01*
X142391143Y-137771429D01*
X143105429Y-138128571D02*
X143105429Y-139128571D01*
X143105429Y-138271429D02*
X143176857Y-138200000D01*
X143319715Y-138128571D01*
X143534000Y-138128571D01*
X143676857Y-138200000D01*
X143748286Y-138342857D01*
X143748286Y-139128571D01*
X145034000Y-139057143D02*
X144891143Y-139128571D01*
X144605429Y-139128571D01*
X144462572Y-139057143D01*
X144391143Y-138914286D01*
X144391143Y-138342857D01*
X144462572Y-138200000D01*
X144605429Y-138128571D01*
X144891143Y-138128571D01*
X145034000Y-138200000D01*
X145105429Y-138342857D01*
X145105429Y-138485714D01*
X144391143Y-138628571D01*
X146891143Y-139128571D02*
X146891143Y-137628571D01*
X146891143Y-138200000D02*
X147034000Y-138128571D01*
X147319714Y-138128571D01*
X147462571Y-138200000D01*
X147534000Y-138271429D01*
X147605429Y-138414286D01*
X147605429Y-138842857D01*
X147534000Y-138985714D01*
X147462571Y-139057143D01*
X147319714Y-139128571D01*
X147034000Y-139128571D01*
X146891143Y-139057143D01*
X148105429Y-138128571D02*
X148462572Y-139128571D01*
X148819714Y-138128571D02*
X148462572Y-139128571D01*
X148319714Y-139485714D01*
X148248286Y-139557143D01*
X148105429Y-139628571D01*
X151176857Y-139128571D02*
X151176857Y-138342857D01*
X151105428Y-138200000D01*
X150962571Y-138128571D01*
X150676857Y-138128571D01*
X150534000Y-138200000D01*
X151176857Y-139057143D02*
X151034000Y-139128571D01*
X150676857Y-139128571D01*
X150534000Y-139057143D01*
X150462571Y-138914286D01*
X150462571Y-138771429D01*
X150534000Y-138628571D01*
X150676857Y-138557143D01*
X151034000Y-138557143D01*
X151176857Y-138485714D01*
X151891143Y-139128571D02*
X151891143Y-138128571D01*
X151891143Y-138271429D02*
X151962571Y-138200000D01*
X152105429Y-138128571D01*
X152319714Y-138128571D01*
X152462571Y-138200000D01*
X152534000Y-138342857D01*
X152534000Y-139128571D01*
X152534000Y-138342857D02*
X152605429Y-138200000D01*
X152748286Y-138128571D01*
X152962571Y-138128571D01*
X153105429Y-138200000D01*
X153176857Y-138342857D01*
X153176857Y-139128571D01*
X153676857Y-138128571D02*
X154248286Y-138128571D01*
X153891143Y-137628571D02*
X153891143Y-138914286D01*
X153962571Y-139057143D01*
X154105429Y-139128571D01*
X154248286Y-139128571D01*
X154748286Y-139128571D02*
X154748286Y-138128571D01*
X154748286Y-138414286D02*
X154819714Y-138271429D01*
X154891143Y-138200000D01*
X155034000Y-138128571D01*
X155176857Y-138128571D01*
X156319714Y-139128571D02*
X156319714Y-138342857D01*
X156248285Y-138200000D01*
X156105428Y-138128571D01*
X155819714Y-138128571D01*
X155676857Y-138200000D01*
X156319714Y-139057143D02*
X156176857Y-139128571D01*
X155819714Y-139128571D01*
X155676857Y-139057143D01*
X155605428Y-138914286D01*
X155605428Y-138771429D01*
X155676857Y-138628571D01*
X155819714Y-138557143D01*
X156176857Y-138557143D01*
X156319714Y-138485714D01*
X157748286Y-137628571D02*
X157034000Y-137628571D01*
X156962571Y-138342857D01*
X157034000Y-138271429D01*
X157176857Y-138200000D01*
X157534000Y-138200000D01*
X157676857Y-138271429D01*
X157748286Y-138342857D01*
X157819714Y-138485714D01*
X157819714Y-138842857D01*
X157748286Y-138985714D01*
X157676857Y-139057143D01*
X157534000Y-139128571D01*
X157176857Y-139128571D01*
X157034000Y-139057143D01*
X156962571Y-138985714D01*
D12*
X165068452Y-98877381D02*
X165068452Y-97877381D01*
X165639881Y-98877381D02*
X165211309Y-98305952D01*
X165639881Y-97877381D02*
X165068452Y-98448810D01*
X165830357Y-98972619D02*
X166592262Y-98972619D01*
X167354167Y-97925000D02*
X167258929Y-97877381D01*
X167116072Y-97877381D01*
X166973214Y-97925000D01*
X166877976Y-98020238D01*
X166830357Y-98115476D01*
X166782738Y-98305952D01*
X166782738Y-98448810D01*
X166830357Y-98639286D01*
X166877976Y-98734524D01*
X166973214Y-98829762D01*
X167116072Y-98877381D01*
X167211310Y-98877381D01*
X167354167Y-98829762D01*
X167401786Y-98782143D01*
X167401786Y-98448810D01*
X167211310Y-98448810D01*
X168354167Y-98877381D02*
X167782738Y-98877381D01*
X168068452Y-98877381D02*
X168068452Y-97877381D01*
X167973214Y-98020238D01*
X167877976Y-98115476D01*
X167782738Y-98163095D01*
X93630952Y-60777381D02*
X93630952Y-59777381D01*
X94202381Y-60777381D02*
X93773809Y-60205952D01*
X94202381Y-59777381D02*
X93630952Y-60348810D01*
X94392857Y-60872619D02*
X95154762Y-60872619D01*
X95345238Y-60110714D02*
X96059524Y-60110714D01*
X95630952Y-59682143D02*
X95345238Y-60967857D01*
X95964286Y-60539286D02*
X95250000Y-60539286D01*
X95678572Y-60967857D02*
X95964286Y-59682143D01*
X96345238Y-59872619D02*
X96392857Y-59825000D01*
X96488095Y-59777381D01*
X96726191Y-59777381D01*
X96821429Y-59825000D01*
X96869048Y-59872619D01*
X96916667Y-59967857D01*
X96916667Y-60063095D01*
X96869048Y-60205952D01*
X96297619Y-60777381D01*
X96916667Y-60777381D01*
X245173809Y-60777381D02*
X245173809Y-59777381D01*
X245745238Y-60777381D02*
X245316666Y-60205952D01*
X245745238Y-59777381D02*
X245173809Y-60348810D01*
X245935714Y-60872619D02*
X246697619Y-60872619D01*
X246888095Y-60110714D02*
X247602381Y-60110714D01*
X247173809Y-59682143D02*
X246888095Y-60967857D01*
X247507143Y-60539286D02*
X246792857Y-60539286D01*
X247221429Y-60967857D02*
X247507143Y-59682143D01*
X248126190Y-59777381D02*
X248221429Y-59777381D01*
X248316667Y-59825000D01*
X248364286Y-59872619D01*
X248411905Y-59967857D01*
X248459524Y-60158333D01*
X248459524Y-60396429D01*
X248411905Y-60586905D01*
X248364286Y-60682143D01*
X248316667Y-60729762D01*
X248221429Y-60777381D01*
X248126190Y-60777381D01*
X248030952Y-60729762D01*
X247983333Y-60682143D01*
X247935714Y-60586905D01*
X247888095Y-60396429D01*
X247888095Y-60158333D01*
X247935714Y-59967857D01*
X247983333Y-59872619D01*
X248030952Y-59825000D01*
X248126190Y-59777381D01*
X248650000Y-60872619D02*
X249411905Y-60872619D01*
X250173810Y-60777381D02*
X249602381Y-60777381D01*
X249888095Y-60777381D02*
X249888095Y-59777381D01*
X249792857Y-59920238D01*
X249697619Y-60015476D01*
X249602381Y-60063095D01*
X74580952Y-60777381D02*
X74580952Y-59777381D01*
X75152381Y-60777381D02*
X74723809Y-60205952D01*
X75152381Y-59777381D02*
X74580952Y-60348810D01*
X75342857Y-60872619D02*
X76104762Y-60872619D01*
X76295238Y-60110714D02*
X77009524Y-60110714D01*
X76580952Y-59682143D02*
X76295238Y-60967857D01*
X76914286Y-60539286D02*
X76200000Y-60539286D01*
X76628572Y-60967857D02*
X76914286Y-59682143D01*
X77866667Y-60777381D02*
X77295238Y-60777381D01*
X77580952Y-60777381D02*
X77580952Y-59777381D01*
X77485714Y-59920238D01*
X77390476Y-60015476D01*
X77295238Y-60063095D01*
X112680952Y-60777381D02*
X112680952Y-59777381D01*
X113252381Y-60777381D02*
X112823809Y-60205952D01*
X113252381Y-59777381D02*
X112680952Y-60348810D01*
X113442857Y-60872619D02*
X114204762Y-60872619D01*
X114395238Y-60110714D02*
X115109524Y-60110714D01*
X114680952Y-59682143D02*
X114395238Y-60967857D01*
X115014286Y-60539286D02*
X114300000Y-60539286D01*
X114728572Y-60967857D02*
X115014286Y-59682143D01*
X115347619Y-59777381D02*
X115966667Y-59777381D01*
X115633333Y-60158333D01*
X115776191Y-60158333D01*
X115871429Y-60205952D01*
X115919048Y-60253571D01*
X115966667Y-60348810D01*
X115966667Y-60586905D01*
X115919048Y-60682143D01*
X115871429Y-60729762D01*
X115776191Y-60777381D01*
X115490476Y-60777381D01*
X115395238Y-60729762D01*
X115347619Y-60682143D01*
X131730952Y-60777381D02*
X131730952Y-59777381D01*
X132302381Y-60777381D02*
X131873809Y-60205952D01*
X132302381Y-59777381D02*
X131730952Y-60348810D01*
X132492857Y-60872619D02*
X133254762Y-60872619D01*
X133445238Y-60110714D02*
X134159524Y-60110714D01*
X133730952Y-59682143D02*
X133445238Y-60967857D01*
X134064286Y-60539286D02*
X133350000Y-60539286D01*
X133778572Y-60967857D02*
X134064286Y-59682143D01*
X134921429Y-60110714D02*
X134921429Y-60777381D01*
X134683333Y-59729762D02*
X134445238Y-60444048D01*
X135064286Y-60444048D01*
X150780952Y-60777381D02*
X150780952Y-59777381D01*
X151352381Y-60777381D02*
X150923809Y-60205952D01*
X151352381Y-59777381D02*
X150780952Y-60348810D01*
X151542857Y-60872619D02*
X152304762Y-60872619D01*
X152495238Y-60110714D02*
X153209524Y-60110714D01*
X152780952Y-59682143D02*
X152495238Y-60967857D01*
X153114286Y-60539286D02*
X152400000Y-60539286D01*
X152828572Y-60967857D02*
X153114286Y-59682143D01*
X154019048Y-59777381D02*
X153542857Y-59777381D01*
X153495238Y-60253571D01*
X153542857Y-60205952D01*
X153638095Y-60158333D01*
X153876191Y-60158333D01*
X153971429Y-60205952D01*
X154019048Y-60253571D01*
X154066667Y-60348810D01*
X154066667Y-60586905D01*
X154019048Y-60682143D01*
X153971429Y-60729762D01*
X153876191Y-60777381D01*
X153638095Y-60777381D01*
X153542857Y-60729762D01*
X153495238Y-60682143D01*
X169830952Y-60777381D02*
X169830952Y-59777381D01*
X170402381Y-60777381D02*
X169973809Y-60205952D01*
X170402381Y-59777381D02*
X169830952Y-60348810D01*
X170592857Y-60872619D02*
X171354762Y-60872619D01*
X171545238Y-60110714D02*
X172259524Y-60110714D01*
X171830952Y-59682143D02*
X171545238Y-60967857D01*
X172164286Y-60539286D02*
X171450000Y-60539286D01*
X171878572Y-60967857D02*
X172164286Y-59682143D01*
X173021429Y-59777381D02*
X172830952Y-59777381D01*
X172735714Y-59825000D01*
X172688095Y-59872619D01*
X172592857Y-60015476D01*
X172545238Y-60205952D01*
X172545238Y-60586905D01*
X172592857Y-60682143D01*
X172640476Y-60729762D01*
X172735714Y-60777381D01*
X172926191Y-60777381D01*
X173021429Y-60729762D01*
X173069048Y-60682143D01*
X173116667Y-60586905D01*
X173116667Y-60348810D01*
X173069048Y-60253571D01*
X173021429Y-60205952D01*
X172926191Y-60158333D01*
X172735714Y-60158333D01*
X172640476Y-60205952D01*
X172592857Y-60253571D01*
X172545238Y-60348810D01*
X188880952Y-60777381D02*
X188880952Y-59777381D01*
X189452381Y-60777381D02*
X189023809Y-60205952D01*
X189452381Y-59777381D02*
X188880952Y-60348810D01*
X189642857Y-60872619D02*
X190404762Y-60872619D01*
X190595238Y-60110714D02*
X191309524Y-60110714D01*
X190880952Y-59682143D02*
X190595238Y-60967857D01*
X191214286Y-60539286D02*
X190500000Y-60539286D01*
X190928572Y-60967857D02*
X191214286Y-59682143D01*
X191547619Y-59777381D02*
X192214286Y-59777381D01*
X191785714Y-60777381D01*
X207930952Y-60777381D02*
X207930952Y-59777381D01*
X208502381Y-60777381D02*
X208073809Y-60205952D01*
X208502381Y-59777381D02*
X207930952Y-60348810D01*
X208692857Y-60872619D02*
X209454762Y-60872619D01*
X209645238Y-60110714D02*
X210359524Y-60110714D01*
X209930952Y-59682143D02*
X209645238Y-60967857D01*
X210264286Y-60539286D02*
X209550000Y-60539286D01*
X209978572Y-60967857D02*
X210264286Y-59682143D01*
X210835714Y-60205952D02*
X210740476Y-60158333D01*
X210692857Y-60110714D01*
X210645238Y-60015476D01*
X210645238Y-59967857D01*
X210692857Y-59872619D01*
X210740476Y-59825000D01*
X210835714Y-59777381D01*
X211026191Y-59777381D01*
X211121429Y-59825000D01*
X211169048Y-59872619D01*
X211216667Y-59967857D01*
X211216667Y-60015476D01*
X211169048Y-60110714D01*
X211121429Y-60158333D01*
X211026191Y-60205952D01*
X210835714Y-60205952D01*
X210740476Y-60253571D01*
X210692857Y-60301190D01*
X210645238Y-60396429D01*
X210645238Y-60586905D01*
X210692857Y-60682143D01*
X210740476Y-60729762D01*
X210835714Y-60777381D01*
X211026191Y-60777381D01*
X211121429Y-60729762D01*
X211169048Y-60682143D01*
X211216667Y-60586905D01*
X211216667Y-60396429D01*
X211169048Y-60301190D01*
X211121429Y-60253571D01*
X211026191Y-60205952D01*
X226980952Y-60777381D02*
X226980952Y-59777381D01*
X227552381Y-60777381D02*
X227123809Y-60205952D01*
X227552381Y-59777381D02*
X226980952Y-60348810D01*
X227742857Y-60872619D02*
X228504762Y-60872619D01*
X228695238Y-60110714D02*
X229409524Y-60110714D01*
X228980952Y-59682143D02*
X228695238Y-60967857D01*
X229314286Y-60539286D02*
X228600000Y-60539286D01*
X229028572Y-60967857D02*
X229314286Y-59682143D01*
X229790476Y-60777381D02*
X229980952Y-60777381D01*
X230076191Y-60729762D01*
X230123810Y-60682143D01*
X230219048Y-60539286D01*
X230266667Y-60348810D01*
X230266667Y-59967857D01*
X230219048Y-59872619D01*
X230171429Y-59825000D01*
X230076191Y-59777381D01*
X229885714Y-59777381D01*
X229790476Y-59825000D01*
X229742857Y-59872619D01*
X229695238Y-59967857D01*
X229695238Y-60205952D01*
X229742857Y-60301190D01*
X229790476Y-60348810D01*
X229885714Y-60396429D01*
X230076191Y-60396429D01*
X230171429Y-60348810D01*
X230219048Y-60301190D01*
X230266667Y-60205952D01*
X279630357Y-98877381D02*
X279630357Y-97877381D01*
X280201786Y-98877381D02*
X279773214Y-98305952D01*
X280201786Y-97877381D02*
X279630357Y-98448810D01*
X280392262Y-98972619D02*
X281154167Y-98972619D01*
X281439881Y-97877381D02*
X281344643Y-98067857D01*
X282392262Y-98877381D02*
X281820833Y-98877381D01*
X282106547Y-98877381D02*
X282106547Y-97877381D01*
X282011309Y-98020238D01*
X281916071Y-98115476D01*
X281820833Y-98163095D01*
X232005357Y-117927381D02*
X232005357Y-116927381D01*
X232576786Y-117927381D02*
X232148214Y-117355952D01*
X232576786Y-116927381D02*
X232005357Y-117498810D01*
X232767262Y-118022619D02*
X233529167Y-118022619D01*
X233814881Y-117879762D02*
X233814881Y-117927381D01*
X233767262Y-118022619D01*
X233719643Y-118070238D01*
X234767262Y-117927381D02*
X234195833Y-117927381D01*
X234481547Y-117927381D02*
X234481547Y-116927381D01*
X234386309Y-117070238D01*
X234291071Y-117165476D01*
X234195833Y-117213095D01*
X264961905Y-60777381D02*
X264961905Y-59777381D01*
X265533334Y-60777381D02*
X265104762Y-60205952D01*
X265533334Y-59777381D02*
X264961905Y-60348810D01*
X265723810Y-60872619D02*
X266485715Y-60872619D01*
X266723810Y-60396429D02*
X267485715Y-60396429D01*
X268485715Y-60777381D02*
X267914286Y-60777381D01*
X268200000Y-60777381D02*
X268200000Y-59777381D01*
X268104762Y-59920238D01*
X268009524Y-60015476D01*
X267914286Y-60063095D01*
X251055357Y-117927381D02*
X251055357Y-116927381D01*
X251626786Y-117927381D02*
X251198214Y-117355952D01*
X251626786Y-116927381D02*
X251055357Y-117498810D01*
X251817262Y-118022619D02*
X252579167Y-118022619D01*
X252817262Y-117832143D02*
X252864881Y-117879762D01*
X252817262Y-117927381D01*
X252769643Y-117879762D01*
X252817262Y-117832143D01*
X252817262Y-117927381D01*
X253817262Y-117927381D02*
X253245833Y-117927381D01*
X253531547Y-117927381D02*
X253531547Y-116927381D01*
X253436309Y-117070238D01*
X253341071Y-117165476D01*
X253245833Y-117213095D01*
X276963393Y-117927381D02*
X276963393Y-116927381D01*
X277534822Y-117927381D02*
X277106250Y-117355952D01*
X277534822Y-116927381D02*
X276963393Y-117498810D01*
X277725298Y-118022619D02*
X278487203Y-118022619D01*
X279439584Y-116879762D02*
X278582441Y-118165476D01*
X280296727Y-117927381D02*
X279725298Y-117927381D01*
X280011012Y-117927381D02*
X280011012Y-116927381D01*
X279915774Y-117070238D01*
X279820536Y-117165476D01*
X279725298Y-117213095D01*
X269819643Y-117927381D02*
X269819643Y-116927381D01*
X270391072Y-117927381D02*
X269962500Y-117355952D01*
X270391072Y-116927381D02*
X269819643Y-117498810D01*
X270581548Y-118022619D02*
X271343453Y-118022619D01*
X272295834Y-116879762D02*
X271438691Y-118165476D01*
X272581548Y-117022619D02*
X272629167Y-116975000D01*
X272724405Y-116927381D01*
X272962501Y-116927381D01*
X273057739Y-116975000D01*
X273105358Y-117022619D01*
X273152977Y-117117857D01*
X273152977Y-117213095D01*
X273105358Y-117355952D01*
X272533929Y-117927381D01*
X273152977Y-117927381D01*
X260580357Y-98877381D02*
X260580357Y-97877381D01*
X261151786Y-98877381D02*
X260723214Y-98305952D01*
X261151786Y-97877381D02*
X260580357Y-98448810D01*
X261342262Y-98972619D02*
X262104167Y-98972619D01*
X262389881Y-98829762D02*
X262389881Y-98877381D01*
X262342262Y-98972619D01*
X262294643Y-99020238D01*
X262342262Y-98258333D02*
X262389881Y-98305952D01*
X262342262Y-98353571D01*
X262294643Y-98305952D01*
X262342262Y-98258333D01*
X262342262Y-98353571D01*
X263342262Y-98877381D02*
X262770833Y-98877381D01*
X263056547Y-98877381D02*
X263056547Y-97877381D01*
X262961309Y-98020238D01*
X262866071Y-98115476D01*
X262770833Y-98163095D01*
X284011905Y-60777381D02*
X284011905Y-59777381D01*
X284583334Y-60777381D02*
X284154762Y-60205952D01*
X284583334Y-59777381D02*
X284011905Y-60348810D01*
X284773810Y-60872619D02*
X285535715Y-60872619D01*
X285773810Y-60253571D02*
X286535715Y-60253571D01*
X286535715Y-60539286D02*
X285773810Y-60539286D01*
X287535715Y-60777381D02*
X286964286Y-60777381D01*
X287250000Y-60777381D02*
X287250000Y-59777381D01*
X287154762Y-59920238D01*
X287059524Y-60015476D01*
X286964286Y-60063095D01*
X88939881Y-98877381D02*
X88939881Y-97877381D01*
X89511310Y-98877381D02*
X89082738Y-98305952D01*
X89511310Y-97877381D02*
X88939881Y-98448810D01*
X89701786Y-98972619D02*
X90463691Y-98972619D01*
X90654167Y-98591667D02*
X91130358Y-98591667D01*
X90558929Y-98877381D02*
X90892262Y-97877381D01*
X91225596Y-98877381D01*
X92082739Y-98877381D02*
X91511310Y-98877381D01*
X91797024Y-98877381D02*
X91797024Y-97877381D01*
X91701786Y-98020238D01*
X91606548Y-98115476D01*
X91511310Y-98163095D01*
X104822916Y-136977381D02*
X104822916Y-135977381D01*
X105394345Y-136977381D02*
X104965773Y-136405952D01*
X105394345Y-135977381D02*
X104822916Y-136548810D01*
X105584821Y-137072619D02*
X106346726Y-137072619D01*
X106537202Y-136691667D02*
X107013393Y-136691667D01*
X106441964Y-136977381D02*
X106775297Y-135977381D01*
X107108631Y-136977381D01*
X107918155Y-136977381D02*
X107441964Y-136977381D01*
X107441964Y-135977381D01*
X108108631Y-135977381D02*
X108680060Y-135977381D01*
X108394345Y-136977381D02*
X108394345Y-135977381D01*
X109537203Y-136977381D02*
X108965774Y-136977381D01*
X109251488Y-136977381D02*
X109251488Y-135977381D01*
X109156250Y-136120238D01*
X109061012Y-136215476D01*
X108965774Y-136263095D01*
X174593452Y-117927381D02*
X174593452Y-116927381D01*
X175164881Y-117927381D02*
X174736309Y-117355952D01*
X175164881Y-116927381D02*
X174593452Y-117498810D01*
X175355357Y-118022619D02*
X176117262Y-118022619D01*
X176688691Y-117403571D02*
X176831548Y-117451190D01*
X176879167Y-117498810D01*
X176926786Y-117594048D01*
X176926786Y-117736905D01*
X176879167Y-117832143D01*
X176831548Y-117879762D01*
X176736310Y-117927381D01*
X176355357Y-117927381D01*
X176355357Y-116927381D01*
X176688691Y-116927381D01*
X176783929Y-116975000D01*
X176831548Y-117022619D01*
X176879167Y-117117857D01*
X176879167Y-117213095D01*
X176831548Y-117308333D01*
X176783929Y-117355952D01*
X176688691Y-117403571D01*
X176355357Y-117403571D01*
X177879167Y-117927381D02*
X177307738Y-117927381D01*
X177593452Y-117927381D02*
X177593452Y-116927381D01*
X177498214Y-117070238D01*
X177402976Y-117165476D01*
X177307738Y-117213095D01*
X320802381Y-60777381D02*
X320802381Y-59777381D01*
X321373810Y-60777381D02*
X320945238Y-60205952D01*
X321373810Y-59777381D02*
X320802381Y-60348810D01*
X321564286Y-60872619D02*
X322326191Y-60872619D01*
X322897620Y-60253571D02*
X323040477Y-60301190D01*
X323088096Y-60348810D01*
X323135715Y-60444048D01*
X323135715Y-60586905D01*
X323088096Y-60682143D01*
X323040477Y-60729762D01*
X322945239Y-60777381D01*
X322564286Y-60777381D01*
X322564286Y-59777381D01*
X322897620Y-59777381D01*
X322992858Y-59825000D01*
X323040477Y-59872619D01*
X323088096Y-59967857D01*
X323088096Y-60063095D01*
X323040477Y-60158333D01*
X322992858Y-60205952D01*
X322897620Y-60253571D01*
X322564286Y-60253571D01*
X323516667Y-60491667D02*
X323992858Y-60491667D01*
X323421429Y-60777381D02*
X323754762Y-59777381D01*
X324088096Y-60777381D01*
X324992858Y-60682143D02*
X324945239Y-60729762D01*
X324802382Y-60777381D01*
X324707144Y-60777381D01*
X324564286Y-60729762D01*
X324469048Y-60634524D01*
X324421429Y-60539286D01*
X324373810Y-60348810D01*
X324373810Y-60205952D01*
X324421429Y-60015476D01*
X324469048Y-59920238D01*
X324564286Y-59825000D01*
X324707144Y-59777381D01*
X324802382Y-59777381D01*
X324945239Y-59825000D01*
X324992858Y-59872619D01*
X325421429Y-60777381D02*
X325421429Y-59777381D01*
X325992858Y-60777381D02*
X325564286Y-60205952D01*
X325992858Y-59777381D02*
X325421429Y-60348810D01*
X326945239Y-60777381D02*
X326373810Y-60777381D01*
X326659524Y-60777381D02*
X326659524Y-59777381D01*
X326564286Y-59920238D01*
X326469048Y-60015476D01*
X326373810Y-60063095D01*
X311277381Y-60777381D02*
X311277381Y-59777381D01*
X311848810Y-60777381D02*
X311420238Y-60205952D01*
X311848810Y-59777381D02*
X311277381Y-60348810D01*
X312039286Y-60872619D02*
X312801191Y-60872619D01*
X313372620Y-60253571D02*
X313515477Y-60301190D01*
X313563096Y-60348810D01*
X313610715Y-60444048D01*
X313610715Y-60586905D01*
X313563096Y-60682143D01*
X313515477Y-60729762D01*
X313420239Y-60777381D01*
X313039286Y-60777381D01*
X313039286Y-59777381D01*
X313372620Y-59777381D01*
X313467858Y-59825000D01*
X313515477Y-59872619D01*
X313563096Y-59967857D01*
X313563096Y-60063095D01*
X313515477Y-60158333D01*
X313467858Y-60205952D01*
X313372620Y-60253571D01*
X313039286Y-60253571D01*
X313991667Y-60491667D02*
X314467858Y-60491667D01*
X313896429Y-60777381D02*
X314229762Y-59777381D01*
X314563096Y-60777381D01*
X315467858Y-60682143D02*
X315420239Y-60729762D01*
X315277382Y-60777381D01*
X315182144Y-60777381D01*
X315039286Y-60729762D01*
X314944048Y-60634524D01*
X314896429Y-60539286D01*
X314848810Y-60348810D01*
X314848810Y-60205952D01*
X314896429Y-60015476D01*
X314944048Y-59920238D01*
X315039286Y-59825000D01*
X315182144Y-59777381D01*
X315277382Y-59777381D01*
X315420239Y-59825000D01*
X315467858Y-59872619D01*
X315896429Y-60777381D02*
X315896429Y-59777381D01*
X316467858Y-60777381D02*
X316039286Y-60205952D01*
X316467858Y-59777381D02*
X315896429Y-60348810D01*
X316848810Y-59872619D02*
X316896429Y-59825000D01*
X316991667Y-59777381D01*
X317229763Y-59777381D01*
X317325001Y-59825000D01*
X317372620Y-59872619D01*
X317420239Y-59967857D01*
X317420239Y-60063095D01*
X317372620Y-60205952D01*
X316801191Y-60777381D01*
X317420239Y-60777381D01*
X136493452Y-117927381D02*
X136493452Y-116927381D01*
X137064881Y-117927381D02*
X136636309Y-117355952D01*
X137064881Y-116927381D02*
X136493452Y-117498810D01*
X137255357Y-118022619D02*
X138017262Y-118022619D01*
X138826786Y-117832143D02*
X138779167Y-117879762D01*
X138636310Y-117927381D01*
X138541072Y-117927381D01*
X138398214Y-117879762D01*
X138302976Y-117784524D01*
X138255357Y-117689286D01*
X138207738Y-117498810D01*
X138207738Y-117355952D01*
X138255357Y-117165476D01*
X138302976Y-117070238D01*
X138398214Y-116975000D01*
X138541072Y-116927381D01*
X138636310Y-116927381D01*
X138779167Y-116975000D01*
X138826786Y-117022619D01*
X139779167Y-117927381D02*
X139207738Y-117927381D01*
X139493452Y-117927381D02*
X139493452Y-116927381D01*
X139398214Y-117070238D01*
X139302976Y-117165476D01*
X139207738Y-117213095D01*
X63651190Y-98877381D02*
X63651190Y-97877381D01*
X64222619Y-98877381D02*
X63794047Y-98305952D01*
X64222619Y-97877381D02*
X63651190Y-98448810D01*
X64413095Y-98972619D02*
X65175000Y-98972619D01*
X65984524Y-98782143D02*
X65936905Y-98829762D01*
X65794048Y-98877381D01*
X65698810Y-98877381D01*
X65555952Y-98829762D01*
X65460714Y-98734524D01*
X65413095Y-98639286D01*
X65365476Y-98448810D01*
X65365476Y-98305952D01*
X65413095Y-98115476D01*
X65460714Y-98020238D01*
X65555952Y-97925000D01*
X65698810Y-97877381D01*
X65794048Y-97877381D01*
X65936905Y-97925000D01*
X65984524Y-97972619D01*
X66365476Y-98591667D02*
X66841667Y-98591667D01*
X66270238Y-98877381D02*
X66603571Y-97877381D01*
X66936905Y-98877381D01*
X67270238Y-98877381D02*
X67270238Y-97877381D01*
X67651191Y-97877381D01*
X67746429Y-97925000D01*
X67794048Y-97972619D01*
X67841667Y-98067857D01*
X67841667Y-98210714D01*
X67794048Y-98305952D01*
X67746429Y-98353571D01*
X67651191Y-98401190D01*
X67270238Y-98401190D01*
X68222619Y-98829762D02*
X68365476Y-98877381D01*
X68603572Y-98877381D01*
X68698810Y-98829762D01*
X68746429Y-98782143D01*
X68794048Y-98686905D01*
X68794048Y-98591667D01*
X68746429Y-98496429D01*
X68698810Y-98448810D01*
X68603572Y-98401190D01*
X68413095Y-98353571D01*
X68317857Y-98305952D01*
X68270238Y-98258333D01*
X68222619Y-98163095D01*
X68222619Y-98067857D01*
X68270238Y-97972619D01*
X68317857Y-97925000D01*
X68413095Y-97877381D01*
X68651191Y-97877381D01*
X68794048Y-97925000D01*
X69746429Y-98877381D02*
X69175000Y-98877381D01*
X69460714Y-98877381D02*
X69460714Y-97877381D01*
X69365476Y-98020238D01*
X69270238Y-98115476D01*
X69175000Y-98163095D01*
X54245238Y-136977381D02*
X54245238Y-135977381D01*
X54816667Y-136977381D02*
X54388095Y-136405952D01*
X54816667Y-135977381D02*
X54245238Y-136548810D01*
X55007143Y-137072619D02*
X55769048Y-137072619D01*
X56578572Y-136882143D02*
X56530953Y-136929762D01*
X56388096Y-136977381D01*
X56292858Y-136977381D01*
X56150000Y-136929762D01*
X56054762Y-136834524D01*
X56007143Y-136739286D01*
X55959524Y-136548810D01*
X55959524Y-136405952D01*
X56007143Y-136215476D01*
X56054762Y-136120238D01*
X56150000Y-136025000D01*
X56292858Y-135977381D01*
X56388096Y-135977381D01*
X56530953Y-136025000D01*
X56578572Y-136072619D01*
X56864286Y-135977381D02*
X57435715Y-135977381D01*
X57150000Y-136977381D02*
X57150000Y-135977381D01*
X58340477Y-136977381D02*
X58007143Y-136501190D01*
X57769048Y-136977381D02*
X57769048Y-135977381D01*
X58150001Y-135977381D01*
X58245239Y-136025000D01*
X58292858Y-136072619D01*
X58340477Y-136167857D01*
X58340477Y-136310714D01*
X58292858Y-136405952D01*
X58245239Y-136453571D01*
X58150001Y-136501190D01*
X57769048Y-136501190D01*
X59245239Y-136977381D02*
X58769048Y-136977381D01*
X58769048Y-135977381D01*
X60102382Y-136977381D02*
X59530953Y-136977381D01*
X59816667Y-136977381D02*
X59816667Y-135977381D01*
X59721429Y-136120238D01*
X59626191Y-136215476D01*
X59530953Y-136263095D01*
X126968452Y-98877381D02*
X126968452Y-97877381D01*
X127539881Y-98877381D02*
X127111309Y-98305952D01*
X127539881Y-97877381D02*
X126968452Y-98448810D01*
X127730357Y-98972619D02*
X128492262Y-98972619D01*
X128730357Y-98877381D02*
X128730357Y-97877381D01*
X128968452Y-97877381D01*
X129111310Y-97925000D01*
X129206548Y-98020238D01*
X129254167Y-98115476D01*
X129301786Y-98305952D01*
X129301786Y-98448810D01*
X129254167Y-98639286D01*
X129206548Y-98734524D01*
X129111310Y-98829762D01*
X128968452Y-98877381D01*
X128730357Y-98877381D01*
X130254167Y-98877381D02*
X129682738Y-98877381D01*
X129968452Y-98877381D02*
X129968452Y-97877381D01*
X129873214Y-98020238D01*
X129777976Y-98115476D01*
X129682738Y-98163095D01*
X302323809Y-60777381D02*
X302323809Y-59777381D01*
X302895238Y-60777381D02*
X302466666Y-60205952D01*
X302895238Y-59777381D02*
X302323809Y-60348810D01*
X303085714Y-60872619D02*
X303847619Y-60872619D01*
X304085714Y-60777381D02*
X304085714Y-59777381D01*
X304323809Y-59777381D01*
X304466667Y-59825000D01*
X304561905Y-59920238D01*
X304609524Y-60015476D01*
X304657143Y-60205952D01*
X304657143Y-60348810D01*
X304609524Y-60539286D01*
X304561905Y-60634524D01*
X304466667Y-60729762D01*
X304323809Y-60777381D01*
X304085714Y-60777381D01*
X305085714Y-60253571D02*
X305419048Y-60253571D01*
X305561905Y-60777381D02*
X305085714Y-60777381D01*
X305085714Y-59777381D01*
X305561905Y-59777381D01*
X306466667Y-60777381D02*
X305990476Y-60777381D01*
X305990476Y-59777381D01*
X307323810Y-60777381D02*
X306752381Y-60777381D01*
X307038095Y-60777381D02*
X307038095Y-59777381D01*
X306942857Y-59920238D01*
X306847619Y-60015476D01*
X306752381Y-60063095D01*
X301561905Y-136977381D02*
X301561905Y-135977381D01*
X302133334Y-136977381D02*
X301704762Y-136405952D01*
X302133334Y-135977381D02*
X301561905Y-136548810D01*
X302323810Y-137072619D02*
X303085715Y-137072619D01*
X303323810Y-136977381D02*
X303323810Y-135977381D01*
X303561905Y-135977381D01*
X303704763Y-136025000D01*
X303800001Y-136120238D01*
X303847620Y-136215476D01*
X303895239Y-136405952D01*
X303895239Y-136548810D01*
X303847620Y-136739286D01*
X303800001Y-136834524D01*
X303704763Y-136929762D01*
X303561905Y-136977381D01*
X303323810Y-136977381D01*
X304514286Y-135977381D02*
X304704763Y-135977381D01*
X304800001Y-136025000D01*
X304895239Y-136120238D01*
X304942858Y-136310714D01*
X304942858Y-136644048D01*
X304895239Y-136834524D01*
X304800001Y-136929762D01*
X304704763Y-136977381D01*
X304514286Y-136977381D01*
X304419048Y-136929762D01*
X304323810Y-136834524D01*
X304276191Y-136644048D01*
X304276191Y-136310714D01*
X304323810Y-136120238D01*
X304419048Y-136025000D01*
X304514286Y-135977381D01*
X305276191Y-135977381D02*
X305514286Y-136977381D01*
X305704763Y-136263095D01*
X305895239Y-136977381D01*
X306133334Y-135977381D01*
X306514286Y-136977381D02*
X306514286Y-135977381D01*
X307085715Y-136977381D01*
X307085715Y-135977381D01*
X308085715Y-136977381D02*
X307514286Y-136977381D01*
X307800000Y-136977381D02*
X307800000Y-135977381D01*
X307704762Y-136120238D01*
X307609524Y-136215476D01*
X307514286Y-136263095D01*
X122253571Y-79827381D02*
X122253571Y-78827381D01*
X122825000Y-79827381D02*
X122396428Y-79255952D01*
X122825000Y-78827381D02*
X122253571Y-79398810D01*
X123015476Y-79922619D02*
X123777381Y-79922619D01*
X124015476Y-79303571D02*
X124348810Y-79303571D01*
X124491667Y-79827381D02*
X124015476Y-79827381D01*
X124015476Y-78827381D01*
X124491667Y-78827381D01*
X125444048Y-79827381D02*
X124872619Y-79827381D01*
X125158333Y-79827381D02*
X125158333Y-78827381D01*
X125063095Y-78970238D01*
X124967857Y-79065476D01*
X124872619Y-79113095D01*
X308515178Y-102846131D02*
X308515178Y-101846131D01*
X309086607Y-102846131D02*
X308658035Y-102274702D01*
X309086607Y-101846131D02*
X308515178Y-102417560D01*
X309277083Y-102941369D02*
X310038988Y-102941369D01*
X310277083Y-102322321D02*
X310610417Y-102322321D01*
X310753274Y-102846131D02*
X310277083Y-102846131D01*
X310277083Y-101846131D01*
X310753274Y-101846131D01*
X311181845Y-102846131D02*
X311181845Y-101846131D01*
X311753274Y-102846131D01*
X311753274Y-101846131D01*
X312086607Y-101846131D02*
X312658036Y-101846131D01*
X312372321Y-102846131D02*
X312372321Y-101846131D01*
X312991369Y-102322321D02*
X313324703Y-102322321D01*
X313467560Y-102846131D02*
X312991369Y-102846131D01*
X312991369Y-101846131D01*
X313467560Y-101846131D01*
X314467560Y-102846131D02*
X314134226Y-102369940D01*
X313896131Y-102846131D02*
X313896131Y-101846131D01*
X314277084Y-101846131D01*
X314372322Y-101893750D01*
X314419941Y-101941369D01*
X314467560Y-102036607D01*
X314467560Y-102179464D01*
X314419941Y-102274702D01*
X314372322Y-102322321D01*
X314277084Y-102369940D01*
X313896131Y-102369940D01*
X315419941Y-102846131D02*
X314848512Y-102846131D01*
X315134226Y-102846131D02*
X315134226Y-101846131D01*
X315038988Y-101988988D01*
X314943750Y-102084226D01*
X314848512Y-102131845D01*
X54602381Y-60777381D02*
X54602381Y-59777381D01*
X55173810Y-60777381D02*
X54745238Y-60205952D01*
X55173810Y-59777381D02*
X54602381Y-60348810D01*
X55364286Y-60872619D02*
X56126191Y-60872619D01*
X56364286Y-60253571D02*
X56697620Y-60253571D01*
X56840477Y-60777381D02*
X56364286Y-60777381D01*
X56364286Y-59777381D01*
X56840477Y-59777381D01*
X57221429Y-60729762D02*
X57364286Y-60777381D01*
X57602382Y-60777381D01*
X57697620Y-60729762D01*
X57745239Y-60682143D01*
X57792858Y-60586905D01*
X57792858Y-60491667D01*
X57745239Y-60396429D01*
X57697620Y-60348810D01*
X57602382Y-60301190D01*
X57411905Y-60253571D01*
X57316667Y-60205952D01*
X57269048Y-60158333D01*
X57221429Y-60063095D01*
X57221429Y-59967857D01*
X57269048Y-59872619D01*
X57316667Y-59825000D01*
X57411905Y-59777381D01*
X57650001Y-59777381D01*
X57792858Y-59825000D01*
X58792858Y-60682143D02*
X58745239Y-60729762D01*
X58602382Y-60777381D01*
X58507144Y-60777381D01*
X58364286Y-60729762D01*
X58269048Y-60634524D01*
X58221429Y-60539286D01*
X58173810Y-60348810D01*
X58173810Y-60205952D01*
X58221429Y-60015476D01*
X58269048Y-59920238D01*
X58364286Y-59825000D01*
X58507144Y-59777381D01*
X58602382Y-59777381D01*
X58745239Y-59825000D01*
X58792858Y-59872619D01*
X59745239Y-60777381D02*
X59173810Y-60777381D01*
X59459524Y-60777381D02*
X59459524Y-59777381D01*
X59364286Y-59920238D01*
X59269048Y-60015476D01*
X59173810Y-60063095D01*
X146089881Y-98877381D02*
X146089881Y-97877381D01*
X146661310Y-98877381D02*
X146232738Y-98305952D01*
X146661310Y-97877381D02*
X146089881Y-98448810D01*
X146851786Y-98972619D02*
X147613691Y-98972619D01*
X148185120Y-98353571D02*
X147851786Y-98353571D01*
X147851786Y-98877381D02*
X147851786Y-97877381D01*
X148327977Y-97877381D01*
X149232739Y-98877381D02*
X148661310Y-98877381D01*
X148947024Y-98877381D02*
X148947024Y-97877381D01*
X148851786Y-98020238D01*
X148756548Y-98115476D01*
X148661310Y-98163095D01*
X245578571Y-136977381D02*
X245578571Y-135977381D01*
X246150000Y-136977381D02*
X245721428Y-136405952D01*
X246150000Y-135977381D02*
X245578571Y-136548810D01*
X246340476Y-137072619D02*
X247102381Y-137072619D01*
X247673810Y-136453571D02*
X247340476Y-136453571D01*
X247340476Y-136977381D02*
X247340476Y-135977381D01*
X247816667Y-135977381D01*
X248197619Y-136977381D02*
X248197619Y-135977381D01*
X248769048Y-136977381D01*
X248769048Y-135977381D01*
X249769048Y-136977381D02*
X249197619Y-136977381D01*
X249483333Y-136977381D02*
X249483333Y-135977381D01*
X249388095Y-136120238D01*
X249292857Y-136215476D01*
X249197619Y-136263095D01*
X184094643Y-98877381D02*
X184094643Y-97877381D01*
X184666072Y-98877381D02*
X184237500Y-98305952D01*
X184666072Y-97877381D02*
X184094643Y-98448810D01*
X184856548Y-98972619D02*
X185618453Y-98972619D01*
X185856548Y-98877381D02*
X185856548Y-97877381D01*
X185856548Y-98353571D02*
X186427977Y-98353571D01*
X186427977Y-98877381D02*
X186427977Y-97877381D01*
X187427977Y-98877381D02*
X186856548Y-98877381D01*
X187142262Y-98877381D02*
X187142262Y-97877381D01*
X187047024Y-98020238D01*
X186951786Y-98115476D01*
X186856548Y-98163095D01*
X217717857Y-79827381D02*
X217717857Y-78827381D01*
X218289286Y-79827381D02*
X217860714Y-79255952D01*
X218289286Y-78827381D02*
X217717857Y-79398810D01*
X218479762Y-79922619D02*
X219241667Y-79922619D01*
X219479762Y-79827381D02*
X219479762Y-78827381D01*
X220479762Y-79827381D02*
X219908333Y-79827381D01*
X220194047Y-79827381D02*
X220194047Y-78827381D01*
X220098809Y-78970238D01*
X220003571Y-79065476D01*
X219908333Y-79113095D01*
X78272024Y-117927381D02*
X78272024Y-116927381D01*
X78843453Y-117927381D02*
X78414881Y-117355952D01*
X78843453Y-116927381D02*
X78272024Y-117498810D01*
X79033929Y-118022619D02*
X79795834Y-118022619D01*
X80033929Y-117927381D02*
X80033929Y-116927381D01*
X80462500Y-117879762D02*
X80605357Y-117927381D01*
X80843453Y-117927381D01*
X80938691Y-117879762D01*
X80986310Y-117832143D01*
X81033929Y-117736905D01*
X81033929Y-117641667D01*
X80986310Y-117546429D01*
X80938691Y-117498810D01*
X80843453Y-117451190D01*
X80652976Y-117403571D01*
X80557738Y-117355952D01*
X80510119Y-117308333D01*
X80462500Y-117213095D01*
X80462500Y-117117857D01*
X80510119Y-117022619D01*
X80557738Y-116975000D01*
X80652976Y-116927381D01*
X80891072Y-116927381D01*
X81033929Y-116975000D01*
X81652976Y-116927381D02*
X81843453Y-116927381D01*
X81938691Y-116975000D01*
X82033929Y-117070238D01*
X82081548Y-117260714D01*
X82081548Y-117594048D01*
X82033929Y-117784524D01*
X81938691Y-117879762D01*
X81843453Y-117927381D01*
X81652976Y-117927381D01*
X81557738Y-117879762D01*
X81462500Y-117784524D01*
X81414881Y-117594048D01*
X81414881Y-117260714D01*
X81462500Y-117070238D01*
X81557738Y-116975000D01*
X81652976Y-116927381D01*
X82176786Y-116832143D02*
X83033929Y-118117857D01*
X83700596Y-117927381D02*
X83129167Y-117927381D01*
X83414881Y-117927381D02*
X83414881Y-116927381D01*
X83319643Y-117070238D01*
X83224405Y-117165476D01*
X83129167Y-117213095D01*
X297489881Y-98877381D02*
X297489881Y-97877381D01*
X298061310Y-98877381D02*
X297632738Y-98305952D01*
X298061310Y-97877381D02*
X297489881Y-98448810D01*
X298251786Y-98972619D02*
X299013691Y-98972619D01*
X299251786Y-98877381D02*
X299251786Y-97877381D01*
X299680357Y-98829762D02*
X299823214Y-98877381D01*
X300061310Y-98877381D01*
X300156548Y-98829762D01*
X300204167Y-98782143D01*
X300251786Y-98686905D01*
X300251786Y-98591667D01*
X300204167Y-98496429D01*
X300156548Y-98448810D01*
X300061310Y-98401190D01*
X299870833Y-98353571D01*
X299775595Y-98305952D01*
X299727976Y-98258333D01*
X299680357Y-98163095D01*
X299680357Y-98067857D01*
X299727976Y-97972619D01*
X299775595Y-97925000D01*
X299870833Y-97877381D01*
X300108929Y-97877381D01*
X300251786Y-97925000D01*
X300870833Y-97877381D02*
X301061310Y-97877381D01*
X301156548Y-97925000D01*
X301251786Y-98020238D01*
X301299405Y-98210714D01*
X301299405Y-98544048D01*
X301251786Y-98734524D01*
X301156548Y-98829762D01*
X301061310Y-98877381D01*
X300870833Y-98877381D01*
X300775595Y-98829762D01*
X300680357Y-98734524D01*
X300632738Y-98544048D01*
X300632738Y-98210714D01*
X300680357Y-98020238D01*
X300775595Y-97925000D01*
X300870833Y-97877381D01*
X301585119Y-97829762D02*
X301727976Y-97972619D01*
X302632738Y-98877381D02*
X302061309Y-98877381D01*
X302347023Y-98877381D02*
X302347023Y-97877381D01*
X302251785Y-98020238D01*
X302156547Y-98115476D01*
X302061309Y-98163095D01*
X203287500Y-98877381D02*
X203287500Y-97877381D01*
X203858929Y-98877381D02*
X203430357Y-98305952D01*
X203858929Y-97877381D02*
X203287500Y-98448810D01*
X204049405Y-98972619D02*
X204811310Y-98972619D01*
X205335120Y-97877381D02*
X205335120Y-98591667D01*
X205287500Y-98734524D01*
X205192262Y-98829762D01*
X205049405Y-98877381D01*
X204954167Y-98877381D01*
X206335120Y-98877381D02*
X205763691Y-98877381D01*
X206049405Y-98877381D02*
X206049405Y-97877381D01*
X205954167Y-98020238D01*
X205858929Y-98115476D01*
X205763691Y-98163095D01*
X222218452Y-98877381D02*
X222218452Y-97877381D01*
X222789881Y-98877381D02*
X222361309Y-98305952D01*
X222789881Y-97877381D02*
X222218452Y-98448810D01*
X222980357Y-98972619D02*
X223742262Y-98972619D01*
X223980357Y-98877381D02*
X223980357Y-97877381D01*
X224551786Y-98877381D02*
X224123214Y-98305952D01*
X224551786Y-97877381D02*
X223980357Y-98448810D01*
X225504167Y-98877381D02*
X224932738Y-98877381D01*
X225218452Y-98877381D02*
X225218452Y-97877381D01*
X225123214Y-98020238D01*
X225027976Y-98115476D01*
X224932738Y-98163095D01*
X241363690Y-98877381D02*
X241363690Y-97877381D01*
X241935119Y-98877381D02*
X241506547Y-98305952D01*
X241935119Y-97877381D02*
X241363690Y-98448810D01*
X242125595Y-98972619D02*
X242887500Y-98972619D01*
X243601786Y-98877381D02*
X243125595Y-98877381D01*
X243125595Y-97877381D01*
X244458929Y-98877381D02*
X243887500Y-98877381D01*
X244173214Y-98877381D02*
X244173214Y-97877381D01*
X244077976Y-98020238D01*
X243982738Y-98115476D01*
X243887500Y-98163095D01*
X282964285Y-136977381D02*
X282964285Y-135977381D01*
X283535714Y-136977381D02*
X283107142Y-136405952D01*
X283535714Y-135977381D02*
X282964285Y-136548810D01*
X283726190Y-137072619D02*
X284488095Y-137072619D01*
X285202381Y-136977381D02*
X284726190Y-136977381D01*
X284726190Y-135977381D01*
X285535714Y-136453571D02*
X285869048Y-136453571D01*
X286011905Y-136977381D02*
X285535714Y-136977381D01*
X285535714Y-135977381D01*
X286011905Y-135977381D01*
X286773810Y-136453571D02*
X286440476Y-136453571D01*
X286440476Y-136977381D02*
X286440476Y-135977381D01*
X286916667Y-135977381D01*
X287154762Y-135977381D02*
X287726191Y-135977381D01*
X287440476Y-136977381D02*
X287440476Y-135977381D01*
X288583334Y-136977381D02*
X288011905Y-136977381D01*
X288297619Y-136977381D02*
X288297619Y-135977381D01*
X288202381Y-136120238D01*
X288107143Y-136215476D01*
X288011905Y-136263095D01*
X212622024Y-117927381D02*
X212622024Y-116927381D01*
X213193453Y-117927381D02*
X212764881Y-117355952D01*
X213193453Y-116927381D02*
X212622024Y-117498810D01*
X213383929Y-118022619D02*
X214145834Y-118022619D01*
X214383929Y-117927381D02*
X214383929Y-116927381D01*
X214717263Y-117641667D01*
X215050596Y-116927381D01*
X215050596Y-117927381D01*
X216050596Y-117927381D02*
X215479167Y-117927381D01*
X215764881Y-117927381D02*
X215764881Y-116927381D01*
X215669643Y-117070238D01*
X215574405Y-117165476D01*
X215479167Y-117213095D01*
X193619643Y-117927381D02*
X193619643Y-116927381D01*
X194191072Y-117927381D02*
X193762500Y-117355952D01*
X194191072Y-116927381D02*
X193619643Y-117498810D01*
X194381548Y-118022619D02*
X195143453Y-118022619D01*
X195381548Y-117927381D02*
X195381548Y-116927381D01*
X195952977Y-117927381D01*
X195952977Y-116927381D01*
X196952977Y-117927381D02*
X196381548Y-117927381D01*
X196667262Y-117927381D02*
X196667262Y-116927381D01*
X196572024Y-117070238D01*
X196476786Y-117165476D01*
X196381548Y-117213095D01*
X236482143Y-79827381D02*
X236482143Y-78827381D01*
X237053572Y-79827381D02*
X236625000Y-79255952D01*
X237053572Y-78827381D02*
X236482143Y-79398810D01*
X237244048Y-79922619D02*
X238005953Y-79922619D01*
X238434524Y-78827381D02*
X238625001Y-78827381D01*
X238720239Y-78875000D01*
X238815477Y-78970238D01*
X238863096Y-79160714D01*
X238863096Y-79494048D01*
X238815477Y-79684524D01*
X238720239Y-79779762D01*
X238625001Y-79827381D01*
X238434524Y-79827381D01*
X238339286Y-79779762D01*
X238244048Y-79684524D01*
X238196429Y-79494048D01*
X238196429Y-79160714D01*
X238244048Y-78970238D01*
X238339286Y-78875000D01*
X238434524Y-78827381D01*
X239815477Y-79827381D02*
X239244048Y-79827381D01*
X239529762Y-79827381D02*
X239529762Y-78827381D01*
X239434524Y-78970238D01*
X239339286Y-79065476D01*
X239244048Y-79113095D01*
X255555952Y-79827381D02*
X255555952Y-78827381D01*
X256127381Y-79827381D02*
X255698809Y-79255952D01*
X256127381Y-78827381D02*
X255555952Y-79398810D01*
X256317857Y-79922619D02*
X257079762Y-79922619D01*
X257317857Y-79827381D02*
X257317857Y-78827381D01*
X257698810Y-78827381D01*
X257794048Y-78875000D01*
X257841667Y-78922619D01*
X257889286Y-79017857D01*
X257889286Y-79160714D01*
X257841667Y-79255952D01*
X257794048Y-79303571D01*
X257698810Y-79351190D01*
X257317857Y-79351190D01*
X258841667Y-79827381D02*
X258270238Y-79827381D01*
X258555952Y-79827381D02*
X258555952Y-78827381D01*
X258460714Y-78970238D01*
X258365476Y-79065476D01*
X258270238Y-79113095D01*
X84082143Y-79827381D02*
X84082143Y-78827381D01*
X84653572Y-79827381D02*
X84225000Y-79255952D01*
X84653572Y-78827381D02*
X84082143Y-79398810D01*
X84844048Y-79922619D02*
X85605953Y-79922619D01*
X86510715Y-79922619D02*
X86415477Y-79875000D01*
X86320239Y-79779762D01*
X86177382Y-79636905D01*
X86082143Y-79589286D01*
X85986905Y-79589286D01*
X86034524Y-79827381D02*
X85939286Y-79779762D01*
X85844048Y-79684524D01*
X85796429Y-79494048D01*
X85796429Y-79160714D01*
X85844048Y-78970238D01*
X85939286Y-78875000D01*
X86034524Y-78827381D01*
X86225001Y-78827381D01*
X86320239Y-78875000D01*
X86415477Y-78970238D01*
X86463096Y-79160714D01*
X86463096Y-79494048D01*
X86415477Y-79684524D01*
X86320239Y-79779762D01*
X86225001Y-79827381D01*
X86034524Y-79827381D01*
X87415477Y-79827381D02*
X86844048Y-79827381D01*
X87129762Y-79827381D02*
X87129762Y-78827381D01*
X87034524Y-78970238D01*
X86939286Y-79065476D01*
X86844048Y-79113095D01*
X141255952Y-79827381D02*
X141255952Y-78827381D01*
X141827381Y-79827381D02*
X141398809Y-79255952D01*
X141827381Y-78827381D02*
X141255952Y-79398810D01*
X142017857Y-79922619D02*
X142779762Y-79922619D01*
X143589286Y-79827381D02*
X143255952Y-79351190D01*
X143017857Y-79827381D02*
X143017857Y-78827381D01*
X143398810Y-78827381D01*
X143494048Y-78875000D01*
X143541667Y-78922619D01*
X143589286Y-79017857D01*
X143589286Y-79160714D01*
X143541667Y-79255952D01*
X143494048Y-79303571D01*
X143398810Y-79351190D01*
X143017857Y-79351190D01*
X144541667Y-79827381D02*
X143970238Y-79827381D01*
X144255952Y-79827381D02*
X144255952Y-78827381D01*
X144160714Y-78970238D01*
X144065476Y-79065476D01*
X143970238Y-79113095D01*
X322969345Y-136977381D02*
X322969345Y-135977381D01*
X323540774Y-136977381D02*
X323112202Y-136405952D01*
X323540774Y-135977381D02*
X322969345Y-136548810D01*
X323731250Y-137072619D02*
X324493155Y-137072619D01*
X325302679Y-136977381D02*
X324969345Y-136501190D01*
X324731250Y-136977381D02*
X324731250Y-135977381D01*
X325112203Y-135977381D01*
X325207441Y-136025000D01*
X325255060Y-136072619D01*
X325302679Y-136167857D01*
X325302679Y-136310714D01*
X325255060Y-136405952D01*
X325207441Y-136453571D01*
X325112203Y-136501190D01*
X324731250Y-136501190D01*
X325731250Y-136977381D02*
X325731250Y-135977381D01*
X326731250Y-136025000D02*
X326636012Y-135977381D01*
X326493155Y-135977381D01*
X326350297Y-136025000D01*
X326255059Y-136120238D01*
X326207440Y-136215476D01*
X326159821Y-136405952D01*
X326159821Y-136548810D01*
X326207440Y-136739286D01*
X326255059Y-136834524D01*
X326350297Y-136929762D01*
X326493155Y-136977381D01*
X326588393Y-136977381D01*
X326731250Y-136929762D01*
X326778869Y-136882143D01*
X326778869Y-136548810D01*
X326588393Y-136548810D01*
X327207440Y-136977381D02*
X327207440Y-135977381D01*
X327207440Y-136453571D02*
X327778869Y-136453571D01*
X327778869Y-136977381D02*
X327778869Y-135977381D01*
X328112202Y-135977381D02*
X328683631Y-135977381D01*
X328397916Y-136977381D02*
X328397916Y-135977381D01*
X329540774Y-136977381D02*
X328969345Y-136977381D01*
X329255059Y-136977381D02*
X329255059Y-135977381D01*
X329159821Y-136120238D01*
X329064583Y-136215476D01*
X328969345Y-136263095D01*
X320183333Y-117927381D02*
X320183333Y-116927381D01*
X320754762Y-117927381D02*
X320326190Y-117355952D01*
X320754762Y-116927381D02*
X320183333Y-117498810D01*
X320945238Y-118022619D02*
X321707143Y-118022619D01*
X322516667Y-117927381D02*
X322183333Y-117451190D01*
X321945238Y-117927381D02*
X321945238Y-116927381D01*
X322326191Y-116927381D01*
X322421429Y-116975000D01*
X322469048Y-117022619D01*
X322516667Y-117117857D01*
X322516667Y-117260714D01*
X322469048Y-117355952D01*
X322421429Y-117403571D01*
X322326191Y-117451190D01*
X321945238Y-117451190D01*
X322897619Y-117879762D02*
X323040476Y-117927381D01*
X323278572Y-117927381D01*
X323373810Y-117879762D01*
X323421429Y-117832143D01*
X323469048Y-117736905D01*
X323469048Y-117641667D01*
X323421429Y-117546429D01*
X323373810Y-117498810D01*
X323278572Y-117451190D01*
X323088095Y-117403571D01*
X322992857Y-117355952D01*
X322945238Y-117308333D01*
X322897619Y-117213095D01*
X322897619Y-117117857D01*
X322945238Y-117022619D01*
X322992857Y-116975000D01*
X323088095Y-116927381D01*
X323326191Y-116927381D01*
X323469048Y-116975000D01*
X323897619Y-117927381D02*
X323897619Y-116927381D01*
X323897619Y-117403571D02*
X324469048Y-117403571D01*
X324469048Y-117927381D02*
X324469048Y-116927381D01*
X324945238Y-117927381D02*
X324945238Y-116927381D01*
X325754762Y-117403571D02*
X325421428Y-117403571D01*
X325421428Y-117927381D02*
X325421428Y-116927381D01*
X325897619Y-116927381D01*
X326135714Y-116927381D02*
X326707143Y-116927381D01*
X326421428Y-117927381D02*
X326421428Y-116927381D01*
X327564286Y-117927381D02*
X326992857Y-117927381D01*
X327278571Y-117927381D02*
X327278571Y-116927381D01*
X327183333Y-117070238D01*
X327088095Y-117165476D01*
X326992857Y-117213095D01*
X107942262Y-98877381D02*
X107942262Y-97877381D01*
X108513691Y-98877381D02*
X108085119Y-98305952D01*
X108513691Y-97877381D02*
X107942262Y-98448810D01*
X108704167Y-98972619D02*
X109466072Y-98972619D01*
X109656548Y-98829762D02*
X109799405Y-98877381D01*
X110037501Y-98877381D01*
X110132739Y-98829762D01*
X110180358Y-98782143D01*
X110227977Y-98686905D01*
X110227977Y-98591667D01*
X110180358Y-98496429D01*
X110132739Y-98448810D01*
X110037501Y-98401190D01*
X109847024Y-98353571D01*
X109751786Y-98305952D01*
X109704167Y-98258333D01*
X109656548Y-98163095D01*
X109656548Y-98067857D01*
X109704167Y-97972619D01*
X109751786Y-97925000D01*
X109847024Y-97877381D01*
X110085120Y-97877381D01*
X110227977Y-97925000D01*
X111180358Y-98877381D02*
X110608929Y-98877381D01*
X110894643Y-98877381D02*
X110894643Y-97877381D01*
X110799405Y-98020238D01*
X110704167Y-98115476D01*
X110608929Y-98163095D01*
X65889583Y-117927381D02*
X65889583Y-116927381D01*
X66461012Y-117927381D02*
X66032440Y-117355952D01*
X66461012Y-116927381D02*
X65889583Y-117498810D01*
X66651488Y-118022619D02*
X67413393Y-118022619D01*
X67603869Y-117879762D02*
X67746726Y-117927381D01*
X67984822Y-117927381D01*
X68080060Y-117879762D01*
X68127679Y-117832143D01*
X68175298Y-117736905D01*
X68175298Y-117641667D01*
X68127679Y-117546429D01*
X68080060Y-117498810D01*
X67984822Y-117451190D01*
X67794345Y-117403571D01*
X67699107Y-117355952D01*
X67651488Y-117308333D01*
X67603869Y-117213095D01*
X67603869Y-117117857D01*
X67651488Y-117022619D01*
X67699107Y-116975000D01*
X67794345Y-116927381D01*
X68032441Y-116927381D01*
X68175298Y-116975000D01*
X68603869Y-117927381D02*
X68603869Y-116927381D01*
X68603869Y-117403571D02*
X69175298Y-117403571D01*
X69175298Y-117927381D02*
X69175298Y-116927381D01*
X69651488Y-117927381D02*
X69651488Y-116927381D01*
X70461012Y-117403571D02*
X70127678Y-117403571D01*
X70127678Y-117927381D02*
X70127678Y-116927381D01*
X70603869Y-116927381D01*
X70841964Y-116927381D02*
X71413393Y-116927381D01*
X71127678Y-117927381D02*
X71127678Y-116927381D01*
X72270536Y-117927381D02*
X71699107Y-117927381D01*
X71984821Y-117927381D02*
X71984821Y-116927381D01*
X71889583Y-117070238D01*
X71794345Y-117165476D01*
X71699107Y-117213095D01*
X175117559Y-136977381D02*
X175117559Y-135977381D01*
X175688988Y-136977381D02*
X175260416Y-136405952D01*
X175688988Y-135977381D02*
X175117559Y-136548810D01*
X175879464Y-137072619D02*
X176641369Y-137072619D01*
X176831845Y-136929762D02*
X176974702Y-136977381D01*
X177212798Y-136977381D01*
X177308036Y-136929762D01*
X177355655Y-136882143D01*
X177403274Y-136786905D01*
X177403274Y-136691667D01*
X177355655Y-136596429D01*
X177308036Y-136548810D01*
X177212798Y-136501190D01*
X177022321Y-136453571D01*
X176927083Y-136405952D01*
X176879464Y-136358333D01*
X176831845Y-136263095D01*
X176831845Y-136167857D01*
X176879464Y-136072619D01*
X176927083Y-136025000D01*
X177022321Y-135977381D01*
X177260417Y-135977381D01*
X177403274Y-136025000D01*
X177831845Y-136977381D02*
X177831845Y-135977381D01*
X178212798Y-135977381D01*
X178308036Y-136025000D01*
X178355655Y-136072619D01*
X178403274Y-136167857D01*
X178403274Y-136310714D01*
X178355655Y-136405952D01*
X178308036Y-136453571D01*
X178212798Y-136501190D01*
X177831845Y-136501190D01*
X178784226Y-136691667D02*
X179260417Y-136691667D01*
X178688988Y-136977381D02*
X179022321Y-135977381D01*
X179355655Y-136977381D01*
X180260417Y-136882143D02*
X180212798Y-136929762D01*
X180069941Y-136977381D01*
X179974703Y-136977381D01*
X179831845Y-136929762D01*
X179736607Y-136834524D01*
X179688988Y-136739286D01*
X179641369Y-136548810D01*
X179641369Y-136405952D01*
X179688988Y-136215476D01*
X179736607Y-136120238D01*
X179831845Y-136025000D01*
X179974703Y-135977381D01*
X180069941Y-135977381D01*
X180212798Y-136025000D01*
X180260417Y-136072619D01*
X180688988Y-136453571D02*
X181022322Y-136453571D01*
X181165179Y-136977381D02*
X180688988Y-136977381D01*
X180688988Y-135977381D01*
X181165179Y-135977381D01*
X182117560Y-136977381D02*
X181546131Y-136977381D01*
X181831845Y-136977381D02*
X181831845Y-135977381D01*
X181736607Y-136120238D01*
X181641369Y-136215476D01*
X181546131Y-136263095D01*
X187023809Y-136977381D02*
X187023809Y-135977381D01*
X187595238Y-136977381D02*
X187166666Y-136405952D01*
X187595238Y-135977381D02*
X187023809Y-136548810D01*
X187785714Y-137072619D02*
X188547619Y-137072619D01*
X188738095Y-136929762D02*
X188880952Y-136977381D01*
X189119048Y-136977381D01*
X189214286Y-136929762D01*
X189261905Y-136882143D01*
X189309524Y-136786905D01*
X189309524Y-136691667D01*
X189261905Y-136596429D01*
X189214286Y-136548810D01*
X189119048Y-136501190D01*
X188928571Y-136453571D01*
X188833333Y-136405952D01*
X188785714Y-136358333D01*
X188738095Y-136263095D01*
X188738095Y-136167857D01*
X188785714Y-136072619D01*
X188833333Y-136025000D01*
X188928571Y-135977381D01*
X189166667Y-135977381D01*
X189309524Y-136025000D01*
X189738095Y-136977381D02*
X189738095Y-135977381D01*
X190119048Y-135977381D01*
X190214286Y-136025000D01*
X190261905Y-136072619D01*
X190309524Y-136167857D01*
X190309524Y-136310714D01*
X190261905Y-136405952D01*
X190214286Y-136453571D01*
X190119048Y-136501190D01*
X189738095Y-136501190D01*
X190690476Y-136691667D02*
X191166667Y-136691667D01*
X190595238Y-136977381D02*
X190928571Y-135977381D01*
X191261905Y-136977381D01*
X192166667Y-136882143D02*
X192119048Y-136929762D01*
X191976191Y-136977381D01*
X191880953Y-136977381D01*
X191738095Y-136929762D01*
X191642857Y-136834524D01*
X191595238Y-136739286D01*
X191547619Y-136548810D01*
X191547619Y-136405952D01*
X191595238Y-136215476D01*
X191642857Y-136120238D01*
X191738095Y-136025000D01*
X191880953Y-135977381D01*
X191976191Y-135977381D01*
X192119048Y-136025000D01*
X192166667Y-136072619D01*
X192595238Y-136453571D02*
X192928572Y-136453571D01*
X193071429Y-136977381D02*
X192595238Y-136977381D01*
X192595238Y-135977381D01*
X193071429Y-135977381D01*
X193452381Y-136072619D02*
X193500000Y-136025000D01*
X193595238Y-135977381D01*
X193833334Y-135977381D01*
X193928572Y-136025000D01*
X193976191Y-136072619D01*
X194023810Y-136167857D01*
X194023810Y-136263095D01*
X193976191Y-136405952D01*
X193404762Y-136977381D01*
X194023810Y-136977381D01*
X160425000Y-79827381D02*
X160425000Y-78827381D01*
X160996429Y-79827381D02*
X160567857Y-79255952D01*
X160996429Y-78827381D02*
X160425000Y-79398810D01*
X161186905Y-79922619D02*
X161948810Y-79922619D01*
X162044048Y-78827381D02*
X162615477Y-78827381D01*
X162329762Y-79827381D02*
X162329762Y-78827381D01*
X163472620Y-79827381D02*
X162901191Y-79827381D01*
X163186905Y-79827381D02*
X163186905Y-78827381D01*
X163091667Y-78970238D01*
X162996429Y-79065476D01*
X162901191Y-79113095D01*
X59483928Y-79827381D02*
X59483928Y-78827381D01*
X60055357Y-79827381D02*
X59626785Y-79255952D01*
X60055357Y-78827381D02*
X59483928Y-79398810D01*
X60245833Y-79922619D02*
X61007738Y-79922619D01*
X61102976Y-78827381D02*
X61674405Y-78827381D01*
X61388690Y-79827381D02*
X61388690Y-78827381D01*
X61960119Y-79541667D02*
X62436310Y-79541667D01*
X61864881Y-79827381D02*
X62198214Y-78827381D01*
X62531548Y-79827381D01*
X63198215Y-79303571D02*
X63341072Y-79351190D01*
X63388691Y-79398810D01*
X63436310Y-79494048D01*
X63436310Y-79636905D01*
X63388691Y-79732143D01*
X63341072Y-79779762D01*
X63245834Y-79827381D01*
X62864881Y-79827381D01*
X62864881Y-78827381D01*
X63198215Y-78827381D01*
X63293453Y-78875000D01*
X63341072Y-78922619D01*
X63388691Y-79017857D01*
X63388691Y-79113095D01*
X63341072Y-79208333D01*
X63293453Y-79255952D01*
X63198215Y-79303571D01*
X62864881Y-79303571D01*
X64388691Y-79827381D02*
X63817262Y-79827381D01*
X64102976Y-79827381D02*
X64102976Y-78827381D01*
X64007738Y-78970238D01*
X63912500Y-79065476D01*
X63817262Y-79113095D01*
X198382143Y-79827381D02*
X198382143Y-78827381D01*
X198953572Y-79827381D02*
X198525000Y-79255952D01*
X198953572Y-78827381D02*
X198382143Y-79398810D01*
X199144048Y-79922619D02*
X199905953Y-79922619D01*
X200144048Y-78827381D02*
X200144048Y-79636905D01*
X200191667Y-79732143D01*
X200239286Y-79779762D01*
X200334524Y-79827381D01*
X200525001Y-79827381D01*
X200620239Y-79779762D01*
X200667858Y-79732143D01*
X200715477Y-79636905D01*
X200715477Y-78827381D01*
X201715477Y-79827381D02*
X201144048Y-79827381D01*
X201429762Y-79827381D02*
X201429762Y-78827381D01*
X201334524Y-78970238D01*
X201239286Y-79065476D01*
X201144048Y-79113095D01*
X300275893Y-117927381D02*
X300275893Y-116927381D01*
X300847322Y-117927381D02*
X300418750Y-117355952D01*
X300847322Y-116927381D02*
X300275893Y-117498810D01*
X301037798Y-118022619D02*
X301799703Y-118022619D01*
X302037798Y-116927381D02*
X302037798Y-117736905D01*
X302085417Y-117832143D01*
X302133036Y-117879762D01*
X302228274Y-117927381D01*
X302418751Y-117927381D01*
X302513989Y-117879762D01*
X302561608Y-117832143D01*
X302609227Y-117736905D01*
X302609227Y-116927381D01*
X303085417Y-117927381D02*
X303085417Y-116927381D01*
X303466370Y-116927381D01*
X303561608Y-116975000D01*
X303609227Y-117022619D01*
X303656846Y-117117857D01*
X303656846Y-117260714D01*
X303609227Y-117355952D01*
X303561608Y-117403571D01*
X303466370Y-117451190D01*
X303085417Y-117451190D01*
X304609227Y-117927381D02*
X304037798Y-117927381D01*
X304323512Y-117927381D02*
X304323512Y-116927381D01*
X304228274Y-117070238D01*
X304133036Y-117165476D01*
X304037798Y-117213095D01*
X155614881Y-117927381D02*
X155614881Y-116927381D01*
X156186310Y-117927381D02*
X155757738Y-117355952D01*
X156186310Y-116927381D02*
X155614881Y-117498810D01*
X156376786Y-118022619D02*
X157138691Y-118022619D01*
X157233929Y-116927381D02*
X157567262Y-117927381D01*
X157900596Y-116927381D01*
X158757739Y-117927381D02*
X158186310Y-117927381D01*
X158472024Y-117927381D02*
X158472024Y-116927381D01*
X158376786Y-117070238D01*
X158281548Y-117165476D01*
X158186310Y-117213095D01*
X103084524Y-79827381D02*
X103084524Y-78827381D01*
X103655953Y-79827381D02*
X103227381Y-79255952D01*
X103655953Y-78827381D02*
X103084524Y-79398810D01*
X103846429Y-79922619D02*
X104608334Y-79922619D01*
X104751191Y-78827381D02*
X104989286Y-79827381D01*
X105179763Y-79113095D01*
X105370239Y-79827381D01*
X105608334Y-78827381D01*
X106513096Y-79827381D02*
X105941667Y-79827381D01*
X106227381Y-79827381D02*
X106227381Y-78827381D01*
X106132143Y-78970238D01*
X106036905Y-79065476D01*
X105941667Y-79113095D01*
X80891369Y-136977381D02*
X80891369Y-135977381D01*
X81462798Y-136977381D02*
X81034226Y-136405952D01*
X81462798Y-135977381D02*
X80891369Y-136548810D01*
X81653274Y-137072619D02*
X82415179Y-137072619D01*
X82558036Y-135977381D02*
X82796131Y-136977381D01*
X82986608Y-136263095D01*
X83177084Y-136977381D01*
X83415179Y-135977381D01*
X83796131Y-136977381D02*
X83796131Y-135977381D01*
X84272321Y-136977381D02*
X84272321Y-135977381D01*
X84843750Y-136977381D01*
X84843750Y-135977381D01*
X85843750Y-136977381D02*
X85272321Y-136977381D01*
X85558035Y-136977381D02*
X85558035Y-135977381D01*
X85462797Y-136120238D01*
X85367559Y-136215476D01*
X85272321Y-136263095D01*
X117467262Y-117927381D02*
X117467262Y-116927381D01*
X118038691Y-117927381D02*
X117610119Y-117355952D01*
X118038691Y-116927381D02*
X117467262Y-117498810D01*
X118229167Y-118022619D02*
X118991072Y-118022619D01*
X119133929Y-116927381D02*
X119800596Y-117927381D01*
X119800596Y-116927381D02*
X119133929Y-117927381D01*
X120705358Y-117927381D02*
X120133929Y-117927381D01*
X120419643Y-117927381D02*
X120419643Y-116927381D01*
X120324405Y-117070238D01*
X120229167Y-117165476D01*
X120133929Y-117213095D01*
X179427381Y-79827381D02*
X179427381Y-78827381D01*
X179998810Y-79827381D02*
X179570238Y-79255952D01*
X179998810Y-78827381D02*
X179427381Y-79398810D01*
X180189286Y-79922619D02*
X180951191Y-79922619D01*
X181379762Y-79351190D02*
X181379762Y-79827381D01*
X181046429Y-78827381D02*
X181379762Y-79351190D01*
X181713096Y-78827381D01*
X182570239Y-79827381D02*
X181998810Y-79827381D01*
X182284524Y-79827381D02*
X182284524Y-78827381D01*
X182189286Y-78970238D01*
X182094048Y-79065476D01*
X181998810Y-79113095D01*
X98417262Y-117927381D02*
X98417262Y-116927381D01*
X98988691Y-117927381D02*
X98560119Y-117355952D01*
X98988691Y-116927381D02*
X98417262Y-117498810D01*
X99179167Y-118022619D02*
X99941072Y-118022619D01*
X100083929Y-116927381D02*
X100750596Y-116927381D01*
X100083929Y-117927381D01*
X100750596Y-117927381D01*
X101655358Y-117927381D02*
X101083929Y-117927381D01*
X101369643Y-117927381D02*
X101369643Y-116927381D01*
X101274405Y-117070238D01*
X101179167Y-117165476D01*
X101083929Y-117213095D01*
X274772619Y-79827381D02*
X274772619Y-78827381D01*
X275344048Y-79827381D02*
X274915476Y-79255952D01*
X275344048Y-78827381D02*
X274772619Y-79398810D01*
X275534524Y-79922619D02*
X276296429Y-79922619D01*
X276820239Y-80160714D02*
X276582143Y-80160714D01*
X276582143Y-78732143D01*
X276820239Y-78732143D01*
X277725001Y-79827381D02*
X277153572Y-79827381D01*
X277439286Y-79827381D02*
X277439286Y-78827381D01*
X277344048Y-78970238D01*
X277248810Y-79065476D01*
X277153572Y-79113095D01*
X317635119Y-79827381D02*
X317635119Y-78827381D01*
X318206548Y-79827381D02*
X317777976Y-79255952D01*
X318206548Y-78827381D02*
X317635119Y-79398810D01*
X318397024Y-79922619D02*
X319158929Y-79922619D01*
X319063691Y-78732143D02*
X319920834Y-80017857D01*
X320587501Y-79827381D02*
X320016072Y-79827381D01*
X320301786Y-79827381D02*
X320301786Y-78827381D01*
X320206548Y-78970238D01*
X320111310Y-79065476D01*
X320016072Y-79113095D01*
X293822619Y-79827381D02*
X293822619Y-78827381D01*
X294394048Y-79827381D02*
X293965476Y-79255952D01*
X294394048Y-78827381D02*
X293822619Y-79398810D01*
X294584524Y-79922619D02*
X295346429Y-79922619D01*
X295489286Y-80160714D02*
X295727381Y-80160714D01*
X295727381Y-78732143D01*
X295489286Y-78732143D01*
X296775001Y-79827381D02*
X296203572Y-79827381D01*
X296489286Y-79827381D02*
X296489286Y-78827381D01*
X296394048Y-78970238D01*
X296298810Y-79065476D01*
X296203572Y-79113095D01*
X265390476Y-136977381D02*
X265390476Y-135977381D01*
X265961905Y-136977381D02*
X265533333Y-136405952D01*
X265961905Y-135977381D02*
X265390476Y-136548810D01*
X266152381Y-137072619D02*
X266914286Y-137072619D01*
X267009524Y-135929762D02*
X267152381Y-136072619D01*
X268057143Y-136977381D02*
X267485714Y-136977381D01*
X267771428Y-136977381D02*
X267771428Y-135977381D01*
X267676190Y-136120238D01*
X267580952Y-136215476D01*
X267485714Y-136263095D01*
X56364583Y-117927381D02*
X56364583Y-116927381D01*
X56936012Y-117927381D02*
X56507440Y-117355952D01*
X56936012Y-116927381D02*
X56364583Y-117498810D01*
X57126488Y-118022619D02*
X57888393Y-118022619D01*
X58078869Y-117879762D02*
X58221726Y-117927381D01*
X58459822Y-117927381D01*
X58555060Y-117879762D01*
X58602679Y-117832143D01*
X58650298Y-117736905D01*
X58650298Y-117641667D01*
X58602679Y-117546429D01*
X58555060Y-117498810D01*
X58459822Y-117451190D01*
X58269345Y-117403571D01*
X58174107Y-117355952D01*
X58126488Y-117308333D01*
X58078869Y-117213095D01*
X58078869Y-117117857D01*
X58126488Y-117022619D01*
X58174107Y-116975000D01*
X58269345Y-116927381D01*
X58507441Y-116927381D01*
X58650298Y-116975000D01*
X59078869Y-117927381D02*
X59078869Y-116927381D01*
X59078869Y-117403571D02*
X59650298Y-117403571D01*
X59650298Y-117927381D02*
X59650298Y-116927381D01*
X60126488Y-117927381D02*
X60126488Y-116927381D01*
X60936012Y-117403571D02*
X60602678Y-117403571D01*
X60602678Y-117927381D02*
X60602678Y-116927381D01*
X61078869Y-116927381D01*
X61316964Y-116927381D02*
X61888393Y-116927381D01*
X61602678Y-117927381D02*
X61602678Y-116927381D01*
X62174107Y-117022619D02*
X62221726Y-116975000D01*
X62316964Y-116927381D01*
X62555060Y-116927381D01*
X62650298Y-116975000D01*
X62697917Y-117022619D01*
X62745536Y-117117857D01*
X62745536Y-117213095D01*
X62697917Y-117355952D01*
X62126488Y-117927381D01*
X62745536Y-117927381D01*
X111609524Y-136977381D02*
X111609524Y-135977381D01*
X112180953Y-136977381D02*
X111752381Y-136405952D01*
X112180953Y-135977381D02*
X111609524Y-136548810D01*
X112371429Y-137072619D02*
X113133334Y-137072619D01*
X113942858Y-136882143D02*
X113895239Y-136929762D01*
X113752382Y-136977381D01*
X113657144Y-136977381D01*
X113514286Y-136929762D01*
X113419048Y-136834524D01*
X113371429Y-136739286D01*
X113323810Y-136548810D01*
X113323810Y-136405952D01*
X113371429Y-136215476D01*
X113419048Y-136120238D01*
X113514286Y-136025000D01*
X113657144Y-135977381D01*
X113752382Y-135977381D01*
X113895239Y-136025000D01*
X113942858Y-136072619D01*
X114371429Y-136977381D02*
X114371429Y-135977381D01*
X114704763Y-136691667D01*
X115038096Y-135977381D01*
X115038096Y-136977381D01*
X115514286Y-136977381D02*
X115514286Y-135977381D01*
X115752381Y-135977381D01*
X115895239Y-136025000D01*
X115990477Y-136120238D01*
X116038096Y-136215476D01*
X116085715Y-136405952D01*
X116085715Y-136548810D01*
X116038096Y-136739286D01*
X115990477Y-136834524D01*
X115895239Y-136929762D01*
X115752381Y-136977381D01*
X115514286Y-136977381D01*
X117038096Y-136977381D02*
X116466667Y-136977381D01*
X116752381Y-136977381D02*
X116752381Y-135977381D01*
X116657143Y-136120238D01*
X116561905Y-136215476D01*
X116466667Y-136263095D01*
X290060416Y-136977381D02*
X290060416Y-135977381D01*
X290631845Y-136977381D02*
X290203273Y-136405952D01*
X290631845Y-135977381D02*
X290060416Y-136548810D01*
X290822321Y-137072619D02*
X291584226Y-137072619D01*
X292393750Y-136977381D02*
X292060416Y-136501190D01*
X291822321Y-136977381D02*
X291822321Y-135977381D01*
X292203274Y-135977381D01*
X292298512Y-136025000D01*
X292346131Y-136072619D01*
X292393750Y-136167857D01*
X292393750Y-136310714D01*
X292346131Y-136405952D01*
X292298512Y-136453571D01*
X292203274Y-136501190D01*
X291822321Y-136501190D01*
X292774702Y-136691667D02*
X293250893Y-136691667D01*
X292679464Y-136977381D02*
X293012797Y-135977381D01*
X293346131Y-136977381D01*
X294155655Y-136977381D02*
X293679464Y-136977381D01*
X293679464Y-135977381D01*
X294346131Y-135977381D02*
X294917560Y-135977381D01*
X294631845Y-136977381D02*
X294631845Y-135977381D01*
X295774703Y-136977381D02*
X295203274Y-136977381D01*
X295488988Y-136977381D02*
X295488988Y-135977381D01*
X295393750Y-136120238D01*
X295298512Y-136215476D01*
X295203274Y-136263095D01*
X316802083Y-93321131D02*
X316802083Y-92321131D01*
X317373512Y-93321131D02*
X316944940Y-92749702D01*
X317373512Y-92321131D02*
X316802083Y-92892560D01*
X317563988Y-93416369D02*
X318325893Y-93416369D01*
X318563988Y-93321131D02*
X318563988Y-92321131D01*
X318992559Y-93273512D02*
X319135416Y-93321131D01*
X319373512Y-93321131D01*
X319468750Y-93273512D01*
X319516369Y-93225893D01*
X319563988Y-93130655D01*
X319563988Y-93035417D01*
X319516369Y-92940179D01*
X319468750Y-92892560D01*
X319373512Y-92844940D01*
X319183035Y-92797321D01*
X319087797Y-92749702D01*
X319040178Y-92702083D01*
X318992559Y-92606845D01*
X318992559Y-92511607D01*
X319040178Y-92416369D01*
X319087797Y-92368750D01*
X319183035Y-92321131D01*
X319421131Y-92321131D01*
X319563988Y-92368750D01*
X320183035Y-92321131D02*
X320373512Y-92321131D01*
X320468750Y-92368750D01*
X320563988Y-92463988D01*
X320611607Y-92654464D01*
X320611607Y-92987798D01*
X320563988Y-93178274D01*
X320468750Y-93273512D01*
X320373512Y-93321131D01*
X320183035Y-93321131D01*
X320087797Y-93273512D01*
X319992559Y-93178274D01*
X319944940Y-92987798D01*
X319944940Y-92654464D01*
X319992559Y-92463988D01*
X320087797Y-92368750D01*
X320183035Y-92321131D01*
X321040178Y-92797321D02*
X321373512Y-92797321D01*
X321516369Y-93321131D02*
X321040178Y-93321131D01*
X321040178Y-92321131D01*
X321516369Y-92321131D01*
X321944940Y-93321131D02*
X321944940Y-92321131D01*
X322516369Y-93321131D01*
X322516369Y-92321131D01*
X322849702Y-92321131D02*
X323421131Y-92321131D01*
X323135416Y-93321131D02*
X323135416Y-92321131D01*
X323754464Y-92797321D02*
X324087798Y-92797321D01*
X324230655Y-93321131D02*
X323754464Y-93321131D01*
X323754464Y-92321131D01*
X324230655Y-92321131D01*
X325230655Y-93321131D02*
X324897321Y-92844940D01*
X324659226Y-93321131D02*
X324659226Y-92321131D01*
X325040179Y-92321131D01*
X325135417Y-92368750D01*
X325183036Y-92416369D01*
X325230655Y-92511607D01*
X325230655Y-92654464D01*
X325183036Y-92749702D01*
X325135417Y-92797321D01*
X325040179Y-92844940D01*
X324659226Y-92844940D01*
X326183036Y-93321131D02*
X325611607Y-93321131D01*
X325897321Y-93321131D02*
X325897321Y-92321131D01*
X325802083Y-92463988D01*
X325706845Y-92559226D01*
X325611607Y-92606845D01*
X54126190Y-98877381D02*
X54126190Y-97877381D01*
X54697619Y-98877381D02*
X54269047Y-98305952D01*
X54697619Y-97877381D02*
X54126190Y-98448810D01*
X54888095Y-98972619D02*
X55650000Y-98972619D01*
X56459524Y-98782143D02*
X56411905Y-98829762D01*
X56269048Y-98877381D01*
X56173810Y-98877381D01*
X56030952Y-98829762D01*
X55935714Y-98734524D01*
X55888095Y-98639286D01*
X55840476Y-98448810D01*
X55840476Y-98305952D01*
X55888095Y-98115476D01*
X55935714Y-98020238D01*
X56030952Y-97925000D01*
X56173810Y-97877381D01*
X56269048Y-97877381D01*
X56411905Y-97925000D01*
X56459524Y-97972619D01*
X56840476Y-98591667D02*
X57316667Y-98591667D01*
X56745238Y-98877381D02*
X57078571Y-97877381D01*
X57411905Y-98877381D01*
X57745238Y-98877381D02*
X57745238Y-97877381D01*
X58126191Y-97877381D01*
X58221429Y-97925000D01*
X58269048Y-97972619D01*
X58316667Y-98067857D01*
X58316667Y-98210714D01*
X58269048Y-98305952D01*
X58221429Y-98353571D01*
X58126191Y-98401190D01*
X57745238Y-98401190D01*
X58697619Y-98829762D02*
X58840476Y-98877381D01*
X59078572Y-98877381D01*
X59173810Y-98829762D01*
X59221429Y-98782143D01*
X59269048Y-98686905D01*
X59269048Y-98591667D01*
X59221429Y-98496429D01*
X59173810Y-98448810D01*
X59078572Y-98401190D01*
X58888095Y-98353571D01*
X58792857Y-98305952D01*
X58745238Y-98258333D01*
X58697619Y-98163095D01*
X58697619Y-98067857D01*
X58745238Y-97972619D01*
X58792857Y-97925000D01*
X58888095Y-97877381D01*
X59126191Y-97877381D01*
X59269048Y-97925000D01*
X59650000Y-97972619D02*
X59697619Y-97925000D01*
X59792857Y-97877381D01*
X60030953Y-97877381D01*
X60126191Y-97925000D01*
X60173810Y-97972619D01*
X60221429Y-98067857D01*
X60221429Y-98163095D01*
X60173810Y-98305952D01*
X59602381Y-98877381D01*
X60221429Y-98877381D01*
X61388988Y-136977381D02*
X61388988Y-135977381D01*
X61960417Y-136977381D02*
X61531845Y-136405952D01*
X61960417Y-135977381D02*
X61388988Y-136548810D01*
X62150893Y-137072619D02*
X62912798Y-137072619D01*
X63722322Y-136882143D02*
X63674703Y-136929762D01*
X63531846Y-136977381D01*
X63436608Y-136977381D01*
X63293750Y-136929762D01*
X63198512Y-136834524D01*
X63150893Y-136739286D01*
X63103274Y-136548810D01*
X63103274Y-136405952D01*
X63150893Y-136215476D01*
X63198512Y-136120238D01*
X63293750Y-136025000D01*
X63436608Y-135977381D01*
X63531846Y-135977381D01*
X63674703Y-136025000D01*
X63722322Y-136072619D01*
X64008036Y-135977381D02*
X64579465Y-135977381D01*
X64293750Y-136977381D02*
X64293750Y-135977381D01*
X65484227Y-136977381D02*
X65150893Y-136501190D01*
X64912798Y-136977381D02*
X64912798Y-135977381D01*
X65293751Y-135977381D01*
X65388989Y-136025000D01*
X65436608Y-136072619D01*
X65484227Y-136167857D01*
X65484227Y-136310714D01*
X65436608Y-136405952D01*
X65388989Y-136453571D01*
X65293751Y-136501190D01*
X64912798Y-136501190D01*
X66388989Y-136977381D02*
X65912798Y-136977381D01*
X65912798Y-135977381D01*
X66674703Y-136072619D02*
X66722322Y-136025000D01*
X66817560Y-135977381D01*
X67055656Y-135977381D01*
X67150894Y-136025000D01*
X67198513Y-136072619D01*
X67246132Y-136167857D01*
X67246132Y-136263095D01*
X67198513Y-136405952D01*
X66627084Y-136977381D01*
X67246132Y-136977381D01*
X88154166Y-136977381D02*
X88154166Y-135977381D01*
X88725595Y-136977381D02*
X88297023Y-136405952D01*
X88725595Y-135977381D02*
X88154166Y-136548810D01*
X88916071Y-137072619D02*
X89677976Y-137072619D01*
X89868452Y-136691667D02*
X90344643Y-136691667D01*
X89773214Y-136977381D02*
X90106547Y-135977381D01*
X90439881Y-136977381D01*
X91249405Y-136977381D02*
X90773214Y-136977381D01*
X90773214Y-135977381D01*
X91439881Y-135977381D02*
X92011310Y-135977381D01*
X91725595Y-136977381D02*
X91725595Y-135977381D01*
X92297024Y-136072619D02*
X92344643Y-136025000D01*
X92439881Y-135977381D01*
X92677977Y-135977381D01*
X92773215Y-136025000D01*
X92820834Y-136072619D01*
X92868453Y-136167857D01*
X92868453Y-136263095D01*
X92820834Y-136405952D01*
X92249405Y-136977381D01*
X92868453Y-136977381D01*
X313301488Y-136977381D02*
X313301488Y-135977381D01*
X313872917Y-136977381D02*
X313444345Y-136405952D01*
X313872917Y-135977381D02*
X313301488Y-136548810D01*
X314063393Y-137072619D02*
X314825298Y-137072619D01*
X315634822Y-136977381D02*
X315301488Y-136501190D01*
X315063393Y-136977381D02*
X315063393Y-135977381D01*
X315444346Y-135977381D01*
X315539584Y-136025000D01*
X315587203Y-136072619D01*
X315634822Y-136167857D01*
X315634822Y-136310714D01*
X315587203Y-136405952D01*
X315539584Y-136453571D01*
X315444346Y-136501190D01*
X315063393Y-136501190D01*
X316634822Y-136882143D02*
X316587203Y-136929762D01*
X316444346Y-136977381D01*
X316349108Y-136977381D01*
X316206250Y-136929762D01*
X316111012Y-136834524D01*
X316063393Y-136739286D01*
X316015774Y-136548810D01*
X316015774Y-136405952D01*
X316063393Y-136215476D01*
X316111012Y-136120238D01*
X316206250Y-136025000D01*
X316349108Y-135977381D01*
X316444346Y-135977381D01*
X316587203Y-136025000D01*
X316634822Y-136072619D01*
X316920536Y-135977381D02*
X317491965Y-135977381D01*
X317206250Y-136977381D02*
X317206250Y-135977381D01*
X318396727Y-136977381D02*
X318063393Y-136501190D01*
X317825298Y-136977381D02*
X317825298Y-135977381D01*
X318206251Y-135977381D01*
X318301489Y-136025000D01*
X318349108Y-136072619D01*
X318396727Y-136167857D01*
X318396727Y-136310714D01*
X318349108Y-136405952D01*
X318301489Y-136453571D01*
X318206251Y-136501190D01*
X317825298Y-136501190D01*
X319301489Y-136977381D02*
X318825298Y-136977381D01*
X318825298Y-135977381D01*
X319587203Y-136072619D02*
X319634822Y-136025000D01*
X319730060Y-135977381D01*
X319968156Y-135977381D01*
X320063394Y-136025000D01*
X320111013Y-136072619D01*
X320158632Y-136167857D01*
X320158632Y-136263095D01*
X320111013Y-136405952D01*
X319539584Y-136977381D01*
X320158632Y-136977381D01*
X305895833Y-117927381D02*
X305895833Y-116927381D01*
X306467262Y-117927381D02*
X306038690Y-117355952D01*
X306467262Y-116927381D02*
X305895833Y-117498810D01*
X306657738Y-118022619D02*
X307419643Y-118022619D01*
X308229167Y-117927381D02*
X307895833Y-117451190D01*
X307657738Y-117927381D02*
X307657738Y-116927381D01*
X308038691Y-116927381D01*
X308133929Y-116975000D01*
X308181548Y-117022619D01*
X308229167Y-117117857D01*
X308229167Y-117260714D01*
X308181548Y-117355952D01*
X308133929Y-117403571D01*
X308038691Y-117451190D01*
X307657738Y-117451190D01*
X308610119Y-117879762D02*
X308752976Y-117927381D01*
X308991072Y-117927381D01*
X309086310Y-117879762D01*
X309133929Y-117832143D01*
X309181548Y-117736905D01*
X309181548Y-117641667D01*
X309133929Y-117546429D01*
X309086310Y-117498810D01*
X308991072Y-117451190D01*
X308800595Y-117403571D01*
X308705357Y-117355952D01*
X308657738Y-117308333D01*
X308610119Y-117213095D01*
X308610119Y-117117857D01*
X308657738Y-117022619D01*
X308705357Y-116975000D01*
X308800595Y-116927381D01*
X309038691Y-116927381D01*
X309181548Y-116975000D01*
X309610119Y-117927381D02*
X309610119Y-116927381D01*
X309610119Y-117403571D02*
X310181548Y-117403571D01*
X310181548Y-117927381D02*
X310181548Y-116927381D01*
X310657738Y-117927381D02*
X310657738Y-116927381D01*
X311467262Y-117403571D02*
X311133928Y-117403571D01*
X311133928Y-117927381D02*
X311133928Y-116927381D01*
X311610119Y-116927381D01*
X311848214Y-116927381D02*
X312419643Y-116927381D01*
X312133928Y-117927381D02*
X312133928Y-116927381D01*
X312705357Y-117022619D02*
X312752976Y-116975000D01*
X312848214Y-116927381D01*
X313086310Y-116927381D01*
X313181548Y-116975000D01*
X313229167Y-117022619D01*
X313276786Y-117117857D01*
X313276786Y-117213095D01*
X313229167Y-117355952D01*
X312657738Y-117927381D01*
X313276786Y-117927381D01*
M02*
