M48
INCH,TZ
T1C0.028
T2C0.067
T3C0.120
T4C0.157
%
G90
G05
T2
X20500Y-22500
X21438Y-37500
X21438Y-45000
X21438Y-52500
X22375Y-30000
X22375Y-52500
X23313Y-37500
X24500Y-22500
X25188Y-45000
X25437Y-37500
X25437Y-45000
X25437Y-52500
X26375Y-30000
X26375Y-52500
X27312Y-37500
X28000Y-22500
X29187Y-45000
X29875Y-45000
X30813Y-52500
X31750Y-30000
X32000Y-22500
X32688Y-52500
X33625Y-37500
X33875Y-45000
X34813Y-52500
X35500Y-22500
X35750Y-30000
X36688Y-52500
X37375Y-45000
X37625Y-37500
X39250Y-30000
X39500Y-22500
X40188Y-52500
X41125Y-37500
X41375Y-45000
X43000Y-22500
X43000Y-52500
X43250Y-30000
X44188Y-52500
X44875Y-45000
X45125Y-37500
X46750Y-30000
X47000Y-22500
X47000Y-52500
X48625Y-37500
X48875Y-45000
X50500Y-22500
X50750Y-30000
X52375Y-45000
X52625Y-37500
X54250Y-30000
X54500Y-22500
X56125Y-37500
X56375Y-45000
X58000Y-22500
X58250Y-30000
X59875Y-45000
X60125Y-37500
X61750Y-30000
X62000Y-22500
X63625Y-37500
X63875Y-45000
X65500Y-22500
X65750Y-30000
X67375Y-45000
X67625Y-37500
X68313Y-52500
X69250Y-30000
X69500Y-22500
X71125Y-37500
X71375Y-45000
X72313Y-52500
X73000Y-22500
X73000Y-52500
X73250Y-30000
X74875Y-45000
X75125Y-37500
X76750Y-30000
X77000Y-22500
X77000Y-52500
X78625Y-37500
X78875Y-45000
X80500Y-22500
X80750Y-30000
X82375Y-45000
X82625Y-37500
X84250Y-30000
X84500Y-22500
X86125Y-37500
X86375Y-45000
X88000Y-22500
X88250Y-30000
X89875Y-45000
X90125Y-37500
X91750Y-30000
X92000Y-22500
X93625Y-37500
X93875Y-45000
X95500Y-22500
X95500Y-52500
X95750Y-30000
X97375Y-45000
X97625Y-37500
X99250Y-30000
X99500Y-22500
X99500Y-52500
X101125Y-37500
X101375Y-45000
X103000Y-22500
X103000Y-52500
X103250Y-30000
X104875Y-45000
X105125Y-37500
X106750Y-30000
X107000Y-22500
X107000Y-52500
X107687Y-45000
X108625Y-37500
X108875Y-45000
X110500Y-22500
X110500Y-52500
X110750Y-30000
X111688Y-45000
X112625Y-37500
X113312Y-52500
X114250Y-30000
X114500Y-22500
X114500Y-52500
X116125Y-37500
X117313Y-52500
X118000Y-22500
X118000Y-45000
X118000Y-52500
X118250Y-30000
X118937Y-45000
X120125Y-37500
X120812Y-37500
X121750Y-22500
X122000Y-22500
X122000Y-45000
X122000Y-52500
X122938Y-45000
X123625Y-30000
X123625Y-52500
X124813Y-37500
X125500Y-22500
X125500Y-45000
X125500Y-52500
X125750Y-22500
X126563Y-31750
X126563Y-35750
X127625Y-30000
X127625Y-52500
X129500Y-22500
X129500Y-45000
X129500Y-52500
T3
X22500Y-42250
X31875Y-42250
X50628Y-55250
X89998Y-55250
X116250Y-42250
X118125Y-34750
X119063Y-19750
X125625Y-42250
X127500Y-34750
X128438Y-19750
X129313Y-29063
X129313Y-38438
T4
X22500Y-22500
X22500Y-48250
X23438Y-37500
X23438Y-45000
X23438Y-52500
X24375Y-30000
X24375Y-52500
X25313Y-37500
X27188Y-45000
X30000Y-22500
X31875Y-45000
X31875Y-48250
X32813Y-52500
X33750Y-30000
X34688Y-52500
X35625Y-37500
X37500Y-22500
X39375Y-45000
X41250Y-30000
X42188Y-52500
X43125Y-37500
X45000Y-22500
X45000Y-52500
X46875Y-45000
X48750Y-30000
X50625Y-37500
X50628Y-49250
X52500Y-22500
X54375Y-45000
X56250Y-30000
X58125Y-37500
X60000Y-22500
X61875Y-45000
X63750Y-30000
X65625Y-37500
X67500Y-22500
X69375Y-45000
X70313Y-52500
X71250Y-30000
X73125Y-37500
X75000Y-22500
X75000Y-52500
X76875Y-45000
X78750Y-30000
X80625Y-37500
X82500Y-22500
X84375Y-45000
X86250Y-30000
X88125Y-37500
X89998Y-49250
X90000Y-22500
X91875Y-45000
X93750Y-30000
X95625Y-37500
X97500Y-22500
X97500Y-52500
X99375Y-45000
X101250Y-30000
X103125Y-37500
X105000Y-22500
X105000Y-52500
X106875Y-45000
X108750Y-30000
X109688Y-45000
X110625Y-37500
X112500Y-22500
X112500Y-52500
X115313Y-52500
X116250Y-30000
X116250Y-48250
X118125Y-37500
X118125Y-40750
X119063Y-25750
X120000Y-22500
X120000Y-45000
X120000Y-52500
X120938Y-45000
X122813Y-37500
X123312Y-29063
X123312Y-38438
X123750Y-22500
X125625Y-30000
X125625Y-48250
X125625Y-52500
X126563Y-33750
X127500Y-22500
X127500Y-40750
X127500Y-45000
X127500Y-52500
X128438Y-25750
T1
X27500Y-19451G85X27500Y-19924
G05
T0
M30
