%TF.GenerationSoftware,KiCad,Pcbnew,4.0.6*%
%TF.CreationDate,2017-10-30T22:43:23-07:00*%
%TF.ProjectId,Voyager,566F79616765722E6B696361645F7063,rev?*%
%TF.FileFunction,Legend,Top*%
%FSLAX46Y46*%
G04 Gerber Fmt 4.6, Leading zero omitted, Abs format (unit mm)*
G04 Created by KiCad (PCBNEW 4.0.6) date 10/30/17 22:43:23*
%MOMM*%
%LPD*%
G01*
G04 APERTURE LIST*
%ADD10C,0.100000*%
%ADD11C,0.200000*%
%ADD12C,0.150000*%
%ADD13C,0.350000*%
%ADD14C,0.250000*%
G04 APERTURE END LIST*
D10*
D11*
X280060400Y-99212400D02*
X238455200Y-133502400D01*
X281990800Y-97586800D02*
X308152800Y-76047600D01*
D12*
X70397977Y-128785881D02*
X70064643Y-128309690D01*
X69826548Y-128785881D02*
X69826548Y-127785881D01*
X70207501Y-127785881D01*
X70302739Y-127833500D01*
X70350358Y-127881119D01*
X70397977Y-127976357D01*
X70397977Y-128119214D01*
X70350358Y-128214452D01*
X70302739Y-128262071D01*
X70207501Y-128309690D01*
X69826548Y-128309690D01*
X71207501Y-128738262D02*
X71112263Y-128785881D01*
X70921786Y-128785881D01*
X70826548Y-128738262D01*
X70778929Y-128643024D01*
X70778929Y-128262071D01*
X70826548Y-128166833D01*
X70921786Y-128119214D01*
X71112263Y-128119214D01*
X71207501Y-128166833D01*
X71255120Y-128262071D01*
X71255120Y-128357310D01*
X70778929Y-128452548D01*
X71588453Y-128119214D02*
X71826548Y-128785881D01*
X72064644Y-128119214D01*
X72445596Y-128690643D02*
X72493215Y-128738262D01*
X72445596Y-128785881D01*
X72397977Y-128738262D01*
X72445596Y-128690643D01*
X72445596Y-128785881D01*
X73636072Y-127881119D02*
X73683691Y-127833500D01*
X73778929Y-127785881D01*
X74017025Y-127785881D01*
X74112263Y-127833500D01*
X74159882Y-127881119D01*
X74207501Y-127976357D01*
X74207501Y-128071595D01*
X74159882Y-128214452D01*
X73588453Y-128785881D01*
X74207501Y-128785881D01*
X74636072Y-128690643D02*
X74683691Y-128738262D01*
X74636072Y-128785881D01*
X74588453Y-128738262D01*
X74636072Y-128690643D01*
X74636072Y-128785881D01*
X75302738Y-127785881D02*
X75397977Y-127785881D01*
X75493215Y-127833500D01*
X75540834Y-127881119D01*
X75588453Y-127976357D01*
X75636072Y-128166833D01*
X75636072Y-128404929D01*
X75588453Y-128595405D01*
X75540834Y-128690643D01*
X75493215Y-128738262D01*
X75397977Y-128785881D01*
X75302738Y-128785881D01*
X75207500Y-128738262D01*
X75159881Y-128690643D01*
X75112262Y-128595405D01*
X75064643Y-128404929D01*
X75064643Y-128166833D01*
X75112262Y-127976357D01*
X75159881Y-127881119D01*
X75207500Y-127833500D01*
X75302738Y-127785881D01*
D11*
X126555500Y-99060000D02*
X52070000Y-104775000D01*
X176085500Y-95250000D02*
X130683000Y-98742500D01*
X303212500Y-59436000D02*
X332994000Y-51054000D01*
X301879000Y-59817000D02*
X176149000Y-95250000D01*
X136144000Y-117729000D02*
X52070000Y-104775000D01*
X139763500Y-118300500D02*
X238442500Y-133477000D01*
X87630000Y-78867000D02*
X176149000Y-95250000D01*
X86677500Y-78676500D02*
X73279000Y-76200000D01*
X48006000Y-83820000D02*
X59817000Y-80264000D01*
X64643000Y-78803500D02*
X73279000Y-76200000D01*
X57404000Y-97599500D02*
X73279000Y-76200000D01*
X52070000Y-104775000D02*
X56134000Y-99314000D01*
X249999500Y-137287000D02*
X266954000Y-142875000D01*
X238506000Y-133477000D02*
X245237000Y-135699500D01*
X321056000Y-93726000D02*
X329184000Y-104775000D01*
X319659000Y-91821000D02*
X308102000Y-76073000D01*
X238506000Y-133477000D02*
X173228000Y-142875000D01*
X308102000Y-76073000D02*
X332994000Y-60579000D01*
X176149000Y-95250000D02*
X308102000Y-76073000D01*
X329184000Y-104775000D02*
X238506000Y-133477000D01*
X176149000Y-95250000D02*
X238506000Y-133477000D01*
X160337500Y-132461000D02*
X134429500Y-132461000D01*
D13*
X136046634Y-124999448D02*
X137231967Y-127539448D01*
X138417300Y-124999448D01*
X140279967Y-124999448D02*
X140957300Y-124999448D01*
X141295967Y-125120400D01*
X141634634Y-125362305D01*
X141803967Y-125846114D01*
X141803967Y-126692781D01*
X141634634Y-127176590D01*
X141295967Y-127418495D01*
X140957300Y-127539448D01*
X140279967Y-127539448D01*
X139941300Y-127418495D01*
X139602634Y-127176590D01*
X139433300Y-126692781D01*
X139433300Y-125846114D01*
X139602634Y-125362305D01*
X139941300Y-125120400D01*
X140279967Y-124999448D01*
X144005300Y-126329924D02*
X144005300Y-127539448D01*
X142819967Y-124999448D02*
X144005300Y-126329924D01*
X145190633Y-124999448D01*
X146206633Y-126813733D02*
X147899967Y-126813733D01*
X145867967Y-127539448D02*
X147053300Y-124999448D01*
X148238633Y-127539448D01*
X151286633Y-125120400D02*
X150947967Y-124999448D01*
X150439967Y-124999448D01*
X149931967Y-125120400D01*
X149593300Y-125362305D01*
X149423967Y-125604210D01*
X149254633Y-126088019D01*
X149254633Y-126450876D01*
X149423967Y-126934686D01*
X149593300Y-127176590D01*
X149931967Y-127418495D01*
X150439967Y-127539448D01*
X150778633Y-127539448D01*
X151286633Y-127418495D01*
X151455967Y-127297543D01*
X151455967Y-126450876D01*
X150778633Y-126450876D01*
X152979967Y-126208971D02*
X154165300Y-126208971D01*
X154673300Y-127539448D02*
X152979967Y-127539448D01*
X152979967Y-124999448D01*
X154673300Y-124999448D01*
X158229300Y-127539448D02*
X157043966Y-126329924D01*
X156197300Y-127539448D02*
X156197300Y-124999448D01*
X157551966Y-124999448D01*
X157890633Y-125120400D01*
X158059966Y-125241352D01*
X158229300Y-125483257D01*
X158229300Y-125846114D01*
X158059966Y-126088019D01*
X157890633Y-126208971D01*
X157551966Y-126329924D01*
X156197300Y-126329924D01*
D12*
X67937644Y-138152214D02*
X68128120Y-138818881D01*
X68318597Y-138342690D01*
X68509073Y-138818881D01*
X68699549Y-138152214D01*
X68985263Y-138152214D02*
X69175739Y-138818881D01*
X69366216Y-138342690D01*
X69556692Y-138818881D01*
X69747168Y-138152214D01*
X70032882Y-138152214D02*
X70223358Y-138818881D01*
X70413835Y-138342690D01*
X70604311Y-138818881D01*
X70794787Y-138152214D01*
X71175739Y-138723643D02*
X71223358Y-138771262D01*
X71175739Y-138818881D01*
X71128120Y-138771262D01*
X71175739Y-138723643D01*
X71175739Y-138818881D01*
X72080501Y-138818881D02*
X72080501Y-138295071D01*
X72032882Y-138199833D01*
X71937644Y-138152214D01*
X71747167Y-138152214D01*
X71651929Y-138199833D01*
X72080501Y-138771262D02*
X71985263Y-138818881D01*
X71747167Y-138818881D01*
X71651929Y-138771262D01*
X71604310Y-138676024D01*
X71604310Y-138580786D01*
X71651929Y-138485548D01*
X71747167Y-138437929D01*
X71985263Y-138437929D01*
X72080501Y-138390310D01*
X72556691Y-138818881D02*
X72556691Y-138152214D01*
X72556691Y-137818881D02*
X72509072Y-137866500D01*
X72556691Y-137914119D01*
X72604310Y-137866500D01*
X72556691Y-137818881D01*
X72556691Y-137914119D01*
X73223357Y-137818881D02*
X73318596Y-137818881D01*
X73413834Y-137866500D01*
X73461453Y-137914119D01*
X73509072Y-138009357D01*
X73556691Y-138199833D01*
X73556691Y-138437929D01*
X73509072Y-138628405D01*
X73461453Y-138723643D01*
X73413834Y-138771262D01*
X73318596Y-138818881D01*
X73223357Y-138818881D01*
X73128119Y-138771262D01*
X73080500Y-138723643D01*
X73032881Y-138628405D01*
X72985262Y-138437929D01*
X72985262Y-138199833D01*
X73032881Y-138009357D01*
X73080500Y-137914119D01*
X73128119Y-137866500D01*
X73223357Y-137818881D01*
X73890024Y-137818881D02*
X74509072Y-137818881D01*
X74175738Y-138199833D01*
X74318596Y-138199833D01*
X74413834Y-138247452D01*
X74461453Y-138295071D01*
X74509072Y-138390310D01*
X74509072Y-138628405D01*
X74461453Y-138723643D01*
X74413834Y-138771262D01*
X74318596Y-138818881D01*
X74032881Y-138818881D01*
X73937643Y-138771262D01*
X73890024Y-138723643D01*
X74937643Y-138723643D02*
X74985262Y-138771262D01*
X74937643Y-138818881D01*
X74890024Y-138771262D01*
X74937643Y-138723643D01*
X74937643Y-138818881D01*
X75413833Y-138818881D02*
X75413833Y-138152214D01*
X75413833Y-138247452D02*
X75461452Y-138199833D01*
X75556690Y-138152214D01*
X75699548Y-138152214D01*
X75794786Y-138199833D01*
X75842405Y-138295071D01*
X75842405Y-138818881D01*
X75842405Y-138295071D02*
X75890024Y-138199833D01*
X75985262Y-138152214D01*
X76128119Y-138152214D01*
X76223357Y-138199833D01*
X76270976Y-138295071D01*
X76270976Y-138818881D01*
X77128119Y-138771262D02*
X77032881Y-138818881D01*
X76842404Y-138818881D01*
X76747166Y-138771262D01*
X76699547Y-138676024D01*
X76699547Y-138295071D01*
X76747166Y-138199833D01*
X76842404Y-138152214D01*
X77032881Y-138152214D01*
X77128119Y-138199833D01*
X77175738Y-138295071D01*
X77175738Y-138390310D01*
X76699547Y-138485548D01*
D14*
X137628729Y-129418971D02*
X137343015Y-129418971D01*
X137200158Y-129490400D01*
X137128729Y-129561829D01*
X136985872Y-129776114D01*
X136914443Y-130061829D01*
X136914443Y-130633257D01*
X136985872Y-130776114D01*
X137057300Y-130847543D01*
X137200158Y-130918971D01*
X137485872Y-130918971D01*
X137628729Y-130847543D01*
X137700158Y-130776114D01*
X137771586Y-130633257D01*
X137771586Y-130276114D01*
X137700158Y-130133257D01*
X137628729Y-130061829D01*
X137485872Y-129990400D01*
X137200158Y-129990400D01*
X137057300Y-130061829D01*
X136985872Y-130133257D01*
X136914443Y-130276114D01*
X138700157Y-129418971D02*
X138843014Y-129418971D01*
X138985871Y-129490400D01*
X139057300Y-129561829D01*
X139128729Y-129704686D01*
X139200157Y-129990400D01*
X139200157Y-130347543D01*
X139128729Y-130633257D01*
X139057300Y-130776114D01*
X138985871Y-130847543D01*
X138843014Y-130918971D01*
X138700157Y-130918971D01*
X138557300Y-130847543D01*
X138485871Y-130776114D01*
X138414443Y-130633257D01*
X138343014Y-130347543D01*
X138343014Y-129990400D01*
X138414443Y-129704686D01*
X138485871Y-129561829D01*
X138557300Y-129490400D01*
X138700157Y-129418971D01*
X139771585Y-130918971D02*
X140914442Y-129418971D01*
X139985871Y-129418971D02*
X140128728Y-129490400D01*
X140200157Y-129633257D01*
X140128728Y-129776114D01*
X139985871Y-129847543D01*
X139843014Y-129776114D01*
X139771585Y-129633257D01*
X139843014Y-129490400D01*
X139985871Y-129418971D01*
X140843014Y-130847543D02*
X140914442Y-130704686D01*
X140843014Y-130561829D01*
X140700157Y-130490400D01*
X140557300Y-130561829D01*
X140485871Y-130704686D01*
X140557300Y-130847543D01*
X140700157Y-130918971D01*
X140843014Y-130847543D01*
X142700157Y-130918971D02*
X142700157Y-129418971D01*
X142843014Y-130347543D02*
X143271585Y-130918971D01*
X143271585Y-129918971D02*
X142700157Y-130490400D01*
X144485871Y-130847543D02*
X144343014Y-130918971D01*
X144057300Y-130918971D01*
X143914443Y-130847543D01*
X143843014Y-130704686D01*
X143843014Y-130133257D01*
X143914443Y-129990400D01*
X144057300Y-129918971D01*
X144343014Y-129918971D01*
X144485871Y-129990400D01*
X144557300Y-130133257D01*
X144557300Y-130276114D01*
X143843014Y-130418971D01*
X145057300Y-129918971D02*
X145414443Y-130918971D01*
X145771585Y-129918971D02*
X145414443Y-130918971D01*
X145271585Y-131276114D01*
X145200157Y-131347543D01*
X145057300Y-131418971D01*
X146343014Y-130918971D02*
X146343014Y-129418971D01*
X146343014Y-129990400D02*
X146485871Y-129918971D01*
X146771585Y-129918971D01*
X146914442Y-129990400D01*
X146985871Y-130061829D01*
X147057300Y-130204686D01*
X147057300Y-130633257D01*
X146985871Y-130776114D01*
X146914442Y-130847543D01*
X146771585Y-130918971D01*
X146485871Y-130918971D01*
X146343014Y-130847543D01*
X147914443Y-130918971D02*
X147771585Y-130847543D01*
X147700157Y-130776114D01*
X147628728Y-130633257D01*
X147628728Y-130204686D01*
X147700157Y-130061829D01*
X147771585Y-129990400D01*
X147914443Y-129918971D01*
X148128728Y-129918971D01*
X148271585Y-129990400D01*
X148343014Y-130061829D01*
X148414443Y-130204686D01*
X148414443Y-130633257D01*
X148343014Y-130776114D01*
X148271585Y-130847543D01*
X148128728Y-130918971D01*
X147914443Y-130918971D01*
X149700157Y-130918971D02*
X149700157Y-130133257D01*
X149628728Y-129990400D01*
X149485871Y-129918971D01*
X149200157Y-129918971D01*
X149057300Y-129990400D01*
X149700157Y-130847543D02*
X149557300Y-130918971D01*
X149200157Y-130918971D01*
X149057300Y-130847543D01*
X148985871Y-130704686D01*
X148985871Y-130561829D01*
X149057300Y-130418971D01*
X149200157Y-130347543D01*
X149557300Y-130347543D01*
X149700157Y-130276114D01*
X150414443Y-130918971D02*
X150414443Y-129918971D01*
X150414443Y-130204686D02*
X150485871Y-130061829D01*
X150557300Y-129990400D01*
X150700157Y-129918971D01*
X150843014Y-129918971D01*
X151985871Y-130918971D02*
X151985871Y-129418971D01*
X151985871Y-130847543D02*
X151843014Y-130918971D01*
X151557300Y-130918971D01*
X151414442Y-130847543D01*
X151343014Y-130776114D01*
X151271585Y-130633257D01*
X151271585Y-130204686D01*
X151343014Y-130061829D01*
X151414442Y-129990400D01*
X151557300Y-129918971D01*
X151843014Y-129918971D01*
X151985871Y-129990400D01*
X153843014Y-130918971D02*
X153843014Y-129418971D01*
X154414442Y-129418971D01*
X154557300Y-129490400D01*
X154628728Y-129561829D01*
X154700157Y-129704686D01*
X154700157Y-129918971D01*
X154628728Y-130061829D01*
X154557300Y-130133257D01*
X154414442Y-130204686D01*
X153843014Y-130204686D01*
X156200157Y-130776114D02*
X156128728Y-130847543D01*
X155914442Y-130918971D01*
X155771585Y-130918971D01*
X155557300Y-130847543D01*
X155414442Y-130704686D01*
X155343014Y-130561829D01*
X155271585Y-130276114D01*
X155271585Y-130061829D01*
X155343014Y-129776114D01*
X155414442Y-129633257D01*
X155557300Y-129490400D01*
X155771585Y-129418971D01*
X155914442Y-129418971D01*
X156128728Y-129490400D01*
X156200157Y-129561829D01*
X157343014Y-130133257D02*
X157557300Y-130204686D01*
X157628728Y-130276114D01*
X157700157Y-130418971D01*
X157700157Y-130633257D01*
X157628728Y-130776114D01*
X157557300Y-130847543D01*
X157414442Y-130918971D01*
X156843014Y-130918971D01*
X156843014Y-129418971D01*
X157343014Y-129418971D01*
X157485871Y-129490400D01*
X157557300Y-129561829D01*
X157628728Y-129704686D01*
X157628728Y-129847543D01*
X157557300Y-129990400D01*
X157485871Y-130061829D01*
X157343014Y-130133257D01*
X156843014Y-130133257D01*
X137771586Y-135918971D02*
X137771586Y-134418971D01*
X138128729Y-134418971D01*
X138343014Y-134490400D01*
X138485872Y-134633257D01*
X138557300Y-134776114D01*
X138628729Y-135061829D01*
X138628729Y-135276114D01*
X138557300Y-135561829D01*
X138485872Y-135704686D01*
X138343014Y-135847543D01*
X138128729Y-135918971D01*
X137771586Y-135918971D01*
X139843014Y-135847543D02*
X139700157Y-135918971D01*
X139414443Y-135918971D01*
X139271586Y-135847543D01*
X139200157Y-135704686D01*
X139200157Y-135133257D01*
X139271586Y-134990400D01*
X139414443Y-134918971D01*
X139700157Y-134918971D01*
X139843014Y-134990400D01*
X139914443Y-135133257D01*
X139914443Y-135276114D01*
X139200157Y-135418971D01*
X140485871Y-135847543D02*
X140628728Y-135918971D01*
X140914443Y-135918971D01*
X141057300Y-135847543D01*
X141128728Y-135704686D01*
X141128728Y-135633257D01*
X141057300Y-135490400D01*
X140914443Y-135418971D01*
X140700157Y-135418971D01*
X140557300Y-135347543D01*
X140485871Y-135204686D01*
X140485871Y-135133257D01*
X140557300Y-134990400D01*
X140700157Y-134918971D01*
X140914443Y-134918971D01*
X141057300Y-134990400D01*
X141771586Y-135918971D02*
X141771586Y-134918971D01*
X141771586Y-134418971D02*
X141700157Y-134490400D01*
X141771586Y-134561829D01*
X141843014Y-134490400D01*
X141771586Y-134418971D01*
X141771586Y-134561829D01*
X143128729Y-134918971D02*
X143128729Y-136133257D01*
X143057300Y-136276114D01*
X142985872Y-136347543D01*
X142843015Y-136418971D01*
X142628729Y-136418971D01*
X142485872Y-136347543D01*
X143128729Y-135847543D02*
X142985872Y-135918971D01*
X142700158Y-135918971D01*
X142557300Y-135847543D01*
X142485872Y-135776114D01*
X142414443Y-135633257D01*
X142414443Y-135204686D01*
X142485872Y-135061829D01*
X142557300Y-134990400D01*
X142700158Y-134918971D01*
X142985872Y-134918971D01*
X143128729Y-134990400D01*
X143843015Y-134918971D02*
X143843015Y-135918971D01*
X143843015Y-135061829D02*
X143914443Y-134990400D01*
X144057301Y-134918971D01*
X144271586Y-134918971D01*
X144414443Y-134990400D01*
X144485872Y-135133257D01*
X144485872Y-135918971D01*
X145771586Y-135847543D02*
X145628729Y-135918971D01*
X145343015Y-135918971D01*
X145200158Y-135847543D01*
X145128729Y-135704686D01*
X145128729Y-135133257D01*
X145200158Y-134990400D01*
X145343015Y-134918971D01*
X145628729Y-134918971D01*
X145771586Y-134990400D01*
X145843015Y-135133257D01*
X145843015Y-135276114D01*
X145128729Y-135418971D01*
X147128729Y-135918971D02*
X147128729Y-134418971D01*
X147128729Y-135847543D02*
X146985872Y-135918971D01*
X146700158Y-135918971D01*
X146557300Y-135847543D01*
X146485872Y-135776114D01*
X146414443Y-135633257D01*
X146414443Y-135204686D01*
X146485872Y-135061829D01*
X146557300Y-134990400D01*
X146700158Y-134918971D01*
X146985872Y-134918971D01*
X147128729Y-134990400D01*
X148985872Y-135918971D02*
X148985872Y-134418971D01*
X148985872Y-134990400D02*
X149128729Y-134918971D01*
X149414443Y-134918971D01*
X149557300Y-134990400D01*
X149628729Y-135061829D01*
X149700158Y-135204686D01*
X149700158Y-135633257D01*
X149628729Y-135776114D01*
X149557300Y-135847543D01*
X149414443Y-135918971D01*
X149128729Y-135918971D01*
X148985872Y-135847543D01*
X150200158Y-134918971D02*
X150557301Y-135918971D01*
X150914443Y-134918971D02*
X150557301Y-135918971D01*
X150414443Y-136276114D01*
X150343015Y-136347543D01*
X150200158Y-136418971D01*
X153271586Y-135918971D02*
X153271586Y-135133257D01*
X153200157Y-134990400D01*
X153057300Y-134918971D01*
X152771586Y-134918971D01*
X152628729Y-134990400D01*
X153271586Y-135847543D02*
X153128729Y-135918971D01*
X152771586Y-135918971D01*
X152628729Y-135847543D01*
X152557300Y-135704686D01*
X152557300Y-135561829D01*
X152628729Y-135418971D01*
X152771586Y-135347543D01*
X153128729Y-135347543D01*
X153271586Y-135276114D01*
X153985872Y-135918971D02*
X153985872Y-134918971D01*
X153985872Y-134418971D02*
X153914443Y-134490400D01*
X153985872Y-134561829D01*
X154057300Y-134490400D01*
X153985872Y-134418971D01*
X153985872Y-134561829D01*
X154985872Y-134418971D02*
X155128729Y-134418971D01*
X155271586Y-134490400D01*
X155343015Y-134561829D01*
X155414444Y-134704686D01*
X155485872Y-134990400D01*
X155485872Y-135347543D01*
X155414444Y-135633257D01*
X155343015Y-135776114D01*
X155271586Y-135847543D01*
X155128729Y-135918971D01*
X154985872Y-135918971D01*
X154843015Y-135847543D01*
X154771586Y-135776114D01*
X154700158Y-135633257D01*
X154628729Y-135347543D01*
X154628729Y-134990400D01*
X154700158Y-134704686D01*
X154771586Y-134561829D01*
X154843015Y-134490400D01*
X154985872Y-134418971D01*
X155985872Y-134418971D02*
X156914443Y-134418971D01*
X156414443Y-134990400D01*
X156628729Y-134990400D01*
X156771586Y-135061829D01*
X156843015Y-135133257D01*
X156914443Y-135276114D01*
X156914443Y-135633257D01*
X156843015Y-135776114D01*
X156771586Y-135847543D01*
X156628729Y-135918971D01*
X156200157Y-135918971D01*
X156057300Y-135847543D01*
X155985872Y-135776114D01*
X135235872Y-136918971D02*
X134950158Y-136918971D01*
X134807301Y-136990400D01*
X134735872Y-137061829D01*
X134593015Y-137276114D01*
X134521586Y-137561829D01*
X134521586Y-138133257D01*
X134593015Y-138276114D01*
X134664443Y-138347543D01*
X134807301Y-138418971D01*
X135093015Y-138418971D01*
X135235872Y-138347543D01*
X135307301Y-138276114D01*
X135378729Y-138133257D01*
X135378729Y-137776114D01*
X135307301Y-137633257D01*
X135235872Y-137561829D01*
X135093015Y-137490400D01*
X134807301Y-137490400D01*
X134664443Y-137561829D01*
X134593015Y-137633257D01*
X134521586Y-137776114D01*
X136307300Y-136918971D02*
X136450157Y-136918971D01*
X136593014Y-136990400D01*
X136664443Y-137061829D01*
X136735872Y-137204686D01*
X136807300Y-137490400D01*
X136807300Y-137847543D01*
X136735872Y-138133257D01*
X136664443Y-138276114D01*
X136593014Y-138347543D01*
X136450157Y-138418971D01*
X136307300Y-138418971D01*
X136164443Y-138347543D01*
X136093014Y-138276114D01*
X136021586Y-138133257D01*
X135950157Y-137847543D01*
X135950157Y-137490400D01*
X136021586Y-137204686D01*
X136093014Y-137061829D01*
X136164443Y-136990400D01*
X136307300Y-136918971D01*
X137378728Y-138418971D02*
X138521585Y-136918971D01*
X137593014Y-136918971D02*
X137735871Y-136990400D01*
X137807300Y-137133257D01*
X137735871Y-137276114D01*
X137593014Y-137347543D01*
X137450157Y-137276114D01*
X137378728Y-137133257D01*
X137450157Y-136990400D01*
X137593014Y-136918971D01*
X138450157Y-138347543D02*
X138521585Y-138204686D01*
X138450157Y-138061829D01*
X138307300Y-137990400D01*
X138164443Y-138061829D01*
X138093014Y-138204686D01*
X138164443Y-138347543D01*
X138307300Y-138418971D01*
X138450157Y-138347543D01*
X140521586Y-138418971D02*
X140378728Y-138347543D01*
X140307300Y-138276114D01*
X140235871Y-138133257D01*
X140235871Y-137704686D01*
X140307300Y-137561829D01*
X140378728Y-137490400D01*
X140521586Y-137418971D01*
X140735871Y-137418971D01*
X140878728Y-137490400D01*
X140950157Y-137561829D01*
X141021586Y-137704686D01*
X141021586Y-138133257D01*
X140950157Y-138276114D01*
X140878728Y-138347543D01*
X140735871Y-138418971D01*
X140521586Y-138418971D01*
X142307300Y-137418971D02*
X142307300Y-138418971D01*
X141664443Y-137418971D02*
X141664443Y-138204686D01*
X141735871Y-138347543D01*
X141878729Y-138418971D01*
X142093014Y-138418971D01*
X142235871Y-138347543D01*
X142307300Y-138276114D01*
X142807300Y-137418971D02*
X143378729Y-137418971D01*
X143021586Y-136918971D02*
X143021586Y-138204686D01*
X143093014Y-138347543D01*
X143235872Y-138418971D01*
X143378729Y-138418971D01*
X144093015Y-138418971D02*
X143950157Y-138347543D01*
X143878729Y-138204686D01*
X143878729Y-136918971D01*
X144664443Y-138418971D02*
X144664443Y-137418971D01*
X144664443Y-136918971D02*
X144593014Y-136990400D01*
X144664443Y-137061829D01*
X144735871Y-136990400D01*
X144664443Y-136918971D01*
X144664443Y-137061829D01*
X145378729Y-137418971D02*
X145378729Y-138418971D01*
X145378729Y-137561829D02*
X145450157Y-137490400D01*
X145593015Y-137418971D01*
X145807300Y-137418971D01*
X145950157Y-137490400D01*
X146021586Y-137633257D01*
X146021586Y-138418971D01*
X147307300Y-138347543D02*
X147164443Y-138418971D01*
X146878729Y-138418971D01*
X146735872Y-138347543D01*
X146664443Y-138204686D01*
X146664443Y-137633257D01*
X146735872Y-137490400D01*
X146878729Y-137418971D01*
X147164443Y-137418971D01*
X147307300Y-137490400D01*
X147378729Y-137633257D01*
X147378729Y-137776114D01*
X146664443Y-137918971D01*
X149164443Y-138418971D02*
X149164443Y-136918971D01*
X149164443Y-137490400D02*
X149307300Y-137418971D01*
X149593014Y-137418971D01*
X149735871Y-137490400D01*
X149807300Y-137561829D01*
X149878729Y-137704686D01*
X149878729Y-138133257D01*
X149807300Y-138276114D01*
X149735871Y-138347543D01*
X149593014Y-138418971D01*
X149307300Y-138418971D01*
X149164443Y-138347543D01*
X150378729Y-137418971D02*
X150735872Y-138418971D01*
X151093014Y-137418971D02*
X150735872Y-138418971D01*
X150593014Y-138776114D01*
X150521586Y-138847543D01*
X150378729Y-138918971D01*
X153450157Y-138418971D02*
X153450157Y-137633257D01*
X153378728Y-137490400D01*
X153235871Y-137418971D01*
X152950157Y-137418971D01*
X152807300Y-137490400D01*
X153450157Y-138347543D02*
X153307300Y-138418971D01*
X152950157Y-138418971D01*
X152807300Y-138347543D01*
X152735871Y-138204686D01*
X152735871Y-138061829D01*
X152807300Y-137918971D01*
X152950157Y-137847543D01*
X153307300Y-137847543D01*
X153450157Y-137776114D01*
X154164443Y-138418971D02*
X154164443Y-137418971D01*
X154164443Y-137561829D02*
X154235871Y-137490400D01*
X154378729Y-137418971D01*
X154593014Y-137418971D01*
X154735871Y-137490400D01*
X154807300Y-137633257D01*
X154807300Y-138418971D01*
X154807300Y-137633257D02*
X154878729Y-137490400D01*
X155021586Y-137418971D01*
X155235871Y-137418971D01*
X155378729Y-137490400D01*
X155450157Y-137633257D01*
X155450157Y-138418971D01*
X155950157Y-137418971D02*
X156521586Y-137418971D01*
X156164443Y-136918971D02*
X156164443Y-138204686D01*
X156235871Y-138347543D01*
X156378729Y-138418971D01*
X156521586Y-138418971D01*
X157021586Y-138418971D02*
X157021586Y-137418971D01*
X157021586Y-137704686D02*
X157093014Y-137561829D01*
X157164443Y-137490400D01*
X157307300Y-137418971D01*
X157450157Y-137418971D01*
X158593014Y-138418971D02*
X158593014Y-137633257D01*
X158521585Y-137490400D01*
X158378728Y-137418971D01*
X158093014Y-137418971D01*
X157950157Y-137490400D01*
X158593014Y-138347543D02*
X158450157Y-138418971D01*
X158093014Y-138418971D01*
X157950157Y-138347543D01*
X157878728Y-138204686D01*
X157878728Y-138061829D01*
X157950157Y-137918971D01*
X158093014Y-137847543D01*
X158450157Y-137847543D01*
X158593014Y-137776114D01*
X160021586Y-136918971D02*
X159307300Y-136918971D01*
X159235871Y-137633257D01*
X159307300Y-137561829D01*
X159450157Y-137490400D01*
X159807300Y-137490400D01*
X159950157Y-137561829D01*
X160021586Y-137633257D01*
X160093014Y-137776114D01*
X160093014Y-138133257D01*
X160021586Y-138276114D01*
X159950157Y-138347543D01*
X159807300Y-138418971D01*
X159450157Y-138418971D01*
X159307300Y-138347543D01*
X159235871Y-138276114D01*
D12*
X131730952Y-60777381D02*
X131730952Y-59777381D01*
X132302381Y-60777381D02*
X131873809Y-60205952D01*
X132302381Y-59777381D02*
X131730952Y-60348810D01*
X132492857Y-60872619D02*
X133254762Y-60872619D01*
X133445238Y-60110714D02*
X134159524Y-60110714D01*
X133730952Y-59682143D02*
X133445238Y-60967857D01*
X134064286Y-60539286D02*
X133350000Y-60539286D01*
X133778572Y-60967857D02*
X134064286Y-59682143D01*
X134921429Y-60110714D02*
X134921429Y-60777381D01*
X134683333Y-59729762D02*
X134445238Y-60444048D01*
X135064286Y-60444048D01*
X165068452Y-98877381D02*
X165068452Y-97877381D01*
X165639881Y-98877381D02*
X165211309Y-98305952D01*
X165639881Y-97877381D02*
X165068452Y-98448810D01*
X165830357Y-98972619D02*
X166592262Y-98972619D01*
X167354167Y-97925000D02*
X167258929Y-97877381D01*
X167116072Y-97877381D01*
X166973214Y-97925000D01*
X166877976Y-98020238D01*
X166830357Y-98115476D01*
X166782738Y-98305952D01*
X166782738Y-98448810D01*
X166830357Y-98639286D01*
X166877976Y-98734524D01*
X166973214Y-98829762D01*
X167116072Y-98877381D01*
X167211310Y-98877381D01*
X167354167Y-98829762D01*
X167401786Y-98782143D01*
X167401786Y-98448810D01*
X167211310Y-98448810D01*
X168354167Y-98877381D02*
X167782738Y-98877381D01*
X168068452Y-98877381D02*
X168068452Y-97877381D01*
X167973214Y-98020238D01*
X167877976Y-98115476D01*
X167782738Y-98163095D01*
X93630952Y-60777381D02*
X93630952Y-59777381D01*
X94202381Y-60777381D02*
X93773809Y-60205952D01*
X94202381Y-59777381D02*
X93630952Y-60348810D01*
X94392857Y-60872619D02*
X95154762Y-60872619D01*
X95345238Y-60110714D02*
X96059524Y-60110714D01*
X95630952Y-59682143D02*
X95345238Y-60967857D01*
X95964286Y-60539286D02*
X95250000Y-60539286D01*
X95678572Y-60967857D02*
X95964286Y-59682143D01*
X96345238Y-59872619D02*
X96392857Y-59825000D01*
X96488095Y-59777381D01*
X96726191Y-59777381D01*
X96821429Y-59825000D01*
X96869048Y-59872619D01*
X96916667Y-59967857D01*
X96916667Y-60063095D01*
X96869048Y-60205952D01*
X96297619Y-60777381D01*
X96916667Y-60777381D01*
X245173809Y-60777381D02*
X245173809Y-59777381D01*
X245745238Y-60777381D02*
X245316666Y-60205952D01*
X245745238Y-59777381D02*
X245173809Y-60348810D01*
X245935714Y-60872619D02*
X246697619Y-60872619D01*
X246888095Y-60110714D02*
X247602381Y-60110714D01*
X247173809Y-59682143D02*
X246888095Y-60967857D01*
X247507143Y-60539286D02*
X246792857Y-60539286D01*
X247221429Y-60967857D02*
X247507143Y-59682143D01*
X248126190Y-59777381D02*
X248221429Y-59777381D01*
X248316667Y-59825000D01*
X248364286Y-59872619D01*
X248411905Y-59967857D01*
X248459524Y-60158333D01*
X248459524Y-60396429D01*
X248411905Y-60586905D01*
X248364286Y-60682143D01*
X248316667Y-60729762D01*
X248221429Y-60777381D01*
X248126190Y-60777381D01*
X248030952Y-60729762D01*
X247983333Y-60682143D01*
X247935714Y-60586905D01*
X247888095Y-60396429D01*
X247888095Y-60158333D01*
X247935714Y-59967857D01*
X247983333Y-59872619D01*
X248030952Y-59825000D01*
X248126190Y-59777381D01*
X248650000Y-60872619D02*
X249411905Y-60872619D01*
X250173810Y-60777381D02*
X249602381Y-60777381D01*
X249888095Y-60777381D02*
X249888095Y-59777381D01*
X249792857Y-59920238D01*
X249697619Y-60015476D01*
X249602381Y-60063095D01*
X74580952Y-60777381D02*
X74580952Y-59777381D01*
X75152381Y-60777381D02*
X74723809Y-60205952D01*
X75152381Y-59777381D02*
X74580952Y-60348810D01*
X75342857Y-60872619D02*
X76104762Y-60872619D01*
X76295238Y-60110714D02*
X77009524Y-60110714D01*
X76580952Y-59682143D02*
X76295238Y-60967857D01*
X76914286Y-60539286D02*
X76200000Y-60539286D01*
X76628572Y-60967857D02*
X76914286Y-59682143D01*
X77866667Y-60777381D02*
X77295238Y-60777381D01*
X77580952Y-60777381D02*
X77580952Y-59777381D01*
X77485714Y-59920238D01*
X77390476Y-60015476D01*
X77295238Y-60063095D01*
X112680952Y-60777381D02*
X112680952Y-59777381D01*
X113252381Y-60777381D02*
X112823809Y-60205952D01*
X113252381Y-59777381D02*
X112680952Y-60348810D01*
X113442857Y-60872619D02*
X114204762Y-60872619D01*
X114395238Y-60110714D02*
X115109524Y-60110714D01*
X114680952Y-59682143D02*
X114395238Y-60967857D01*
X115014286Y-60539286D02*
X114300000Y-60539286D01*
X114728572Y-60967857D02*
X115014286Y-59682143D01*
X115347619Y-59777381D02*
X115966667Y-59777381D01*
X115633333Y-60158333D01*
X115776191Y-60158333D01*
X115871429Y-60205952D01*
X115919048Y-60253571D01*
X115966667Y-60348810D01*
X115966667Y-60586905D01*
X115919048Y-60682143D01*
X115871429Y-60729762D01*
X115776191Y-60777381D01*
X115490476Y-60777381D01*
X115395238Y-60729762D01*
X115347619Y-60682143D01*
X150780952Y-60777381D02*
X150780952Y-59777381D01*
X151352381Y-60777381D02*
X150923809Y-60205952D01*
X151352381Y-59777381D02*
X150780952Y-60348810D01*
X151542857Y-60872619D02*
X152304762Y-60872619D01*
X152495238Y-60110714D02*
X153209524Y-60110714D01*
X152780952Y-59682143D02*
X152495238Y-60967857D01*
X153114286Y-60539286D02*
X152400000Y-60539286D01*
X152828572Y-60967857D02*
X153114286Y-59682143D01*
X154019048Y-59777381D02*
X153542857Y-59777381D01*
X153495238Y-60253571D01*
X153542857Y-60205952D01*
X153638095Y-60158333D01*
X153876191Y-60158333D01*
X153971429Y-60205952D01*
X154019048Y-60253571D01*
X154066667Y-60348810D01*
X154066667Y-60586905D01*
X154019048Y-60682143D01*
X153971429Y-60729762D01*
X153876191Y-60777381D01*
X153638095Y-60777381D01*
X153542857Y-60729762D01*
X153495238Y-60682143D01*
X169830952Y-60777381D02*
X169830952Y-59777381D01*
X170402381Y-60777381D02*
X169973809Y-60205952D01*
X170402381Y-59777381D02*
X169830952Y-60348810D01*
X170592857Y-60872619D02*
X171354762Y-60872619D01*
X171545238Y-60110714D02*
X172259524Y-60110714D01*
X171830952Y-59682143D02*
X171545238Y-60967857D01*
X172164286Y-60539286D02*
X171450000Y-60539286D01*
X171878572Y-60967857D02*
X172164286Y-59682143D01*
X173021429Y-59777381D02*
X172830952Y-59777381D01*
X172735714Y-59825000D01*
X172688095Y-59872619D01*
X172592857Y-60015476D01*
X172545238Y-60205952D01*
X172545238Y-60586905D01*
X172592857Y-60682143D01*
X172640476Y-60729762D01*
X172735714Y-60777381D01*
X172926191Y-60777381D01*
X173021429Y-60729762D01*
X173069048Y-60682143D01*
X173116667Y-60586905D01*
X173116667Y-60348810D01*
X173069048Y-60253571D01*
X173021429Y-60205952D01*
X172926191Y-60158333D01*
X172735714Y-60158333D01*
X172640476Y-60205952D01*
X172592857Y-60253571D01*
X172545238Y-60348810D01*
X188880952Y-60777381D02*
X188880952Y-59777381D01*
X189452381Y-60777381D02*
X189023809Y-60205952D01*
X189452381Y-59777381D02*
X188880952Y-60348810D01*
X189642857Y-60872619D02*
X190404762Y-60872619D01*
X190595238Y-60110714D02*
X191309524Y-60110714D01*
X190880952Y-59682143D02*
X190595238Y-60967857D01*
X191214286Y-60539286D02*
X190500000Y-60539286D01*
X190928572Y-60967857D02*
X191214286Y-59682143D01*
X191547619Y-59777381D02*
X192214286Y-59777381D01*
X191785714Y-60777381D01*
X207930952Y-60777381D02*
X207930952Y-59777381D01*
X208502381Y-60777381D02*
X208073809Y-60205952D01*
X208502381Y-59777381D02*
X207930952Y-60348810D01*
X208692857Y-60872619D02*
X209454762Y-60872619D01*
X209645238Y-60110714D02*
X210359524Y-60110714D01*
X209930952Y-59682143D02*
X209645238Y-60967857D01*
X210264286Y-60539286D02*
X209550000Y-60539286D01*
X209978572Y-60967857D02*
X210264286Y-59682143D01*
X210835714Y-60205952D02*
X210740476Y-60158333D01*
X210692857Y-60110714D01*
X210645238Y-60015476D01*
X210645238Y-59967857D01*
X210692857Y-59872619D01*
X210740476Y-59825000D01*
X210835714Y-59777381D01*
X211026191Y-59777381D01*
X211121429Y-59825000D01*
X211169048Y-59872619D01*
X211216667Y-59967857D01*
X211216667Y-60015476D01*
X211169048Y-60110714D01*
X211121429Y-60158333D01*
X211026191Y-60205952D01*
X210835714Y-60205952D01*
X210740476Y-60253571D01*
X210692857Y-60301190D01*
X210645238Y-60396429D01*
X210645238Y-60586905D01*
X210692857Y-60682143D01*
X210740476Y-60729762D01*
X210835714Y-60777381D01*
X211026191Y-60777381D01*
X211121429Y-60729762D01*
X211169048Y-60682143D01*
X211216667Y-60586905D01*
X211216667Y-60396429D01*
X211169048Y-60301190D01*
X211121429Y-60253571D01*
X211026191Y-60205952D01*
X226980952Y-60777381D02*
X226980952Y-59777381D01*
X227552381Y-60777381D02*
X227123809Y-60205952D01*
X227552381Y-59777381D02*
X226980952Y-60348810D01*
X227742857Y-60872619D02*
X228504762Y-60872619D01*
X228695238Y-60110714D02*
X229409524Y-60110714D01*
X228980952Y-59682143D02*
X228695238Y-60967857D01*
X229314286Y-60539286D02*
X228600000Y-60539286D01*
X229028572Y-60967857D02*
X229314286Y-59682143D01*
X229790476Y-60777381D02*
X229980952Y-60777381D01*
X230076191Y-60729762D01*
X230123810Y-60682143D01*
X230219048Y-60539286D01*
X230266667Y-60348810D01*
X230266667Y-59967857D01*
X230219048Y-59872619D01*
X230171429Y-59825000D01*
X230076191Y-59777381D01*
X229885714Y-59777381D01*
X229790476Y-59825000D01*
X229742857Y-59872619D01*
X229695238Y-59967857D01*
X229695238Y-60205952D01*
X229742857Y-60301190D01*
X229790476Y-60348810D01*
X229885714Y-60396429D01*
X230076191Y-60396429D01*
X230171429Y-60348810D01*
X230219048Y-60301190D01*
X230266667Y-60205952D01*
X279630357Y-98877381D02*
X279630357Y-97877381D01*
X280201786Y-98877381D02*
X279773214Y-98305952D01*
X280201786Y-97877381D02*
X279630357Y-98448810D01*
X280392262Y-98972619D02*
X281154167Y-98972619D01*
X281439881Y-97877381D02*
X281344643Y-98067857D01*
X282392262Y-98877381D02*
X281820833Y-98877381D01*
X282106547Y-98877381D02*
X282106547Y-97877381D01*
X282011309Y-98020238D01*
X281916071Y-98115476D01*
X281820833Y-98163095D01*
X232005357Y-117927381D02*
X232005357Y-116927381D01*
X232576786Y-117927381D02*
X232148214Y-117355952D01*
X232576786Y-116927381D02*
X232005357Y-117498810D01*
X232767262Y-118022619D02*
X233529167Y-118022619D01*
X233814881Y-117879762D02*
X233814881Y-117927381D01*
X233767262Y-118022619D01*
X233719643Y-118070238D01*
X234767262Y-117927381D02*
X234195833Y-117927381D01*
X234481547Y-117927381D02*
X234481547Y-116927381D01*
X234386309Y-117070238D01*
X234291071Y-117165476D01*
X234195833Y-117213095D01*
X264961905Y-60777381D02*
X264961905Y-59777381D01*
X265533334Y-60777381D02*
X265104762Y-60205952D01*
X265533334Y-59777381D02*
X264961905Y-60348810D01*
X265723810Y-60872619D02*
X266485715Y-60872619D01*
X266723810Y-60396429D02*
X267485715Y-60396429D01*
X268485715Y-60777381D02*
X267914286Y-60777381D01*
X268200000Y-60777381D02*
X268200000Y-59777381D01*
X268104762Y-59920238D01*
X268009524Y-60015476D01*
X267914286Y-60063095D01*
X251055357Y-117927381D02*
X251055357Y-116927381D01*
X251626786Y-117927381D02*
X251198214Y-117355952D01*
X251626786Y-116927381D02*
X251055357Y-117498810D01*
X251817262Y-118022619D02*
X252579167Y-118022619D01*
X252817262Y-117832143D02*
X252864881Y-117879762D01*
X252817262Y-117927381D01*
X252769643Y-117879762D01*
X252817262Y-117832143D01*
X252817262Y-117927381D01*
X253817262Y-117927381D02*
X253245833Y-117927381D01*
X253531547Y-117927381D02*
X253531547Y-116927381D01*
X253436309Y-117070238D01*
X253341071Y-117165476D01*
X253245833Y-117213095D01*
X276963393Y-117927381D02*
X276963393Y-116927381D01*
X277534822Y-117927381D02*
X277106250Y-117355952D01*
X277534822Y-116927381D02*
X276963393Y-117498810D01*
X277725298Y-118022619D02*
X278487203Y-118022619D01*
X279439584Y-116879762D02*
X278582441Y-118165476D01*
X280296727Y-117927381D02*
X279725298Y-117927381D01*
X280011012Y-117927381D02*
X280011012Y-116927381D01*
X279915774Y-117070238D01*
X279820536Y-117165476D01*
X279725298Y-117213095D01*
X269819643Y-117927381D02*
X269819643Y-116927381D01*
X270391072Y-117927381D02*
X269962500Y-117355952D01*
X270391072Y-116927381D02*
X269819643Y-117498810D01*
X270581548Y-118022619D02*
X271343453Y-118022619D01*
X272295834Y-116879762D02*
X271438691Y-118165476D01*
X272581548Y-117022619D02*
X272629167Y-116975000D01*
X272724405Y-116927381D01*
X272962501Y-116927381D01*
X273057739Y-116975000D01*
X273105358Y-117022619D01*
X273152977Y-117117857D01*
X273152977Y-117213095D01*
X273105358Y-117355952D01*
X272533929Y-117927381D01*
X273152977Y-117927381D01*
X260580357Y-98877381D02*
X260580357Y-97877381D01*
X261151786Y-98877381D02*
X260723214Y-98305952D01*
X261151786Y-97877381D02*
X260580357Y-98448810D01*
X261342262Y-98972619D02*
X262104167Y-98972619D01*
X262389881Y-98829762D02*
X262389881Y-98877381D01*
X262342262Y-98972619D01*
X262294643Y-99020238D01*
X262342262Y-98258333D02*
X262389881Y-98305952D01*
X262342262Y-98353571D01*
X262294643Y-98305952D01*
X262342262Y-98258333D01*
X262342262Y-98353571D01*
X263342262Y-98877381D02*
X262770833Y-98877381D01*
X263056547Y-98877381D02*
X263056547Y-97877381D01*
X262961309Y-98020238D01*
X262866071Y-98115476D01*
X262770833Y-98163095D01*
X284011905Y-60777381D02*
X284011905Y-59777381D01*
X284583334Y-60777381D02*
X284154762Y-60205952D01*
X284583334Y-59777381D02*
X284011905Y-60348810D01*
X284773810Y-60872619D02*
X285535715Y-60872619D01*
X285773810Y-60253571D02*
X286535715Y-60253571D01*
X286535715Y-60539286D02*
X285773810Y-60539286D01*
X287535715Y-60777381D02*
X286964286Y-60777381D01*
X287250000Y-60777381D02*
X287250000Y-59777381D01*
X287154762Y-59920238D01*
X287059524Y-60015476D01*
X286964286Y-60063095D01*
X88939881Y-98877381D02*
X88939881Y-97877381D01*
X89511310Y-98877381D02*
X89082738Y-98305952D01*
X89511310Y-97877381D02*
X88939881Y-98448810D01*
X89701786Y-98972619D02*
X90463691Y-98972619D01*
X90654167Y-98591667D02*
X91130358Y-98591667D01*
X90558929Y-98877381D02*
X90892262Y-97877381D01*
X91225596Y-98877381D01*
X92082739Y-98877381D02*
X91511310Y-98877381D01*
X91797024Y-98877381D02*
X91797024Y-97877381D01*
X91701786Y-98020238D01*
X91606548Y-98115476D01*
X91511310Y-98163095D01*
X104822916Y-136977381D02*
X104822916Y-135977381D01*
X105394345Y-136977381D02*
X104965773Y-136405952D01*
X105394345Y-135977381D02*
X104822916Y-136548810D01*
X105584821Y-137072619D02*
X106346726Y-137072619D01*
X106537202Y-136691667D02*
X107013393Y-136691667D01*
X106441964Y-136977381D02*
X106775297Y-135977381D01*
X107108631Y-136977381D01*
X107918155Y-136977381D02*
X107441964Y-136977381D01*
X107441964Y-135977381D01*
X108108631Y-135977381D02*
X108680060Y-135977381D01*
X108394345Y-136977381D02*
X108394345Y-135977381D01*
X109537203Y-136977381D02*
X108965774Y-136977381D01*
X109251488Y-136977381D02*
X109251488Y-135977381D01*
X109156250Y-136120238D01*
X109061012Y-136215476D01*
X108965774Y-136263095D01*
X174593452Y-117927381D02*
X174593452Y-116927381D01*
X175164881Y-117927381D02*
X174736309Y-117355952D01*
X175164881Y-116927381D02*
X174593452Y-117498810D01*
X175355357Y-118022619D02*
X176117262Y-118022619D01*
X176688691Y-117403571D02*
X176831548Y-117451190D01*
X176879167Y-117498810D01*
X176926786Y-117594048D01*
X176926786Y-117736905D01*
X176879167Y-117832143D01*
X176831548Y-117879762D01*
X176736310Y-117927381D01*
X176355357Y-117927381D01*
X176355357Y-116927381D01*
X176688691Y-116927381D01*
X176783929Y-116975000D01*
X176831548Y-117022619D01*
X176879167Y-117117857D01*
X176879167Y-117213095D01*
X176831548Y-117308333D01*
X176783929Y-117355952D01*
X176688691Y-117403571D01*
X176355357Y-117403571D01*
X177879167Y-117927381D02*
X177307738Y-117927381D01*
X177593452Y-117927381D02*
X177593452Y-116927381D01*
X177498214Y-117070238D01*
X177402976Y-117165476D01*
X177307738Y-117213095D01*
X320802381Y-60777381D02*
X320802381Y-59777381D01*
X321373810Y-60777381D02*
X320945238Y-60205952D01*
X321373810Y-59777381D02*
X320802381Y-60348810D01*
X321564286Y-60872619D02*
X322326191Y-60872619D01*
X322897620Y-60253571D02*
X323040477Y-60301190D01*
X323088096Y-60348810D01*
X323135715Y-60444048D01*
X323135715Y-60586905D01*
X323088096Y-60682143D01*
X323040477Y-60729762D01*
X322945239Y-60777381D01*
X322564286Y-60777381D01*
X322564286Y-59777381D01*
X322897620Y-59777381D01*
X322992858Y-59825000D01*
X323040477Y-59872619D01*
X323088096Y-59967857D01*
X323088096Y-60063095D01*
X323040477Y-60158333D01*
X322992858Y-60205952D01*
X322897620Y-60253571D01*
X322564286Y-60253571D01*
X323516667Y-60491667D02*
X323992858Y-60491667D01*
X323421429Y-60777381D02*
X323754762Y-59777381D01*
X324088096Y-60777381D01*
X324992858Y-60682143D02*
X324945239Y-60729762D01*
X324802382Y-60777381D01*
X324707144Y-60777381D01*
X324564286Y-60729762D01*
X324469048Y-60634524D01*
X324421429Y-60539286D01*
X324373810Y-60348810D01*
X324373810Y-60205952D01*
X324421429Y-60015476D01*
X324469048Y-59920238D01*
X324564286Y-59825000D01*
X324707144Y-59777381D01*
X324802382Y-59777381D01*
X324945239Y-59825000D01*
X324992858Y-59872619D01*
X325421429Y-60777381D02*
X325421429Y-59777381D01*
X325992858Y-60777381D02*
X325564286Y-60205952D01*
X325992858Y-59777381D02*
X325421429Y-60348810D01*
X326945239Y-60777381D02*
X326373810Y-60777381D01*
X326659524Y-60777381D02*
X326659524Y-59777381D01*
X326564286Y-59920238D01*
X326469048Y-60015476D01*
X326373810Y-60063095D01*
X311277381Y-60777381D02*
X311277381Y-59777381D01*
X311848810Y-60777381D02*
X311420238Y-60205952D01*
X311848810Y-59777381D02*
X311277381Y-60348810D01*
X312039286Y-60872619D02*
X312801191Y-60872619D01*
X313372620Y-60253571D02*
X313515477Y-60301190D01*
X313563096Y-60348810D01*
X313610715Y-60444048D01*
X313610715Y-60586905D01*
X313563096Y-60682143D01*
X313515477Y-60729762D01*
X313420239Y-60777381D01*
X313039286Y-60777381D01*
X313039286Y-59777381D01*
X313372620Y-59777381D01*
X313467858Y-59825000D01*
X313515477Y-59872619D01*
X313563096Y-59967857D01*
X313563096Y-60063095D01*
X313515477Y-60158333D01*
X313467858Y-60205952D01*
X313372620Y-60253571D01*
X313039286Y-60253571D01*
X313991667Y-60491667D02*
X314467858Y-60491667D01*
X313896429Y-60777381D02*
X314229762Y-59777381D01*
X314563096Y-60777381D01*
X315467858Y-60682143D02*
X315420239Y-60729762D01*
X315277382Y-60777381D01*
X315182144Y-60777381D01*
X315039286Y-60729762D01*
X314944048Y-60634524D01*
X314896429Y-60539286D01*
X314848810Y-60348810D01*
X314848810Y-60205952D01*
X314896429Y-60015476D01*
X314944048Y-59920238D01*
X315039286Y-59825000D01*
X315182144Y-59777381D01*
X315277382Y-59777381D01*
X315420239Y-59825000D01*
X315467858Y-59872619D01*
X315896429Y-60777381D02*
X315896429Y-59777381D01*
X316467858Y-60777381D02*
X316039286Y-60205952D01*
X316467858Y-59777381D02*
X315896429Y-60348810D01*
X316848810Y-59872619D02*
X316896429Y-59825000D01*
X316991667Y-59777381D01*
X317229763Y-59777381D01*
X317325001Y-59825000D01*
X317372620Y-59872619D01*
X317420239Y-59967857D01*
X317420239Y-60063095D01*
X317372620Y-60205952D01*
X316801191Y-60777381D01*
X317420239Y-60777381D01*
X136493452Y-117927381D02*
X136493452Y-116927381D01*
X137064881Y-117927381D02*
X136636309Y-117355952D01*
X137064881Y-116927381D02*
X136493452Y-117498810D01*
X137255357Y-118022619D02*
X138017262Y-118022619D01*
X138826786Y-117832143D02*
X138779167Y-117879762D01*
X138636310Y-117927381D01*
X138541072Y-117927381D01*
X138398214Y-117879762D01*
X138302976Y-117784524D01*
X138255357Y-117689286D01*
X138207738Y-117498810D01*
X138207738Y-117355952D01*
X138255357Y-117165476D01*
X138302976Y-117070238D01*
X138398214Y-116975000D01*
X138541072Y-116927381D01*
X138636310Y-116927381D01*
X138779167Y-116975000D01*
X138826786Y-117022619D01*
X139779167Y-117927381D02*
X139207738Y-117927381D01*
X139493452Y-117927381D02*
X139493452Y-116927381D01*
X139398214Y-117070238D01*
X139302976Y-117165476D01*
X139207738Y-117213095D01*
X63651190Y-98877381D02*
X63651190Y-97877381D01*
X64222619Y-98877381D02*
X63794047Y-98305952D01*
X64222619Y-97877381D02*
X63651190Y-98448810D01*
X64413095Y-98972619D02*
X65175000Y-98972619D01*
X65984524Y-98782143D02*
X65936905Y-98829762D01*
X65794048Y-98877381D01*
X65698810Y-98877381D01*
X65555952Y-98829762D01*
X65460714Y-98734524D01*
X65413095Y-98639286D01*
X65365476Y-98448810D01*
X65365476Y-98305952D01*
X65413095Y-98115476D01*
X65460714Y-98020238D01*
X65555952Y-97925000D01*
X65698810Y-97877381D01*
X65794048Y-97877381D01*
X65936905Y-97925000D01*
X65984524Y-97972619D01*
X66365476Y-98591667D02*
X66841667Y-98591667D01*
X66270238Y-98877381D02*
X66603571Y-97877381D01*
X66936905Y-98877381D01*
X67270238Y-98877381D02*
X67270238Y-97877381D01*
X67651191Y-97877381D01*
X67746429Y-97925000D01*
X67794048Y-97972619D01*
X67841667Y-98067857D01*
X67841667Y-98210714D01*
X67794048Y-98305952D01*
X67746429Y-98353571D01*
X67651191Y-98401190D01*
X67270238Y-98401190D01*
X68222619Y-98829762D02*
X68365476Y-98877381D01*
X68603572Y-98877381D01*
X68698810Y-98829762D01*
X68746429Y-98782143D01*
X68794048Y-98686905D01*
X68794048Y-98591667D01*
X68746429Y-98496429D01*
X68698810Y-98448810D01*
X68603572Y-98401190D01*
X68413095Y-98353571D01*
X68317857Y-98305952D01*
X68270238Y-98258333D01*
X68222619Y-98163095D01*
X68222619Y-98067857D01*
X68270238Y-97972619D01*
X68317857Y-97925000D01*
X68413095Y-97877381D01*
X68651191Y-97877381D01*
X68794048Y-97925000D01*
X69746429Y-98877381D02*
X69175000Y-98877381D01*
X69460714Y-98877381D02*
X69460714Y-97877381D01*
X69365476Y-98020238D01*
X69270238Y-98115476D01*
X69175000Y-98163095D01*
X54245238Y-136977381D02*
X54245238Y-135977381D01*
X54816667Y-136977381D02*
X54388095Y-136405952D01*
X54816667Y-135977381D02*
X54245238Y-136548810D01*
X55007143Y-137072619D02*
X55769048Y-137072619D01*
X56578572Y-136882143D02*
X56530953Y-136929762D01*
X56388096Y-136977381D01*
X56292858Y-136977381D01*
X56150000Y-136929762D01*
X56054762Y-136834524D01*
X56007143Y-136739286D01*
X55959524Y-136548810D01*
X55959524Y-136405952D01*
X56007143Y-136215476D01*
X56054762Y-136120238D01*
X56150000Y-136025000D01*
X56292858Y-135977381D01*
X56388096Y-135977381D01*
X56530953Y-136025000D01*
X56578572Y-136072619D01*
X56864286Y-135977381D02*
X57435715Y-135977381D01*
X57150000Y-136977381D02*
X57150000Y-135977381D01*
X58340477Y-136977381D02*
X58007143Y-136501190D01*
X57769048Y-136977381D02*
X57769048Y-135977381D01*
X58150001Y-135977381D01*
X58245239Y-136025000D01*
X58292858Y-136072619D01*
X58340477Y-136167857D01*
X58340477Y-136310714D01*
X58292858Y-136405952D01*
X58245239Y-136453571D01*
X58150001Y-136501190D01*
X57769048Y-136501190D01*
X59245239Y-136977381D02*
X58769048Y-136977381D01*
X58769048Y-135977381D01*
X60102382Y-136977381D02*
X59530953Y-136977381D01*
X59816667Y-136977381D02*
X59816667Y-135977381D01*
X59721429Y-136120238D01*
X59626191Y-136215476D01*
X59530953Y-136263095D01*
X126968452Y-98877381D02*
X126968452Y-97877381D01*
X127539881Y-98877381D02*
X127111309Y-98305952D01*
X127539881Y-97877381D02*
X126968452Y-98448810D01*
X127730357Y-98972619D02*
X128492262Y-98972619D01*
X128730357Y-98877381D02*
X128730357Y-97877381D01*
X128968452Y-97877381D01*
X129111310Y-97925000D01*
X129206548Y-98020238D01*
X129254167Y-98115476D01*
X129301786Y-98305952D01*
X129301786Y-98448810D01*
X129254167Y-98639286D01*
X129206548Y-98734524D01*
X129111310Y-98829762D01*
X128968452Y-98877381D01*
X128730357Y-98877381D01*
X130254167Y-98877381D02*
X129682738Y-98877381D01*
X129968452Y-98877381D02*
X129968452Y-97877381D01*
X129873214Y-98020238D01*
X129777976Y-98115476D01*
X129682738Y-98163095D01*
X302323809Y-60777381D02*
X302323809Y-59777381D01*
X302895238Y-60777381D02*
X302466666Y-60205952D01*
X302895238Y-59777381D02*
X302323809Y-60348810D01*
X303085714Y-60872619D02*
X303847619Y-60872619D01*
X304085714Y-60777381D02*
X304085714Y-59777381D01*
X304323809Y-59777381D01*
X304466667Y-59825000D01*
X304561905Y-59920238D01*
X304609524Y-60015476D01*
X304657143Y-60205952D01*
X304657143Y-60348810D01*
X304609524Y-60539286D01*
X304561905Y-60634524D01*
X304466667Y-60729762D01*
X304323809Y-60777381D01*
X304085714Y-60777381D01*
X305085714Y-60253571D02*
X305419048Y-60253571D01*
X305561905Y-60777381D02*
X305085714Y-60777381D01*
X305085714Y-59777381D01*
X305561905Y-59777381D01*
X306466667Y-60777381D02*
X305990476Y-60777381D01*
X305990476Y-59777381D01*
X307323810Y-60777381D02*
X306752381Y-60777381D01*
X307038095Y-60777381D02*
X307038095Y-59777381D01*
X306942857Y-59920238D01*
X306847619Y-60015476D01*
X306752381Y-60063095D01*
X301561905Y-136977381D02*
X301561905Y-135977381D01*
X302133334Y-136977381D02*
X301704762Y-136405952D01*
X302133334Y-135977381D02*
X301561905Y-136548810D01*
X302323810Y-137072619D02*
X303085715Y-137072619D01*
X303323810Y-136977381D02*
X303323810Y-135977381D01*
X303561905Y-135977381D01*
X303704763Y-136025000D01*
X303800001Y-136120238D01*
X303847620Y-136215476D01*
X303895239Y-136405952D01*
X303895239Y-136548810D01*
X303847620Y-136739286D01*
X303800001Y-136834524D01*
X303704763Y-136929762D01*
X303561905Y-136977381D01*
X303323810Y-136977381D01*
X304514286Y-135977381D02*
X304704763Y-135977381D01*
X304800001Y-136025000D01*
X304895239Y-136120238D01*
X304942858Y-136310714D01*
X304942858Y-136644048D01*
X304895239Y-136834524D01*
X304800001Y-136929762D01*
X304704763Y-136977381D01*
X304514286Y-136977381D01*
X304419048Y-136929762D01*
X304323810Y-136834524D01*
X304276191Y-136644048D01*
X304276191Y-136310714D01*
X304323810Y-136120238D01*
X304419048Y-136025000D01*
X304514286Y-135977381D01*
X305276191Y-135977381D02*
X305514286Y-136977381D01*
X305704763Y-136263095D01*
X305895239Y-136977381D01*
X306133334Y-135977381D01*
X306514286Y-136977381D02*
X306514286Y-135977381D01*
X307085715Y-136977381D01*
X307085715Y-135977381D01*
X308085715Y-136977381D02*
X307514286Y-136977381D01*
X307800000Y-136977381D02*
X307800000Y-135977381D01*
X307704762Y-136120238D01*
X307609524Y-136215476D01*
X307514286Y-136263095D01*
X122253571Y-79827381D02*
X122253571Y-78827381D01*
X122825000Y-79827381D02*
X122396428Y-79255952D01*
X122825000Y-78827381D02*
X122253571Y-79398810D01*
X123015476Y-79922619D02*
X123777381Y-79922619D01*
X124015476Y-79303571D02*
X124348810Y-79303571D01*
X124491667Y-79827381D02*
X124015476Y-79827381D01*
X124015476Y-78827381D01*
X124491667Y-78827381D01*
X125444048Y-79827381D02*
X124872619Y-79827381D01*
X125158333Y-79827381D02*
X125158333Y-78827381D01*
X125063095Y-78970238D01*
X124967857Y-79065476D01*
X124872619Y-79113095D01*
X308515178Y-102846131D02*
X308515178Y-101846131D01*
X309086607Y-102846131D02*
X308658035Y-102274702D01*
X309086607Y-101846131D02*
X308515178Y-102417560D01*
X309277083Y-102941369D02*
X310038988Y-102941369D01*
X310277083Y-102322321D02*
X310610417Y-102322321D01*
X310753274Y-102846131D02*
X310277083Y-102846131D01*
X310277083Y-101846131D01*
X310753274Y-101846131D01*
X311181845Y-102846131D02*
X311181845Y-101846131D01*
X311753274Y-102846131D01*
X311753274Y-101846131D01*
X312086607Y-101846131D02*
X312658036Y-101846131D01*
X312372321Y-102846131D02*
X312372321Y-101846131D01*
X312991369Y-102322321D02*
X313324703Y-102322321D01*
X313467560Y-102846131D02*
X312991369Y-102846131D01*
X312991369Y-101846131D01*
X313467560Y-101846131D01*
X314467560Y-102846131D02*
X314134226Y-102369940D01*
X313896131Y-102846131D02*
X313896131Y-101846131D01*
X314277084Y-101846131D01*
X314372322Y-101893750D01*
X314419941Y-101941369D01*
X314467560Y-102036607D01*
X314467560Y-102179464D01*
X314419941Y-102274702D01*
X314372322Y-102322321D01*
X314277084Y-102369940D01*
X313896131Y-102369940D01*
X315419941Y-102846131D02*
X314848512Y-102846131D01*
X315134226Y-102846131D02*
X315134226Y-101846131D01*
X315038988Y-101988988D01*
X314943750Y-102084226D01*
X314848512Y-102131845D01*
X54602381Y-60777381D02*
X54602381Y-59777381D01*
X55173810Y-60777381D02*
X54745238Y-60205952D01*
X55173810Y-59777381D02*
X54602381Y-60348810D01*
X55364286Y-60872619D02*
X56126191Y-60872619D01*
X56364286Y-60253571D02*
X56697620Y-60253571D01*
X56840477Y-60777381D02*
X56364286Y-60777381D01*
X56364286Y-59777381D01*
X56840477Y-59777381D01*
X57221429Y-60729762D02*
X57364286Y-60777381D01*
X57602382Y-60777381D01*
X57697620Y-60729762D01*
X57745239Y-60682143D01*
X57792858Y-60586905D01*
X57792858Y-60491667D01*
X57745239Y-60396429D01*
X57697620Y-60348810D01*
X57602382Y-60301190D01*
X57411905Y-60253571D01*
X57316667Y-60205952D01*
X57269048Y-60158333D01*
X57221429Y-60063095D01*
X57221429Y-59967857D01*
X57269048Y-59872619D01*
X57316667Y-59825000D01*
X57411905Y-59777381D01*
X57650001Y-59777381D01*
X57792858Y-59825000D01*
X58792858Y-60682143D02*
X58745239Y-60729762D01*
X58602382Y-60777381D01*
X58507144Y-60777381D01*
X58364286Y-60729762D01*
X58269048Y-60634524D01*
X58221429Y-60539286D01*
X58173810Y-60348810D01*
X58173810Y-60205952D01*
X58221429Y-60015476D01*
X58269048Y-59920238D01*
X58364286Y-59825000D01*
X58507144Y-59777381D01*
X58602382Y-59777381D01*
X58745239Y-59825000D01*
X58792858Y-59872619D01*
X59745239Y-60777381D02*
X59173810Y-60777381D01*
X59459524Y-60777381D02*
X59459524Y-59777381D01*
X59364286Y-59920238D01*
X59269048Y-60015476D01*
X59173810Y-60063095D01*
X146089881Y-98877381D02*
X146089881Y-97877381D01*
X146661310Y-98877381D02*
X146232738Y-98305952D01*
X146661310Y-97877381D02*
X146089881Y-98448810D01*
X146851786Y-98972619D02*
X147613691Y-98972619D01*
X148185120Y-98353571D02*
X147851786Y-98353571D01*
X147851786Y-98877381D02*
X147851786Y-97877381D01*
X148327977Y-97877381D01*
X149232739Y-98877381D02*
X148661310Y-98877381D01*
X148947024Y-98877381D02*
X148947024Y-97877381D01*
X148851786Y-98020238D01*
X148756548Y-98115476D01*
X148661310Y-98163095D01*
X245578571Y-136977381D02*
X245578571Y-135977381D01*
X246150000Y-136977381D02*
X245721428Y-136405952D01*
X246150000Y-135977381D02*
X245578571Y-136548810D01*
X246340476Y-137072619D02*
X247102381Y-137072619D01*
X247673810Y-136453571D02*
X247340476Y-136453571D01*
X247340476Y-136977381D02*
X247340476Y-135977381D01*
X247816667Y-135977381D01*
X248197619Y-136977381D02*
X248197619Y-135977381D01*
X248769048Y-136977381D01*
X248769048Y-135977381D01*
X249769048Y-136977381D02*
X249197619Y-136977381D01*
X249483333Y-136977381D02*
X249483333Y-135977381D01*
X249388095Y-136120238D01*
X249292857Y-136215476D01*
X249197619Y-136263095D01*
X184094643Y-98877381D02*
X184094643Y-97877381D01*
X184666072Y-98877381D02*
X184237500Y-98305952D01*
X184666072Y-97877381D02*
X184094643Y-98448810D01*
X184856548Y-98972619D02*
X185618453Y-98972619D01*
X185856548Y-98877381D02*
X185856548Y-97877381D01*
X185856548Y-98353571D02*
X186427977Y-98353571D01*
X186427977Y-98877381D02*
X186427977Y-97877381D01*
X187427977Y-98877381D02*
X186856548Y-98877381D01*
X187142262Y-98877381D02*
X187142262Y-97877381D01*
X187047024Y-98020238D01*
X186951786Y-98115476D01*
X186856548Y-98163095D01*
X217717857Y-79827381D02*
X217717857Y-78827381D01*
X218289286Y-79827381D02*
X217860714Y-79255952D01*
X218289286Y-78827381D02*
X217717857Y-79398810D01*
X218479762Y-79922619D02*
X219241667Y-79922619D01*
X219479762Y-79827381D02*
X219479762Y-78827381D01*
X220479762Y-79827381D02*
X219908333Y-79827381D01*
X220194047Y-79827381D02*
X220194047Y-78827381D01*
X220098809Y-78970238D01*
X220003571Y-79065476D01*
X219908333Y-79113095D01*
X78272024Y-117927381D02*
X78272024Y-116927381D01*
X78843453Y-117927381D02*
X78414881Y-117355952D01*
X78843453Y-116927381D02*
X78272024Y-117498810D01*
X79033929Y-118022619D02*
X79795834Y-118022619D01*
X80033929Y-117927381D02*
X80033929Y-116927381D01*
X80462500Y-117879762D02*
X80605357Y-117927381D01*
X80843453Y-117927381D01*
X80938691Y-117879762D01*
X80986310Y-117832143D01*
X81033929Y-117736905D01*
X81033929Y-117641667D01*
X80986310Y-117546429D01*
X80938691Y-117498810D01*
X80843453Y-117451190D01*
X80652976Y-117403571D01*
X80557738Y-117355952D01*
X80510119Y-117308333D01*
X80462500Y-117213095D01*
X80462500Y-117117857D01*
X80510119Y-117022619D01*
X80557738Y-116975000D01*
X80652976Y-116927381D01*
X80891072Y-116927381D01*
X81033929Y-116975000D01*
X81652976Y-116927381D02*
X81843453Y-116927381D01*
X81938691Y-116975000D01*
X82033929Y-117070238D01*
X82081548Y-117260714D01*
X82081548Y-117594048D01*
X82033929Y-117784524D01*
X81938691Y-117879762D01*
X81843453Y-117927381D01*
X81652976Y-117927381D01*
X81557738Y-117879762D01*
X81462500Y-117784524D01*
X81414881Y-117594048D01*
X81414881Y-117260714D01*
X81462500Y-117070238D01*
X81557738Y-116975000D01*
X81652976Y-116927381D01*
X82176786Y-116832143D02*
X83033929Y-118117857D01*
X83700596Y-117927381D02*
X83129167Y-117927381D01*
X83414881Y-117927381D02*
X83414881Y-116927381D01*
X83319643Y-117070238D01*
X83224405Y-117165476D01*
X83129167Y-117213095D01*
X297489881Y-98877381D02*
X297489881Y-97877381D01*
X298061310Y-98877381D02*
X297632738Y-98305952D01*
X298061310Y-97877381D02*
X297489881Y-98448810D01*
X298251786Y-98972619D02*
X299013691Y-98972619D01*
X299251786Y-98877381D02*
X299251786Y-97877381D01*
X299680357Y-98829762D02*
X299823214Y-98877381D01*
X300061310Y-98877381D01*
X300156548Y-98829762D01*
X300204167Y-98782143D01*
X300251786Y-98686905D01*
X300251786Y-98591667D01*
X300204167Y-98496429D01*
X300156548Y-98448810D01*
X300061310Y-98401190D01*
X299870833Y-98353571D01*
X299775595Y-98305952D01*
X299727976Y-98258333D01*
X299680357Y-98163095D01*
X299680357Y-98067857D01*
X299727976Y-97972619D01*
X299775595Y-97925000D01*
X299870833Y-97877381D01*
X300108929Y-97877381D01*
X300251786Y-97925000D01*
X300870833Y-97877381D02*
X301061310Y-97877381D01*
X301156548Y-97925000D01*
X301251786Y-98020238D01*
X301299405Y-98210714D01*
X301299405Y-98544048D01*
X301251786Y-98734524D01*
X301156548Y-98829762D01*
X301061310Y-98877381D01*
X300870833Y-98877381D01*
X300775595Y-98829762D01*
X300680357Y-98734524D01*
X300632738Y-98544048D01*
X300632738Y-98210714D01*
X300680357Y-98020238D01*
X300775595Y-97925000D01*
X300870833Y-97877381D01*
X301585119Y-97829762D02*
X301727976Y-97972619D01*
X302632738Y-98877381D02*
X302061309Y-98877381D01*
X302347023Y-98877381D02*
X302347023Y-97877381D01*
X302251785Y-98020238D01*
X302156547Y-98115476D01*
X302061309Y-98163095D01*
X203287500Y-98877381D02*
X203287500Y-97877381D01*
X203858929Y-98877381D02*
X203430357Y-98305952D01*
X203858929Y-97877381D02*
X203287500Y-98448810D01*
X204049405Y-98972619D02*
X204811310Y-98972619D01*
X205335120Y-97877381D02*
X205335120Y-98591667D01*
X205287500Y-98734524D01*
X205192262Y-98829762D01*
X205049405Y-98877381D01*
X204954167Y-98877381D01*
X206335120Y-98877381D02*
X205763691Y-98877381D01*
X206049405Y-98877381D02*
X206049405Y-97877381D01*
X205954167Y-98020238D01*
X205858929Y-98115476D01*
X205763691Y-98163095D01*
X222218452Y-98877381D02*
X222218452Y-97877381D01*
X222789881Y-98877381D02*
X222361309Y-98305952D01*
X222789881Y-97877381D02*
X222218452Y-98448810D01*
X222980357Y-98972619D02*
X223742262Y-98972619D01*
X223980357Y-98877381D02*
X223980357Y-97877381D01*
X224551786Y-98877381D02*
X224123214Y-98305952D01*
X224551786Y-97877381D02*
X223980357Y-98448810D01*
X225504167Y-98877381D02*
X224932738Y-98877381D01*
X225218452Y-98877381D02*
X225218452Y-97877381D01*
X225123214Y-98020238D01*
X225027976Y-98115476D01*
X224932738Y-98163095D01*
X241363690Y-98877381D02*
X241363690Y-97877381D01*
X241935119Y-98877381D02*
X241506547Y-98305952D01*
X241935119Y-97877381D02*
X241363690Y-98448810D01*
X242125595Y-98972619D02*
X242887500Y-98972619D01*
X243601786Y-98877381D02*
X243125595Y-98877381D01*
X243125595Y-97877381D01*
X244458929Y-98877381D02*
X243887500Y-98877381D01*
X244173214Y-98877381D02*
X244173214Y-97877381D01*
X244077976Y-98020238D01*
X243982738Y-98115476D01*
X243887500Y-98163095D01*
X282964285Y-136977381D02*
X282964285Y-135977381D01*
X283535714Y-136977381D02*
X283107142Y-136405952D01*
X283535714Y-135977381D02*
X282964285Y-136548810D01*
X283726190Y-137072619D02*
X284488095Y-137072619D01*
X285202381Y-136977381D02*
X284726190Y-136977381D01*
X284726190Y-135977381D01*
X285535714Y-136453571D02*
X285869048Y-136453571D01*
X286011905Y-136977381D02*
X285535714Y-136977381D01*
X285535714Y-135977381D01*
X286011905Y-135977381D01*
X286773810Y-136453571D02*
X286440476Y-136453571D01*
X286440476Y-136977381D02*
X286440476Y-135977381D01*
X286916667Y-135977381D01*
X287154762Y-135977381D02*
X287726191Y-135977381D01*
X287440476Y-136977381D02*
X287440476Y-135977381D01*
X288583334Y-136977381D02*
X288011905Y-136977381D01*
X288297619Y-136977381D02*
X288297619Y-135977381D01*
X288202381Y-136120238D01*
X288107143Y-136215476D01*
X288011905Y-136263095D01*
X212622024Y-117927381D02*
X212622024Y-116927381D01*
X213193453Y-117927381D02*
X212764881Y-117355952D01*
X213193453Y-116927381D02*
X212622024Y-117498810D01*
X213383929Y-118022619D02*
X214145834Y-118022619D01*
X214383929Y-117927381D02*
X214383929Y-116927381D01*
X214717263Y-117641667D01*
X215050596Y-116927381D01*
X215050596Y-117927381D01*
X216050596Y-117927381D02*
X215479167Y-117927381D01*
X215764881Y-117927381D02*
X215764881Y-116927381D01*
X215669643Y-117070238D01*
X215574405Y-117165476D01*
X215479167Y-117213095D01*
X193619643Y-117927381D02*
X193619643Y-116927381D01*
X194191072Y-117927381D02*
X193762500Y-117355952D01*
X194191072Y-116927381D02*
X193619643Y-117498810D01*
X194381548Y-118022619D02*
X195143453Y-118022619D01*
X195381548Y-117927381D02*
X195381548Y-116927381D01*
X195952977Y-117927381D01*
X195952977Y-116927381D01*
X196952977Y-117927381D02*
X196381548Y-117927381D01*
X196667262Y-117927381D02*
X196667262Y-116927381D01*
X196572024Y-117070238D01*
X196476786Y-117165476D01*
X196381548Y-117213095D01*
X236482143Y-79827381D02*
X236482143Y-78827381D01*
X237053572Y-79827381D02*
X236625000Y-79255952D01*
X237053572Y-78827381D02*
X236482143Y-79398810D01*
X237244048Y-79922619D02*
X238005953Y-79922619D01*
X238434524Y-78827381D02*
X238625001Y-78827381D01*
X238720239Y-78875000D01*
X238815477Y-78970238D01*
X238863096Y-79160714D01*
X238863096Y-79494048D01*
X238815477Y-79684524D01*
X238720239Y-79779762D01*
X238625001Y-79827381D01*
X238434524Y-79827381D01*
X238339286Y-79779762D01*
X238244048Y-79684524D01*
X238196429Y-79494048D01*
X238196429Y-79160714D01*
X238244048Y-78970238D01*
X238339286Y-78875000D01*
X238434524Y-78827381D01*
X239815477Y-79827381D02*
X239244048Y-79827381D01*
X239529762Y-79827381D02*
X239529762Y-78827381D01*
X239434524Y-78970238D01*
X239339286Y-79065476D01*
X239244048Y-79113095D01*
X255555952Y-79827381D02*
X255555952Y-78827381D01*
X256127381Y-79827381D02*
X255698809Y-79255952D01*
X256127381Y-78827381D02*
X255555952Y-79398810D01*
X256317857Y-79922619D02*
X257079762Y-79922619D01*
X257317857Y-79827381D02*
X257317857Y-78827381D01*
X257698810Y-78827381D01*
X257794048Y-78875000D01*
X257841667Y-78922619D01*
X257889286Y-79017857D01*
X257889286Y-79160714D01*
X257841667Y-79255952D01*
X257794048Y-79303571D01*
X257698810Y-79351190D01*
X257317857Y-79351190D01*
X258841667Y-79827381D02*
X258270238Y-79827381D01*
X258555952Y-79827381D02*
X258555952Y-78827381D01*
X258460714Y-78970238D01*
X258365476Y-79065476D01*
X258270238Y-79113095D01*
X84082143Y-79827381D02*
X84082143Y-78827381D01*
X84653572Y-79827381D02*
X84225000Y-79255952D01*
X84653572Y-78827381D02*
X84082143Y-79398810D01*
X84844048Y-79922619D02*
X85605953Y-79922619D01*
X86510715Y-79922619D02*
X86415477Y-79875000D01*
X86320239Y-79779762D01*
X86177382Y-79636905D01*
X86082143Y-79589286D01*
X85986905Y-79589286D01*
X86034524Y-79827381D02*
X85939286Y-79779762D01*
X85844048Y-79684524D01*
X85796429Y-79494048D01*
X85796429Y-79160714D01*
X85844048Y-78970238D01*
X85939286Y-78875000D01*
X86034524Y-78827381D01*
X86225001Y-78827381D01*
X86320239Y-78875000D01*
X86415477Y-78970238D01*
X86463096Y-79160714D01*
X86463096Y-79494048D01*
X86415477Y-79684524D01*
X86320239Y-79779762D01*
X86225001Y-79827381D01*
X86034524Y-79827381D01*
X87415477Y-79827381D02*
X86844048Y-79827381D01*
X87129762Y-79827381D02*
X87129762Y-78827381D01*
X87034524Y-78970238D01*
X86939286Y-79065476D01*
X86844048Y-79113095D01*
X141255952Y-79827381D02*
X141255952Y-78827381D01*
X141827381Y-79827381D02*
X141398809Y-79255952D01*
X141827381Y-78827381D02*
X141255952Y-79398810D01*
X142017857Y-79922619D02*
X142779762Y-79922619D01*
X143589286Y-79827381D02*
X143255952Y-79351190D01*
X143017857Y-79827381D02*
X143017857Y-78827381D01*
X143398810Y-78827381D01*
X143494048Y-78875000D01*
X143541667Y-78922619D01*
X143589286Y-79017857D01*
X143589286Y-79160714D01*
X143541667Y-79255952D01*
X143494048Y-79303571D01*
X143398810Y-79351190D01*
X143017857Y-79351190D01*
X144541667Y-79827381D02*
X143970238Y-79827381D01*
X144255952Y-79827381D02*
X144255952Y-78827381D01*
X144160714Y-78970238D01*
X144065476Y-79065476D01*
X143970238Y-79113095D01*
X322969345Y-136977381D02*
X322969345Y-135977381D01*
X323540774Y-136977381D02*
X323112202Y-136405952D01*
X323540774Y-135977381D02*
X322969345Y-136548810D01*
X323731250Y-137072619D02*
X324493155Y-137072619D01*
X325302679Y-136977381D02*
X324969345Y-136501190D01*
X324731250Y-136977381D02*
X324731250Y-135977381D01*
X325112203Y-135977381D01*
X325207441Y-136025000D01*
X325255060Y-136072619D01*
X325302679Y-136167857D01*
X325302679Y-136310714D01*
X325255060Y-136405952D01*
X325207441Y-136453571D01*
X325112203Y-136501190D01*
X324731250Y-136501190D01*
X325731250Y-136977381D02*
X325731250Y-135977381D01*
X326731250Y-136025000D02*
X326636012Y-135977381D01*
X326493155Y-135977381D01*
X326350297Y-136025000D01*
X326255059Y-136120238D01*
X326207440Y-136215476D01*
X326159821Y-136405952D01*
X326159821Y-136548810D01*
X326207440Y-136739286D01*
X326255059Y-136834524D01*
X326350297Y-136929762D01*
X326493155Y-136977381D01*
X326588393Y-136977381D01*
X326731250Y-136929762D01*
X326778869Y-136882143D01*
X326778869Y-136548810D01*
X326588393Y-136548810D01*
X327207440Y-136977381D02*
X327207440Y-135977381D01*
X327207440Y-136453571D02*
X327778869Y-136453571D01*
X327778869Y-136977381D02*
X327778869Y-135977381D01*
X328112202Y-135977381D02*
X328683631Y-135977381D01*
X328397916Y-136977381D02*
X328397916Y-135977381D01*
X329540774Y-136977381D02*
X328969345Y-136977381D01*
X329255059Y-136977381D02*
X329255059Y-135977381D01*
X329159821Y-136120238D01*
X329064583Y-136215476D01*
X328969345Y-136263095D01*
X320183333Y-117927381D02*
X320183333Y-116927381D01*
X320754762Y-117927381D02*
X320326190Y-117355952D01*
X320754762Y-116927381D02*
X320183333Y-117498810D01*
X320945238Y-118022619D02*
X321707143Y-118022619D01*
X322516667Y-117927381D02*
X322183333Y-117451190D01*
X321945238Y-117927381D02*
X321945238Y-116927381D01*
X322326191Y-116927381D01*
X322421429Y-116975000D01*
X322469048Y-117022619D01*
X322516667Y-117117857D01*
X322516667Y-117260714D01*
X322469048Y-117355952D01*
X322421429Y-117403571D01*
X322326191Y-117451190D01*
X321945238Y-117451190D01*
X322897619Y-117879762D02*
X323040476Y-117927381D01*
X323278572Y-117927381D01*
X323373810Y-117879762D01*
X323421429Y-117832143D01*
X323469048Y-117736905D01*
X323469048Y-117641667D01*
X323421429Y-117546429D01*
X323373810Y-117498810D01*
X323278572Y-117451190D01*
X323088095Y-117403571D01*
X322992857Y-117355952D01*
X322945238Y-117308333D01*
X322897619Y-117213095D01*
X322897619Y-117117857D01*
X322945238Y-117022619D01*
X322992857Y-116975000D01*
X323088095Y-116927381D01*
X323326191Y-116927381D01*
X323469048Y-116975000D01*
X323897619Y-117927381D02*
X323897619Y-116927381D01*
X323897619Y-117403571D02*
X324469048Y-117403571D01*
X324469048Y-117927381D02*
X324469048Y-116927381D01*
X324945238Y-117927381D02*
X324945238Y-116927381D01*
X325754762Y-117403571D02*
X325421428Y-117403571D01*
X325421428Y-117927381D02*
X325421428Y-116927381D01*
X325897619Y-116927381D01*
X326135714Y-116927381D02*
X326707143Y-116927381D01*
X326421428Y-117927381D02*
X326421428Y-116927381D01*
X327564286Y-117927381D02*
X326992857Y-117927381D01*
X327278571Y-117927381D02*
X327278571Y-116927381D01*
X327183333Y-117070238D01*
X327088095Y-117165476D01*
X326992857Y-117213095D01*
X107942262Y-98877381D02*
X107942262Y-97877381D01*
X108513691Y-98877381D02*
X108085119Y-98305952D01*
X108513691Y-97877381D02*
X107942262Y-98448810D01*
X108704167Y-98972619D02*
X109466072Y-98972619D01*
X109656548Y-98829762D02*
X109799405Y-98877381D01*
X110037501Y-98877381D01*
X110132739Y-98829762D01*
X110180358Y-98782143D01*
X110227977Y-98686905D01*
X110227977Y-98591667D01*
X110180358Y-98496429D01*
X110132739Y-98448810D01*
X110037501Y-98401190D01*
X109847024Y-98353571D01*
X109751786Y-98305952D01*
X109704167Y-98258333D01*
X109656548Y-98163095D01*
X109656548Y-98067857D01*
X109704167Y-97972619D01*
X109751786Y-97925000D01*
X109847024Y-97877381D01*
X110085120Y-97877381D01*
X110227977Y-97925000D01*
X111180358Y-98877381D02*
X110608929Y-98877381D01*
X110894643Y-98877381D02*
X110894643Y-97877381D01*
X110799405Y-98020238D01*
X110704167Y-98115476D01*
X110608929Y-98163095D01*
X65889583Y-117927381D02*
X65889583Y-116927381D01*
X66461012Y-117927381D02*
X66032440Y-117355952D01*
X66461012Y-116927381D02*
X65889583Y-117498810D01*
X66651488Y-118022619D02*
X67413393Y-118022619D01*
X67603869Y-117879762D02*
X67746726Y-117927381D01*
X67984822Y-117927381D01*
X68080060Y-117879762D01*
X68127679Y-117832143D01*
X68175298Y-117736905D01*
X68175298Y-117641667D01*
X68127679Y-117546429D01*
X68080060Y-117498810D01*
X67984822Y-117451190D01*
X67794345Y-117403571D01*
X67699107Y-117355952D01*
X67651488Y-117308333D01*
X67603869Y-117213095D01*
X67603869Y-117117857D01*
X67651488Y-117022619D01*
X67699107Y-116975000D01*
X67794345Y-116927381D01*
X68032441Y-116927381D01*
X68175298Y-116975000D01*
X68603869Y-117927381D02*
X68603869Y-116927381D01*
X68603869Y-117403571D02*
X69175298Y-117403571D01*
X69175298Y-117927381D02*
X69175298Y-116927381D01*
X69651488Y-117927381D02*
X69651488Y-116927381D01*
X70461012Y-117403571D02*
X70127678Y-117403571D01*
X70127678Y-117927381D02*
X70127678Y-116927381D01*
X70603869Y-116927381D01*
X70841964Y-116927381D02*
X71413393Y-116927381D01*
X71127678Y-117927381D02*
X71127678Y-116927381D01*
X72270536Y-117927381D02*
X71699107Y-117927381D01*
X71984821Y-117927381D02*
X71984821Y-116927381D01*
X71889583Y-117070238D01*
X71794345Y-117165476D01*
X71699107Y-117213095D01*
X175117559Y-136977381D02*
X175117559Y-135977381D01*
X175688988Y-136977381D02*
X175260416Y-136405952D01*
X175688988Y-135977381D02*
X175117559Y-136548810D01*
X175879464Y-137072619D02*
X176641369Y-137072619D01*
X176831845Y-136929762D02*
X176974702Y-136977381D01*
X177212798Y-136977381D01*
X177308036Y-136929762D01*
X177355655Y-136882143D01*
X177403274Y-136786905D01*
X177403274Y-136691667D01*
X177355655Y-136596429D01*
X177308036Y-136548810D01*
X177212798Y-136501190D01*
X177022321Y-136453571D01*
X176927083Y-136405952D01*
X176879464Y-136358333D01*
X176831845Y-136263095D01*
X176831845Y-136167857D01*
X176879464Y-136072619D01*
X176927083Y-136025000D01*
X177022321Y-135977381D01*
X177260417Y-135977381D01*
X177403274Y-136025000D01*
X177831845Y-136977381D02*
X177831845Y-135977381D01*
X178212798Y-135977381D01*
X178308036Y-136025000D01*
X178355655Y-136072619D01*
X178403274Y-136167857D01*
X178403274Y-136310714D01*
X178355655Y-136405952D01*
X178308036Y-136453571D01*
X178212798Y-136501190D01*
X177831845Y-136501190D01*
X178784226Y-136691667D02*
X179260417Y-136691667D01*
X178688988Y-136977381D02*
X179022321Y-135977381D01*
X179355655Y-136977381D01*
X180260417Y-136882143D02*
X180212798Y-136929762D01*
X180069941Y-136977381D01*
X179974703Y-136977381D01*
X179831845Y-136929762D01*
X179736607Y-136834524D01*
X179688988Y-136739286D01*
X179641369Y-136548810D01*
X179641369Y-136405952D01*
X179688988Y-136215476D01*
X179736607Y-136120238D01*
X179831845Y-136025000D01*
X179974703Y-135977381D01*
X180069941Y-135977381D01*
X180212798Y-136025000D01*
X180260417Y-136072619D01*
X180688988Y-136453571D02*
X181022322Y-136453571D01*
X181165179Y-136977381D02*
X180688988Y-136977381D01*
X180688988Y-135977381D01*
X181165179Y-135977381D01*
X182117560Y-136977381D02*
X181546131Y-136977381D01*
X181831845Y-136977381D02*
X181831845Y-135977381D01*
X181736607Y-136120238D01*
X181641369Y-136215476D01*
X181546131Y-136263095D01*
X187023809Y-136977381D02*
X187023809Y-135977381D01*
X187595238Y-136977381D02*
X187166666Y-136405952D01*
X187595238Y-135977381D02*
X187023809Y-136548810D01*
X187785714Y-137072619D02*
X188547619Y-137072619D01*
X188738095Y-136929762D02*
X188880952Y-136977381D01*
X189119048Y-136977381D01*
X189214286Y-136929762D01*
X189261905Y-136882143D01*
X189309524Y-136786905D01*
X189309524Y-136691667D01*
X189261905Y-136596429D01*
X189214286Y-136548810D01*
X189119048Y-136501190D01*
X188928571Y-136453571D01*
X188833333Y-136405952D01*
X188785714Y-136358333D01*
X188738095Y-136263095D01*
X188738095Y-136167857D01*
X188785714Y-136072619D01*
X188833333Y-136025000D01*
X188928571Y-135977381D01*
X189166667Y-135977381D01*
X189309524Y-136025000D01*
X189738095Y-136977381D02*
X189738095Y-135977381D01*
X190119048Y-135977381D01*
X190214286Y-136025000D01*
X190261905Y-136072619D01*
X190309524Y-136167857D01*
X190309524Y-136310714D01*
X190261905Y-136405952D01*
X190214286Y-136453571D01*
X190119048Y-136501190D01*
X189738095Y-136501190D01*
X190690476Y-136691667D02*
X191166667Y-136691667D01*
X190595238Y-136977381D02*
X190928571Y-135977381D01*
X191261905Y-136977381D01*
X192166667Y-136882143D02*
X192119048Y-136929762D01*
X191976191Y-136977381D01*
X191880953Y-136977381D01*
X191738095Y-136929762D01*
X191642857Y-136834524D01*
X191595238Y-136739286D01*
X191547619Y-136548810D01*
X191547619Y-136405952D01*
X191595238Y-136215476D01*
X191642857Y-136120238D01*
X191738095Y-136025000D01*
X191880953Y-135977381D01*
X191976191Y-135977381D01*
X192119048Y-136025000D01*
X192166667Y-136072619D01*
X192595238Y-136453571D02*
X192928572Y-136453571D01*
X193071429Y-136977381D02*
X192595238Y-136977381D01*
X192595238Y-135977381D01*
X193071429Y-135977381D01*
X193452381Y-136072619D02*
X193500000Y-136025000D01*
X193595238Y-135977381D01*
X193833334Y-135977381D01*
X193928572Y-136025000D01*
X193976191Y-136072619D01*
X194023810Y-136167857D01*
X194023810Y-136263095D01*
X193976191Y-136405952D01*
X193404762Y-136977381D01*
X194023810Y-136977381D01*
X160425000Y-79827381D02*
X160425000Y-78827381D01*
X160996429Y-79827381D02*
X160567857Y-79255952D01*
X160996429Y-78827381D02*
X160425000Y-79398810D01*
X161186905Y-79922619D02*
X161948810Y-79922619D01*
X162044048Y-78827381D02*
X162615477Y-78827381D01*
X162329762Y-79827381D02*
X162329762Y-78827381D01*
X163472620Y-79827381D02*
X162901191Y-79827381D01*
X163186905Y-79827381D02*
X163186905Y-78827381D01*
X163091667Y-78970238D01*
X162996429Y-79065476D01*
X162901191Y-79113095D01*
X59483928Y-79827381D02*
X59483928Y-78827381D01*
X60055357Y-79827381D02*
X59626785Y-79255952D01*
X60055357Y-78827381D02*
X59483928Y-79398810D01*
X60245833Y-79922619D02*
X61007738Y-79922619D01*
X61102976Y-78827381D02*
X61674405Y-78827381D01*
X61388690Y-79827381D02*
X61388690Y-78827381D01*
X61960119Y-79541667D02*
X62436310Y-79541667D01*
X61864881Y-79827381D02*
X62198214Y-78827381D01*
X62531548Y-79827381D01*
X63198215Y-79303571D02*
X63341072Y-79351190D01*
X63388691Y-79398810D01*
X63436310Y-79494048D01*
X63436310Y-79636905D01*
X63388691Y-79732143D01*
X63341072Y-79779762D01*
X63245834Y-79827381D01*
X62864881Y-79827381D01*
X62864881Y-78827381D01*
X63198215Y-78827381D01*
X63293453Y-78875000D01*
X63341072Y-78922619D01*
X63388691Y-79017857D01*
X63388691Y-79113095D01*
X63341072Y-79208333D01*
X63293453Y-79255952D01*
X63198215Y-79303571D01*
X62864881Y-79303571D01*
X64388691Y-79827381D02*
X63817262Y-79827381D01*
X64102976Y-79827381D02*
X64102976Y-78827381D01*
X64007738Y-78970238D01*
X63912500Y-79065476D01*
X63817262Y-79113095D01*
X198382143Y-79827381D02*
X198382143Y-78827381D01*
X198953572Y-79827381D02*
X198525000Y-79255952D01*
X198953572Y-78827381D02*
X198382143Y-79398810D01*
X199144048Y-79922619D02*
X199905953Y-79922619D01*
X200144048Y-78827381D02*
X200144048Y-79636905D01*
X200191667Y-79732143D01*
X200239286Y-79779762D01*
X200334524Y-79827381D01*
X200525001Y-79827381D01*
X200620239Y-79779762D01*
X200667858Y-79732143D01*
X200715477Y-79636905D01*
X200715477Y-78827381D01*
X201715477Y-79827381D02*
X201144048Y-79827381D01*
X201429762Y-79827381D02*
X201429762Y-78827381D01*
X201334524Y-78970238D01*
X201239286Y-79065476D01*
X201144048Y-79113095D01*
X300275893Y-117927381D02*
X300275893Y-116927381D01*
X300847322Y-117927381D02*
X300418750Y-117355952D01*
X300847322Y-116927381D02*
X300275893Y-117498810D01*
X301037798Y-118022619D02*
X301799703Y-118022619D01*
X302037798Y-116927381D02*
X302037798Y-117736905D01*
X302085417Y-117832143D01*
X302133036Y-117879762D01*
X302228274Y-117927381D01*
X302418751Y-117927381D01*
X302513989Y-117879762D01*
X302561608Y-117832143D01*
X302609227Y-117736905D01*
X302609227Y-116927381D01*
X303085417Y-117927381D02*
X303085417Y-116927381D01*
X303466370Y-116927381D01*
X303561608Y-116975000D01*
X303609227Y-117022619D01*
X303656846Y-117117857D01*
X303656846Y-117260714D01*
X303609227Y-117355952D01*
X303561608Y-117403571D01*
X303466370Y-117451190D01*
X303085417Y-117451190D01*
X304609227Y-117927381D02*
X304037798Y-117927381D01*
X304323512Y-117927381D02*
X304323512Y-116927381D01*
X304228274Y-117070238D01*
X304133036Y-117165476D01*
X304037798Y-117213095D01*
X155614881Y-117927381D02*
X155614881Y-116927381D01*
X156186310Y-117927381D02*
X155757738Y-117355952D01*
X156186310Y-116927381D02*
X155614881Y-117498810D01*
X156376786Y-118022619D02*
X157138691Y-118022619D01*
X157233929Y-116927381D02*
X157567262Y-117927381D01*
X157900596Y-116927381D01*
X158757739Y-117927381D02*
X158186310Y-117927381D01*
X158472024Y-117927381D02*
X158472024Y-116927381D01*
X158376786Y-117070238D01*
X158281548Y-117165476D01*
X158186310Y-117213095D01*
X103084524Y-79827381D02*
X103084524Y-78827381D01*
X103655953Y-79827381D02*
X103227381Y-79255952D01*
X103655953Y-78827381D02*
X103084524Y-79398810D01*
X103846429Y-79922619D02*
X104608334Y-79922619D01*
X104751191Y-78827381D02*
X104989286Y-79827381D01*
X105179763Y-79113095D01*
X105370239Y-79827381D01*
X105608334Y-78827381D01*
X106513096Y-79827381D02*
X105941667Y-79827381D01*
X106227381Y-79827381D02*
X106227381Y-78827381D01*
X106132143Y-78970238D01*
X106036905Y-79065476D01*
X105941667Y-79113095D01*
X80891369Y-136977381D02*
X80891369Y-135977381D01*
X81462798Y-136977381D02*
X81034226Y-136405952D01*
X81462798Y-135977381D02*
X80891369Y-136548810D01*
X81653274Y-137072619D02*
X82415179Y-137072619D01*
X82558036Y-135977381D02*
X82796131Y-136977381D01*
X82986608Y-136263095D01*
X83177084Y-136977381D01*
X83415179Y-135977381D01*
X83796131Y-136977381D02*
X83796131Y-135977381D01*
X84272321Y-136977381D02*
X84272321Y-135977381D01*
X84843750Y-136977381D01*
X84843750Y-135977381D01*
X85843750Y-136977381D02*
X85272321Y-136977381D01*
X85558035Y-136977381D02*
X85558035Y-135977381D01*
X85462797Y-136120238D01*
X85367559Y-136215476D01*
X85272321Y-136263095D01*
X117467262Y-117927381D02*
X117467262Y-116927381D01*
X118038691Y-117927381D02*
X117610119Y-117355952D01*
X118038691Y-116927381D02*
X117467262Y-117498810D01*
X118229167Y-118022619D02*
X118991072Y-118022619D01*
X119133929Y-116927381D02*
X119800596Y-117927381D01*
X119800596Y-116927381D02*
X119133929Y-117927381D01*
X120705358Y-117927381D02*
X120133929Y-117927381D01*
X120419643Y-117927381D02*
X120419643Y-116927381D01*
X120324405Y-117070238D01*
X120229167Y-117165476D01*
X120133929Y-117213095D01*
X179427381Y-79827381D02*
X179427381Y-78827381D01*
X179998810Y-79827381D02*
X179570238Y-79255952D01*
X179998810Y-78827381D02*
X179427381Y-79398810D01*
X180189286Y-79922619D02*
X180951191Y-79922619D01*
X181379762Y-79351190D02*
X181379762Y-79827381D01*
X181046429Y-78827381D02*
X181379762Y-79351190D01*
X181713096Y-78827381D01*
X182570239Y-79827381D02*
X181998810Y-79827381D01*
X182284524Y-79827381D02*
X182284524Y-78827381D01*
X182189286Y-78970238D01*
X182094048Y-79065476D01*
X181998810Y-79113095D01*
X98417262Y-117927381D02*
X98417262Y-116927381D01*
X98988691Y-117927381D02*
X98560119Y-117355952D01*
X98988691Y-116927381D02*
X98417262Y-117498810D01*
X99179167Y-118022619D02*
X99941072Y-118022619D01*
X100083929Y-116927381D02*
X100750596Y-116927381D01*
X100083929Y-117927381D01*
X100750596Y-117927381D01*
X101655358Y-117927381D02*
X101083929Y-117927381D01*
X101369643Y-117927381D02*
X101369643Y-116927381D01*
X101274405Y-117070238D01*
X101179167Y-117165476D01*
X101083929Y-117213095D01*
X274772619Y-79827381D02*
X274772619Y-78827381D01*
X275344048Y-79827381D02*
X274915476Y-79255952D01*
X275344048Y-78827381D02*
X274772619Y-79398810D01*
X275534524Y-79922619D02*
X276296429Y-79922619D01*
X276820239Y-80160714D02*
X276582143Y-80160714D01*
X276582143Y-78732143D01*
X276820239Y-78732143D01*
X277725001Y-79827381D02*
X277153572Y-79827381D01*
X277439286Y-79827381D02*
X277439286Y-78827381D01*
X277344048Y-78970238D01*
X277248810Y-79065476D01*
X277153572Y-79113095D01*
X317635119Y-79827381D02*
X317635119Y-78827381D01*
X318206548Y-79827381D02*
X317777976Y-79255952D01*
X318206548Y-78827381D02*
X317635119Y-79398810D01*
X318397024Y-79922619D02*
X319158929Y-79922619D01*
X319063691Y-78732143D02*
X319920834Y-80017857D01*
X320587501Y-79827381D02*
X320016072Y-79827381D01*
X320301786Y-79827381D02*
X320301786Y-78827381D01*
X320206548Y-78970238D01*
X320111310Y-79065476D01*
X320016072Y-79113095D01*
X293822619Y-79827381D02*
X293822619Y-78827381D01*
X294394048Y-79827381D02*
X293965476Y-79255952D01*
X294394048Y-78827381D02*
X293822619Y-79398810D01*
X294584524Y-79922619D02*
X295346429Y-79922619D01*
X295489286Y-80160714D02*
X295727381Y-80160714D01*
X295727381Y-78732143D01*
X295489286Y-78732143D01*
X296775001Y-79827381D02*
X296203572Y-79827381D01*
X296489286Y-79827381D02*
X296489286Y-78827381D01*
X296394048Y-78970238D01*
X296298810Y-79065476D01*
X296203572Y-79113095D01*
X265390476Y-136977381D02*
X265390476Y-135977381D01*
X265961905Y-136977381D02*
X265533333Y-136405952D01*
X265961905Y-135977381D02*
X265390476Y-136548810D01*
X266152381Y-137072619D02*
X266914286Y-137072619D01*
X267009524Y-135929762D02*
X267152381Y-136072619D01*
X268057143Y-136977381D02*
X267485714Y-136977381D01*
X267771428Y-136977381D02*
X267771428Y-135977381D01*
X267676190Y-136120238D01*
X267580952Y-136215476D01*
X267485714Y-136263095D01*
X56364583Y-117927381D02*
X56364583Y-116927381D01*
X56936012Y-117927381D02*
X56507440Y-117355952D01*
X56936012Y-116927381D02*
X56364583Y-117498810D01*
X57126488Y-118022619D02*
X57888393Y-118022619D01*
X58078869Y-117879762D02*
X58221726Y-117927381D01*
X58459822Y-117927381D01*
X58555060Y-117879762D01*
X58602679Y-117832143D01*
X58650298Y-117736905D01*
X58650298Y-117641667D01*
X58602679Y-117546429D01*
X58555060Y-117498810D01*
X58459822Y-117451190D01*
X58269345Y-117403571D01*
X58174107Y-117355952D01*
X58126488Y-117308333D01*
X58078869Y-117213095D01*
X58078869Y-117117857D01*
X58126488Y-117022619D01*
X58174107Y-116975000D01*
X58269345Y-116927381D01*
X58507441Y-116927381D01*
X58650298Y-116975000D01*
X59078869Y-117927381D02*
X59078869Y-116927381D01*
X59078869Y-117403571D02*
X59650298Y-117403571D01*
X59650298Y-117927381D02*
X59650298Y-116927381D01*
X60126488Y-117927381D02*
X60126488Y-116927381D01*
X60936012Y-117403571D02*
X60602678Y-117403571D01*
X60602678Y-117927381D02*
X60602678Y-116927381D01*
X61078869Y-116927381D01*
X61316964Y-116927381D02*
X61888393Y-116927381D01*
X61602678Y-117927381D02*
X61602678Y-116927381D01*
X62174107Y-117022619D02*
X62221726Y-116975000D01*
X62316964Y-116927381D01*
X62555060Y-116927381D01*
X62650298Y-116975000D01*
X62697917Y-117022619D01*
X62745536Y-117117857D01*
X62745536Y-117213095D01*
X62697917Y-117355952D01*
X62126488Y-117927381D01*
X62745536Y-117927381D01*
X111609524Y-136977381D02*
X111609524Y-135977381D01*
X112180953Y-136977381D02*
X111752381Y-136405952D01*
X112180953Y-135977381D02*
X111609524Y-136548810D01*
X112371429Y-137072619D02*
X113133334Y-137072619D01*
X113942858Y-136882143D02*
X113895239Y-136929762D01*
X113752382Y-136977381D01*
X113657144Y-136977381D01*
X113514286Y-136929762D01*
X113419048Y-136834524D01*
X113371429Y-136739286D01*
X113323810Y-136548810D01*
X113323810Y-136405952D01*
X113371429Y-136215476D01*
X113419048Y-136120238D01*
X113514286Y-136025000D01*
X113657144Y-135977381D01*
X113752382Y-135977381D01*
X113895239Y-136025000D01*
X113942858Y-136072619D01*
X114371429Y-136977381D02*
X114371429Y-135977381D01*
X114704763Y-136691667D01*
X115038096Y-135977381D01*
X115038096Y-136977381D01*
X115514286Y-136977381D02*
X115514286Y-135977381D01*
X115752381Y-135977381D01*
X115895239Y-136025000D01*
X115990477Y-136120238D01*
X116038096Y-136215476D01*
X116085715Y-136405952D01*
X116085715Y-136548810D01*
X116038096Y-136739286D01*
X115990477Y-136834524D01*
X115895239Y-136929762D01*
X115752381Y-136977381D01*
X115514286Y-136977381D01*
X117038096Y-136977381D02*
X116466667Y-136977381D01*
X116752381Y-136977381D02*
X116752381Y-135977381D01*
X116657143Y-136120238D01*
X116561905Y-136215476D01*
X116466667Y-136263095D01*
X290060416Y-136977381D02*
X290060416Y-135977381D01*
X290631845Y-136977381D02*
X290203273Y-136405952D01*
X290631845Y-135977381D02*
X290060416Y-136548810D01*
X290822321Y-137072619D02*
X291584226Y-137072619D01*
X292393750Y-136977381D02*
X292060416Y-136501190D01*
X291822321Y-136977381D02*
X291822321Y-135977381D01*
X292203274Y-135977381D01*
X292298512Y-136025000D01*
X292346131Y-136072619D01*
X292393750Y-136167857D01*
X292393750Y-136310714D01*
X292346131Y-136405952D01*
X292298512Y-136453571D01*
X292203274Y-136501190D01*
X291822321Y-136501190D01*
X292774702Y-136691667D02*
X293250893Y-136691667D01*
X292679464Y-136977381D02*
X293012797Y-135977381D01*
X293346131Y-136977381D01*
X294155655Y-136977381D02*
X293679464Y-136977381D01*
X293679464Y-135977381D01*
X294346131Y-135977381D02*
X294917560Y-135977381D01*
X294631845Y-136977381D02*
X294631845Y-135977381D01*
X295774703Y-136977381D02*
X295203274Y-136977381D01*
X295488988Y-136977381D02*
X295488988Y-135977381D01*
X295393750Y-136120238D01*
X295298512Y-136215476D01*
X295203274Y-136263095D01*
X316802083Y-93321131D02*
X316802083Y-92321131D01*
X317373512Y-93321131D02*
X316944940Y-92749702D01*
X317373512Y-92321131D02*
X316802083Y-92892560D01*
X317563988Y-93416369D02*
X318325893Y-93416369D01*
X318563988Y-93321131D02*
X318563988Y-92321131D01*
X318992559Y-93273512D02*
X319135416Y-93321131D01*
X319373512Y-93321131D01*
X319468750Y-93273512D01*
X319516369Y-93225893D01*
X319563988Y-93130655D01*
X319563988Y-93035417D01*
X319516369Y-92940179D01*
X319468750Y-92892560D01*
X319373512Y-92844940D01*
X319183035Y-92797321D01*
X319087797Y-92749702D01*
X319040178Y-92702083D01*
X318992559Y-92606845D01*
X318992559Y-92511607D01*
X319040178Y-92416369D01*
X319087797Y-92368750D01*
X319183035Y-92321131D01*
X319421131Y-92321131D01*
X319563988Y-92368750D01*
X320183035Y-92321131D02*
X320373512Y-92321131D01*
X320468750Y-92368750D01*
X320563988Y-92463988D01*
X320611607Y-92654464D01*
X320611607Y-92987798D01*
X320563988Y-93178274D01*
X320468750Y-93273512D01*
X320373512Y-93321131D01*
X320183035Y-93321131D01*
X320087797Y-93273512D01*
X319992559Y-93178274D01*
X319944940Y-92987798D01*
X319944940Y-92654464D01*
X319992559Y-92463988D01*
X320087797Y-92368750D01*
X320183035Y-92321131D01*
X321040178Y-92797321D02*
X321373512Y-92797321D01*
X321516369Y-93321131D02*
X321040178Y-93321131D01*
X321040178Y-92321131D01*
X321516369Y-92321131D01*
X321944940Y-93321131D02*
X321944940Y-92321131D01*
X322516369Y-93321131D01*
X322516369Y-92321131D01*
X322849702Y-92321131D02*
X323421131Y-92321131D01*
X323135416Y-93321131D02*
X323135416Y-92321131D01*
X323754464Y-92797321D02*
X324087798Y-92797321D01*
X324230655Y-93321131D02*
X323754464Y-93321131D01*
X323754464Y-92321131D01*
X324230655Y-92321131D01*
X325230655Y-93321131D02*
X324897321Y-92844940D01*
X324659226Y-93321131D02*
X324659226Y-92321131D01*
X325040179Y-92321131D01*
X325135417Y-92368750D01*
X325183036Y-92416369D01*
X325230655Y-92511607D01*
X325230655Y-92654464D01*
X325183036Y-92749702D01*
X325135417Y-92797321D01*
X325040179Y-92844940D01*
X324659226Y-92844940D01*
X326183036Y-93321131D02*
X325611607Y-93321131D01*
X325897321Y-93321131D02*
X325897321Y-92321131D01*
X325802083Y-92463988D01*
X325706845Y-92559226D01*
X325611607Y-92606845D01*
X54126190Y-98877381D02*
X54126190Y-97877381D01*
X54697619Y-98877381D02*
X54269047Y-98305952D01*
X54697619Y-97877381D02*
X54126190Y-98448810D01*
X54888095Y-98972619D02*
X55650000Y-98972619D01*
X56459524Y-98782143D02*
X56411905Y-98829762D01*
X56269048Y-98877381D01*
X56173810Y-98877381D01*
X56030952Y-98829762D01*
X55935714Y-98734524D01*
X55888095Y-98639286D01*
X55840476Y-98448810D01*
X55840476Y-98305952D01*
X55888095Y-98115476D01*
X55935714Y-98020238D01*
X56030952Y-97925000D01*
X56173810Y-97877381D01*
X56269048Y-97877381D01*
X56411905Y-97925000D01*
X56459524Y-97972619D01*
X56840476Y-98591667D02*
X57316667Y-98591667D01*
X56745238Y-98877381D02*
X57078571Y-97877381D01*
X57411905Y-98877381D01*
X57745238Y-98877381D02*
X57745238Y-97877381D01*
X58126191Y-97877381D01*
X58221429Y-97925000D01*
X58269048Y-97972619D01*
X58316667Y-98067857D01*
X58316667Y-98210714D01*
X58269048Y-98305952D01*
X58221429Y-98353571D01*
X58126191Y-98401190D01*
X57745238Y-98401190D01*
X58697619Y-98829762D02*
X58840476Y-98877381D01*
X59078572Y-98877381D01*
X59173810Y-98829762D01*
X59221429Y-98782143D01*
X59269048Y-98686905D01*
X59269048Y-98591667D01*
X59221429Y-98496429D01*
X59173810Y-98448810D01*
X59078572Y-98401190D01*
X58888095Y-98353571D01*
X58792857Y-98305952D01*
X58745238Y-98258333D01*
X58697619Y-98163095D01*
X58697619Y-98067857D01*
X58745238Y-97972619D01*
X58792857Y-97925000D01*
X58888095Y-97877381D01*
X59126191Y-97877381D01*
X59269048Y-97925000D01*
X59650000Y-97972619D02*
X59697619Y-97925000D01*
X59792857Y-97877381D01*
X60030953Y-97877381D01*
X60126191Y-97925000D01*
X60173810Y-97972619D01*
X60221429Y-98067857D01*
X60221429Y-98163095D01*
X60173810Y-98305952D01*
X59602381Y-98877381D01*
X60221429Y-98877381D01*
X61388988Y-136977381D02*
X61388988Y-135977381D01*
X61960417Y-136977381D02*
X61531845Y-136405952D01*
X61960417Y-135977381D02*
X61388988Y-136548810D01*
X62150893Y-137072619D02*
X62912798Y-137072619D01*
X63722322Y-136882143D02*
X63674703Y-136929762D01*
X63531846Y-136977381D01*
X63436608Y-136977381D01*
X63293750Y-136929762D01*
X63198512Y-136834524D01*
X63150893Y-136739286D01*
X63103274Y-136548810D01*
X63103274Y-136405952D01*
X63150893Y-136215476D01*
X63198512Y-136120238D01*
X63293750Y-136025000D01*
X63436608Y-135977381D01*
X63531846Y-135977381D01*
X63674703Y-136025000D01*
X63722322Y-136072619D01*
X64008036Y-135977381D02*
X64579465Y-135977381D01*
X64293750Y-136977381D02*
X64293750Y-135977381D01*
X65484227Y-136977381D02*
X65150893Y-136501190D01*
X64912798Y-136977381D02*
X64912798Y-135977381D01*
X65293751Y-135977381D01*
X65388989Y-136025000D01*
X65436608Y-136072619D01*
X65484227Y-136167857D01*
X65484227Y-136310714D01*
X65436608Y-136405952D01*
X65388989Y-136453571D01*
X65293751Y-136501190D01*
X64912798Y-136501190D01*
X66388989Y-136977381D02*
X65912798Y-136977381D01*
X65912798Y-135977381D01*
X66674703Y-136072619D02*
X66722322Y-136025000D01*
X66817560Y-135977381D01*
X67055656Y-135977381D01*
X67150894Y-136025000D01*
X67198513Y-136072619D01*
X67246132Y-136167857D01*
X67246132Y-136263095D01*
X67198513Y-136405952D01*
X66627084Y-136977381D01*
X67246132Y-136977381D01*
X88154166Y-136977381D02*
X88154166Y-135977381D01*
X88725595Y-136977381D02*
X88297023Y-136405952D01*
X88725595Y-135977381D02*
X88154166Y-136548810D01*
X88916071Y-137072619D02*
X89677976Y-137072619D01*
X89868452Y-136691667D02*
X90344643Y-136691667D01*
X89773214Y-136977381D02*
X90106547Y-135977381D01*
X90439881Y-136977381D01*
X91249405Y-136977381D02*
X90773214Y-136977381D01*
X90773214Y-135977381D01*
X91439881Y-135977381D02*
X92011310Y-135977381D01*
X91725595Y-136977381D02*
X91725595Y-135977381D01*
X92297024Y-136072619D02*
X92344643Y-136025000D01*
X92439881Y-135977381D01*
X92677977Y-135977381D01*
X92773215Y-136025000D01*
X92820834Y-136072619D01*
X92868453Y-136167857D01*
X92868453Y-136263095D01*
X92820834Y-136405952D01*
X92249405Y-136977381D01*
X92868453Y-136977381D01*
X313301488Y-136977381D02*
X313301488Y-135977381D01*
X313872917Y-136977381D02*
X313444345Y-136405952D01*
X313872917Y-135977381D02*
X313301488Y-136548810D01*
X314063393Y-137072619D02*
X314825298Y-137072619D01*
X315634822Y-136977381D02*
X315301488Y-136501190D01*
X315063393Y-136977381D02*
X315063393Y-135977381D01*
X315444346Y-135977381D01*
X315539584Y-136025000D01*
X315587203Y-136072619D01*
X315634822Y-136167857D01*
X315634822Y-136310714D01*
X315587203Y-136405952D01*
X315539584Y-136453571D01*
X315444346Y-136501190D01*
X315063393Y-136501190D01*
X316634822Y-136882143D02*
X316587203Y-136929762D01*
X316444346Y-136977381D01*
X316349108Y-136977381D01*
X316206250Y-136929762D01*
X316111012Y-136834524D01*
X316063393Y-136739286D01*
X316015774Y-136548810D01*
X316015774Y-136405952D01*
X316063393Y-136215476D01*
X316111012Y-136120238D01*
X316206250Y-136025000D01*
X316349108Y-135977381D01*
X316444346Y-135977381D01*
X316587203Y-136025000D01*
X316634822Y-136072619D01*
X316920536Y-135977381D02*
X317491965Y-135977381D01*
X317206250Y-136977381D02*
X317206250Y-135977381D01*
X318396727Y-136977381D02*
X318063393Y-136501190D01*
X317825298Y-136977381D02*
X317825298Y-135977381D01*
X318206251Y-135977381D01*
X318301489Y-136025000D01*
X318349108Y-136072619D01*
X318396727Y-136167857D01*
X318396727Y-136310714D01*
X318349108Y-136405952D01*
X318301489Y-136453571D01*
X318206251Y-136501190D01*
X317825298Y-136501190D01*
X319301489Y-136977381D02*
X318825298Y-136977381D01*
X318825298Y-135977381D01*
X319587203Y-136072619D02*
X319634822Y-136025000D01*
X319730060Y-135977381D01*
X319968156Y-135977381D01*
X320063394Y-136025000D01*
X320111013Y-136072619D01*
X320158632Y-136167857D01*
X320158632Y-136263095D01*
X320111013Y-136405952D01*
X319539584Y-136977381D01*
X320158632Y-136977381D01*
X305895833Y-117927381D02*
X305895833Y-116927381D01*
X306467262Y-117927381D02*
X306038690Y-117355952D01*
X306467262Y-116927381D02*
X305895833Y-117498810D01*
X306657738Y-118022619D02*
X307419643Y-118022619D01*
X308229167Y-117927381D02*
X307895833Y-117451190D01*
X307657738Y-117927381D02*
X307657738Y-116927381D01*
X308038691Y-116927381D01*
X308133929Y-116975000D01*
X308181548Y-117022619D01*
X308229167Y-117117857D01*
X308229167Y-117260714D01*
X308181548Y-117355952D01*
X308133929Y-117403571D01*
X308038691Y-117451190D01*
X307657738Y-117451190D01*
X308610119Y-117879762D02*
X308752976Y-117927381D01*
X308991072Y-117927381D01*
X309086310Y-117879762D01*
X309133929Y-117832143D01*
X309181548Y-117736905D01*
X309181548Y-117641667D01*
X309133929Y-117546429D01*
X309086310Y-117498810D01*
X308991072Y-117451190D01*
X308800595Y-117403571D01*
X308705357Y-117355952D01*
X308657738Y-117308333D01*
X308610119Y-117213095D01*
X308610119Y-117117857D01*
X308657738Y-117022619D01*
X308705357Y-116975000D01*
X308800595Y-116927381D01*
X309038691Y-116927381D01*
X309181548Y-116975000D01*
X309610119Y-117927381D02*
X309610119Y-116927381D01*
X309610119Y-117403571D02*
X310181548Y-117403571D01*
X310181548Y-117927381D02*
X310181548Y-116927381D01*
X310657738Y-117927381D02*
X310657738Y-116927381D01*
X311467262Y-117403571D02*
X311133928Y-117403571D01*
X311133928Y-117927381D02*
X311133928Y-116927381D01*
X311610119Y-116927381D01*
X311848214Y-116927381D02*
X312419643Y-116927381D01*
X312133928Y-117927381D02*
X312133928Y-116927381D01*
X312705357Y-117022619D02*
X312752976Y-116975000D01*
X312848214Y-116927381D01*
X313086310Y-116927381D01*
X313181548Y-116975000D01*
X313229167Y-117022619D01*
X313276786Y-117117857D01*
X313276786Y-117213095D01*
X313229167Y-117355952D01*
X312657738Y-117927381D01*
X313276786Y-117927381D01*
M02*
