G04 #@! TF.FileFunction,Soldermask,Bot*
%FSLAX46Y46*%
G04 Gerber Fmt 4.6, Leading zero omitted, Abs format (unit mm)*
G04 Created by KiCad (PCBNEW 4.0.6) date 10/23/17 15:30:08*
%MOMM*%
%LPD*%
G01*
G04 APERTURE LIST*
%ADD10C,0.100000*%
%ADD11C,2.501900*%
%ADD12C,2.650000*%
%ADD13C,2.650000*%
%ADD14C,4.387800*%
%ADD15C,2.305000*%
%ADD16R,2.305000X2.305000*%
%ADD17C,2.101800*%
%ADD18R,1.700000X1.900000*%
%ADD19C,7.401300*%
%ADD20C,7.400240*%
%ADD21R,1.900000X1.650000*%
%ADD22R,1.650000X1.900000*%
%ADD23R,2.430000X3.050000*%
%ADD24C,3.448000*%
%ADD25R,2.400000X4.200000*%
%ADD26R,2.400000X1.900000*%
%ADD27R,1.900000X1.700000*%
%ADD28R,2.200000X1.800000*%
%ADD29C,2.200000*%
%ADD30R,2.000000X0.950000*%
%ADD31R,0.950000X2.000000*%
%ADD32R,0.900000X2.650000*%
%ADD33R,2.200000X2.900000*%
%ADD34R,2.900000X2.200000*%
%ADD35R,2.500000X2.200000*%
%ADD36R,0.908000X0.908000*%
G04 APERTURE END LIST*
D10*
D11*
X329212500Y-102099050D02*
X333012500Y-102099050D01*
X326561550Y-104750000D02*
G75*
G02X329212500Y-102099050I2650950J0D01*
G01*
X329212500Y-107400950D02*
G75*
G02X326561550Y-104750000I0J2650950D01*
G01*
X329212500Y-107400950D02*
X333062500Y-107400950D01*
X48012500Y-102099050D02*
X51812500Y-102099050D01*
X54463450Y-104750000D02*
G75*
G03X51812500Y-102099050I-2650950J0D01*
G01*
X51812500Y-107400950D02*
G75*
G03X54463450Y-104750000I0J2650950D01*
G01*
X48012500Y-107400950D02*
X51812500Y-107400950D01*
D12*
X169187500Y-90750000D02*
X169227500Y-90170000D01*
D13*
X169227500Y-90170000D03*
D12*
X162877500Y-92710000D02*
X164187500Y-91250000D01*
D14*
X166687500Y-95250000D03*
D13*
X164187500Y-91250000D03*
D15*
X165417500Y-100330000D03*
D16*
X167957500Y-100330000D03*
D17*
X161607500Y-95250000D03*
X171767500Y-95250000D03*
D12*
X97750000Y-52650000D02*
X97790000Y-52070000D01*
D13*
X97790000Y-52070000D03*
D12*
X91440000Y-54610000D02*
X92750000Y-53150000D01*
D14*
X95250000Y-57150000D03*
D13*
X92750000Y-53150000D03*
D15*
X93980000Y-62230000D03*
D16*
X96520000Y-62230000D03*
D17*
X90170000Y-57150000D03*
X100330000Y-57150000D03*
D18*
X155448000Y-128858000D03*
X155448000Y-126158000D03*
D19*
X73212500Y-76150000D03*
D20*
X176212500Y-95250000D03*
X238512500Y-133450000D03*
X308062500Y-76150000D03*
D21*
X136614000Y-138160000D03*
X134114000Y-138160000D03*
X134114000Y-130286000D03*
X136614000Y-130286000D03*
X154140000Y-139176000D03*
X151640000Y-139176000D03*
X137650000Y-126222000D03*
X135150000Y-126222000D03*
X143472000Y-139176000D03*
X140972000Y-139176000D03*
X146306000Y-139176000D03*
X148806000Y-139176000D03*
D22*
X170180000Y-122702000D03*
X170180000Y-125202000D03*
X196342000Y-122702000D03*
X196342000Y-125202000D03*
X216916000Y-122702000D03*
X216916000Y-125202000D03*
X267716000Y-122702000D03*
X267716000Y-125202000D03*
X307086000Y-122702000D03*
X307086000Y-125202000D03*
X289560000Y-65552000D03*
X289560000Y-68052000D03*
X267716000Y-65552000D03*
X267716000Y-68052000D03*
X232156000Y-65552000D03*
X232156000Y-68052000D03*
X196342000Y-65552000D03*
X196342000Y-68052000D03*
X160782000Y-65552000D03*
X160782000Y-68052000D03*
X124968000Y-65552000D03*
X124968000Y-68052000D03*
X89408000Y-65552000D03*
X89408000Y-68052000D03*
X92710000Y-122702000D03*
X92710000Y-125202000D03*
X113284000Y-122702000D03*
X113284000Y-125202000D03*
D23*
X63103125Y-64293750D03*
X63103125Y-60113750D03*
D12*
X250150000Y-52650000D02*
X250190000Y-52070000D01*
D13*
X250190000Y-52070000D03*
D12*
X243840000Y-54610000D02*
X245150000Y-53150000D01*
D14*
X247650000Y-57150000D03*
D13*
X245150000Y-53150000D03*
D15*
X246380000Y-62230000D03*
D16*
X248920000Y-62230000D03*
D17*
X242570000Y-57150000D03*
X252730000Y-57150000D03*
D12*
X78700000Y-52650000D02*
X78740000Y-52070000D01*
D13*
X78740000Y-52070000D03*
D12*
X72390000Y-54610000D02*
X73700000Y-53150000D01*
D14*
X76200000Y-57150000D03*
D13*
X73700000Y-53150000D03*
D15*
X74930000Y-62230000D03*
D16*
X77470000Y-62230000D03*
D17*
X71120000Y-57150000D03*
X81280000Y-57150000D03*
D12*
X116800000Y-52650000D02*
X116840000Y-52070000D01*
D13*
X116840000Y-52070000D03*
D12*
X110490000Y-54610000D02*
X111800000Y-53150000D01*
D14*
X114300000Y-57150000D03*
D13*
X111800000Y-53150000D03*
D15*
X113030000Y-62230000D03*
D16*
X115570000Y-62230000D03*
D17*
X109220000Y-57150000D03*
X119380000Y-57150000D03*
D12*
X135850000Y-52650000D02*
X135890000Y-52070000D01*
D13*
X135890000Y-52070000D03*
D12*
X129540000Y-54610000D02*
X130850000Y-53150000D01*
D14*
X133350000Y-57150000D03*
D13*
X130850000Y-53150000D03*
D15*
X132080000Y-62230000D03*
D16*
X134620000Y-62230000D03*
D17*
X128270000Y-57150000D03*
X138430000Y-57150000D03*
D12*
X154900000Y-52650000D02*
X154940000Y-52070000D01*
D13*
X154940000Y-52070000D03*
D12*
X148590000Y-54610000D02*
X149900000Y-53150000D01*
D14*
X152400000Y-57150000D03*
D13*
X149900000Y-53150000D03*
D15*
X151130000Y-62230000D03*
D16*
X153670000Y-62230000D03*
D17*
X147320000Y-57150000D03*
X157480000Y-57150000D03*
D12*
X173950000Y-52650000D02*
X173990000Y-52070000D01*
D13*
X173990000Y-52070000D03*
D12*
X167640000Y-54610000D02*
X168950000Y-53150000D01*
D14*
X171450000Y-57150000D03*
D13*
X168950000Y-53150000D03*
D15*
X170180000Y-62230000D03*
D16*
X172720000Y-62230000D03*
D17*
X166370000Y-57150000D03*
X176530000Y-57150000D03*
D12*
X193000000Y-52650000D02*
X193040000Y-52070000D01*
D13*
X193040000Y-52070000D03*
D12*
X186690000Y-54610000D02*
X188000000Y-53150000D01*
D14*
X190500000Y-57150000D03*
D13*
X188000000Y-53150000D03*
D15*
X189230000Y-62230000D03*
D16*
X191770000Y-62230000D03*
D17*
X185420000Y-57150000D03*
X195580000Y-57150000D03*
D12*
X212050000Y-52650000D02*
X212090000Y-52070000D01*
D13*
X212090000Y-52070000D03*
D12*
X205740000Y-54610000D02*
X207050000Y-53150000D01*
D14*
X209550000Y-57150000D03*
D13*
X207050000Y-53150000D03*
D15*
X208280000Y-62230000D03*
D16*
X210820000Y-62230000D03*
D17*
X204470000Y-57150000D03*
X214630000Y-57150000D03*
D12*
X231100000Y-52650000D02*
X231140000Y-52070000D01*
D13*
X231140000Y-52070000D03*
D12*
X224790000Y-54610000D02*
X226100000Y-53150000D01*
D14*
X228600000Y-57150000D03*
D13*
X226100000Y-53150000D03*
D15*
X227330000Y-62230000D03*
D16*
X229870000Y-62230000D03*
D17*
X223520000Y-57150000D03*
X233680000Y-57150000D03*
D12*
X283487500Y-90750000D02*
X283527500Y-90170000D01*
D13*
X283527500Y-90170000D03*
D12*
X277177500Y-92710000D02*
X278487500Y-91250000D01*
D14*
X280987500Y-95250000D03*
D13*
X278487500Y-91250000D03*
D15*
X279717500Y-100330000D03*
D16*
X282257500Y-100330000D03*
D17*
X275907500Y-95250000D03*
X286067500Y-95250000D03*
D12*
X235862500Y-109800000D02*
X235902500Y-109220000D01*
D13*
X235902500Y-109220000D03*
D12*
X229552500Y-111760000D02*
X230862500Y-110300000D01*
D14*
X233362500Y-114300000D03*
D13*
X230862500Y-110300000D03*
D15*
X232092500Y-119380000D03*
D16*
X234632500Y-119380000D03*
D17*
X228282500Y-114300000D03*
X238442500Y-114300000D03*
D12*
X269200000Y-52650000D02*
X269240000Y-52070000D01*
D13*
X269240000Y-52070000D03*
D12*
X262890000Y-54610000D02*
X264200000Y-53150000D01*
D14*
X266700000Y-57150000D03*
D13*
X264200000Y-53150000D03*
D15*
X265430000Y-62230000D03*
D16*
X267970000Y-62230000D03*
D17*
X261620000Y-57150000D03*
X271780000Y-57150000D03*
D12*
X254912500Y-109800000D02*
X254952500Y-109220000D01*
D13*
X254952500Y-109220000D03*
D12*
X248602500Y-111760000D02*
X249912500Y-110300000D01*
D14*
X252412500Y-114300000D03*
D13*
X249912500Y-110300000D03*
D15*
X251142500Y-119380000D03*
D16*
X253682500Y-119380000D03*
D17*
X247332500Y-114300000D03*
X257492500Y-114300000D03*
D12*
X281106250Y-109800000D02*
X281146250Y-109220000D01*
D13*
X281146250Y-109220000D03*
D12*
X274796250Y-111760000D02*
X276106250Y-110300000D01*
D14*
X278606250Y-114300000D03*
D13*
X276106250Y-110300000D03*
D15*
X277336250Y-119380000D03*
D16*
X279876250Y-119380000D03*
D17*
X273526250Y-114300000D03*
X283686250Y-114300000D03*
D12*
X273962500Y-109800000D02*
X274002500Y-109220000D01*
D13*
X274002500Y-109220000D03*
D12*
X267652500Y-111760000D02*
X268962500Y-110300000D01*
D14*
X271462500Y-114300000D03*
D13*
X268962500Y-110300000D03*
D15*
X270192500Y-119380000D03*
D16*
X272732500Y-119380000D03*
D17*
X266382500Y-114300000D03*
X276542500Y-114300000D03*
D12*
X264437500Y-90750000D02*
X264477500Y-90170000D01*
D13*
X264477500Y-90170000D03*
D12*
X258127500Y-92710000D02*
X259437500Y-91250000D01*
D14*
X261937500Y-95250000D03*
D13*
X259437500Y-91250000D03*
D15*
X260667500Y-100330000D03*
D16*
X263207500Y-100330000D03*
D17*
X256857500Y-95250000D03*
X267017500Y-95250000D03*
D12*
X288250000Y-52650000D02*
X288290000Y-52070000D01*
D13*
X288290000Y-52070000D03*
D12*
X281940000Y-54610000D02*
X283250000Y-53150000D01*
D14*
X285750000Y-57150000D03*
D13*
X283250000Y-53150000D03*
D15*
X284480000Y-62230000D03*
D16*
X287020000Y-62230000D03*
D17*
X280670000Y-57150000D03*
X290830000Y-57150000D03*
D12*
X92987500Y-90750000D02*
X93027500Y-90170000D01*
D13*
X93027500Y-90170000D03*
D12*
X86677500Y-92710000D02*
X87987500Y-91250000D01*
D14*
X90487500Y-95250000D03*
D13*
X87987500Y-91250000D03*
D15*
X89217500Y-100330000D03*
D16*
X91757500Y-100330000D03*
D17*
X85407500Y-95250000D03*
X95567500Y-95250000D03*
D12*
X109656250Y-128850000D02*
X109696250Y-128270000D01*
D13*
X109696250Y-128270000D03*
D12*
X103346250Y-130810000D02*
X104656250Y-129350000D01*
D14*
X107156250Y-133350000D03*
D13*
X104656250Y-129350000D03*
D15*
X105886250Y-138430000D03*
D16*
X108426250Y-138430000D03*
D17*
X102076250Y-133350000D03*
X112236250Y-133350000D03*
D12*
X178712500Y-109800000D02*
X178752500Y-109220000D01*
D13*
X178752500Y-109220000D03*
D12*
X172402500Y-111760000D02*
X173712500Y-110300000D01*
D14*
X176212500Y-114300000D03*
D13*
X173712500Y-110300000D03*
D15*
X174942500Y-119380000D03*
D16*
X177482500Y-119380000D03*
D17*
X171132500Y-114300000D03*
X181292500Y-114300000D03*
D12*
X326350000Y-52650000D02*
X326390000Y-52070000D01*
D13*
X326390000Y-52070000D03*
D12*
X320040000Y-54610000D02*
X321350000Y-53150000D01*
D14*
X323850000Y-57150000D03*
D13*
X321350000Y-53150000D03*
D15*
X322580000Y-62230000D03*
D16*
X325120000Y-62230000D03*
D17*
X318770000Y-57150000D03*
X328930000Y-57150000D03*
D12*
X316825000Y-52650000D02*
X316865000Y-52070000D01*
D13*
X316865000Y-52070000D03*
D12*
X310515000Y-54610000D02*
X311825000Y-53150000D01*
D14*
X314325000Y-57150000D03*
D13*
X311825000Y-53150000D03*
D15*
X313055000Y-62230000D03*
D16*
X315595000Y-62230000D03*
D17*
X309245000Y-57150000D03*
X319405000Y-57150000D03*
D24*
X302418750Y-50165000D03*
X326231250Y-50165000D03*
D14*
X302418750Y-65405000D03*
X326231250Y-65405000D03*
D12*
X140612500Y-109800000D02*
X140652500Y-109220000D01*
D13*
X140652500Y-109220000D03*
D12*
X134302500Y-111760000D02*
X135612500Y-110300000D01*
D14*
X138112500Y-114300000D03*
D13*
X135612500Y-110300000D03*
D15*
X136842500Y-119380000D03*
D16*
X139382500Y-119380000D03*
D17*
X133032500Y-114300000D03*
X143192500Y-114300000D03*
D12*
X66793750Y-90750000D02*
X66833750Y-90170000D01*
D13*
X66833750Y-90170000D03*
D12*
X60483750Y-92710000D02*
X61793750Y-91250000D01*
D14*
X64293750Y-95250000D03*
D13*
X61793750Y-91250000D03*
D15*
X63023750Y-100330000D03*
D16*
X65563750Y-100330000D03*
D17*
X59213750Y-95250000D03*
X69373750Y-95250000D03*
D12*
X62031250Y-128850000D02*
X62071250Y-128270000D01*
D13*
X62071250Y-128270000D03*
D12*
X55721250Y-130810000D02*
X57031250Y-129350000D01*
D14*
X59531250Y-133350000D03*
D13*
X57031250Y-129350000D03*
D15*
X58261250Y-138430000D03*
D16*
X60801250Y-138430000D03*
D17*
X54451250Y-133350000D03*
X64611250Y-133350000D03*
D12*
X131087500Y-90750000D02*
X131127500Y-90170000D01*
D13*
X131127500Y-90170000D03*
D12*
X124777500Y-92710000D02*
X126087500Y-91250000D01*
D14*
X128587500Y-95250000D03*
D13*
X126087500Y-91250000D03*
D15*
X127317500Y-100330000D03*
D16*
X129857500Y-100330000D03*
D17*
X123507500Y-95250000D03*
X133667500Y-95250000D03*
D12*
X307300000Y-52650000D02*
X307340000Y-52070000D01*
D13*
X307340000Y-52070000D03*
D12*
X300990000Y-54610000D02*
X302300000Y-53150000D01*
D14*
X304800000Y-57150000D03*
D13*
X302300000Y-53150000D03*
D15*
X303530000Y-62230000D03*
D16*
X306070000Y-62230000D03*
D17*
X299720000Y-57150000D03*
X309880000Y-57150000D03*
D12*
X307300000Y-128850000D02*
X307340000Y-128270000D01*
D13*
X307340000Y-128270000D03*
D12*
X300990000Y-130810000D02*
X302300000Y-129350000D01*
D14*
X304800000Y-133350000D03*
D13*
X302300000Y-129350000D03*
D15*
X303530000Y-138430000D03*
D16*
X306070000Y-138430000D03*
D17*
X299720000Y-133350000D03*
X309880000Y-133350000D03*
D12*
X126325000Y-71700000D02*
X126365000Y-71120000D01*
D13*
X126365000Y-71120000D03*
D12*
X120015000Y-73660000D02*
X121325000Y-72200000D01*
D14*
X123825000Y-76200000D03*
D13*
X121325000Y-72200000D03*
D15*
X122555000Y-81280000D03*
D16*
X125095000Y-81280000D03*
D17*
X118745000Y-76200000D03*
X128905000Y-76200000D03*
D12*
X314443750Y-90750000D02*
X314483750Y-90170000D01*
D13*
X314483750Y-90170000D03*
D12*
X308133750Y-92710000D02*
X309443750Y-91250000D01*
D14*
X311943750Y-95250000D03*
D13*
X309443750Y-91250000D03*
D15*
X310673750Y-100330000D03*
D16*
X313213750Y-100330000D03*
D17*
X306863750Y-95250000D03*
X317023750Y-95250000D03*
D24*
X300037500Y-88265000D03*
X323850000Y-88265000D03*
D14*
X300037500Y-103505000D03*
X323850000Y-103505000D03*
D12*
X59650000Y-52650000D02*
X59690000Y-52070000D01*
D13*
X59690000Y-52070000D03*
D12*
X53340000Y-54610000D02*
X54650000Y-53150000D01*
D14*
X57150000Y-57150000D03*
D13*
X54650000Y-53150000D03*
D15*
X55880000Y-62230000D03*
D16*
X58420000Y-62230000D03*
D17*
X52070000Y-57150000D03*
X62230000Y-57150000D03*
D12*
X150137500Y-90750000D02*
X150177500Y-90170000D01*
D13*
X150177500Y-90170000D03*
D12*
X143827500Y-92710000D02*
X145137500Y-91250000D01*
D14*
X147637500Y-95250000D03*
D13*
X145137500Y-91250000D03*
D15*
X146367500Y-100330000D03*
D16*
X148907500Y-100330000D03*
D17*
X142557500Y-95250000D03*
X152717500Y-95250000D03*
D12*
X250150000Y-128850000D02*
X250190000Y-128270000D01*
D13*
X250190000Y-128270000D03*
D12*
X243840000Y-130810000D02*
X245150000Y-129350000D01*
D14*
X247650000Y-133350000D03*
D13*
X245150000Y-129350000D03*
D15*
X246380000Y-138430000D03*
D16*
X248920000Y-138430000D03*
D17*
X242570000Y-133350000D03*
X252730000Y-133350000D03*
D12*
X188237500Y-90750000D02*
X188277500Y-90170000D01*
D13*
X188277500Y-90170000D03*
D12*
X181927500Y-92710000D02*
X183237500Y-91250000D01*
D14*
X185737500Y-95250000D03*
D13*
X183237500Y-91250000D03*
D15*
X184467500Y-100330000D03*
D16*
X187007500Y-100330000D03*
D17*
X180657500Y-95250000D03*
X190817500Y-95250000D03*
D12*
X221575000Y-71700000D02*
X221615000Y-71120000D01*
D13*
X221615000Y-71120000D03*
D12*
X215265000Y-73660000D02*
X216575000Y-72200000D01*
D14*
X219075000Y-76200000D03*
D13*
X216575000Y-72200000D03*
D15*
X217805000Y-81280000D03*
D16*
X220345000Y-81280000D03*
D17*
X213995000Y-76200000D03*
X224155000Y-76200000D03*
D12*
X83462500Y-109800000D02*
X83502500Y-109220000D01*
D13*
X83502500Y-109220000D03*
D12*
X77152500Y-111760000D02*
X78462500Y-110300000D01*
D14*
X80962500Y-114300000D03*
D13*
X78462500Y-110300000D03*
D15*
X79692500Y-119380000D03*
D16*
X82232500Y-119380000D03*
D17*
X75882500Y-114300000D03*
X86042500Y-114300000D03*
D12*
X302537500Y-90750000D02*
X302577500Y-90170000D01*
D13*
X302577500Y-90170000D03*
D12*
X296227500Y-92710000D02*
X297537500Y-91250000D01*
D14*
X300037500Y-95250000D03*
D13*
X297537500Y-91250000D03*
D15*
X298767500Y-100330000D03*
D16*
X301307500Y-100330000D03*
D17*
X294957500Y-95250000D03*
X305117500Y-95250000D03*
D12*
X207287500Y-90750000D02*
X207327500Y-90170000D01*
D13*
X207327500Y-90170000D03*
D12*
X200977500Y-92710000D02*
X202287500Y-91250000D01*
D14*
X204787500Y-95250000D03*
D13*
X202287500Y-91250000D03*
D15*
X203517500Y-100330000D03*
D16*
X206057500Y-100330000D03*
D17*
X199707500Y-95250000D03*
X209867500Y-95250000D03*
D12*
X226337500Y-90750000D02*
X226377500Y-90170000D01*
D13*
X226377500Y-90170000D03*
D12*
X220027500Y-92710000D02*
X221337500Y-91250000D01*
D14*
X223837500Y-95250000D03*
D13*
X221337500Y-91250000D03*
D15*
X222567500Y-100330000D03*
D16*
X225107500Y-100330000D03*
D17*
X218757500Y-95250000D03*
X228917500Y-95250000D03*
D12*
X245387500Y-90750000D02*
X245427500Y-90170000D01*
D13*
X245427500Y-90170000D03*
D12*
X239077500Y-92710000D02*
X240387500Y-91250000D01*
D14*
X242887500Y-95250000D03*
D13*
X240387500Y-91250000D03*
D15*
X241617500Y-100330000D03*
D16*
X244157500Y-100330000D03*
D17*
X237807500Y-95250000D03*
X247967500Y-95250000D03*
D12*
X288250000Y-128850000D02*
X288290000Y-128270000D01*
D13*
X288290000Y-128270000D03*
D12*
X281940000Y-130810000D02*
X283250000Y-129350000D01*
D14*
X285750000Y-133350000D03*
D13*
X283250000Y-129350000D03*
D15*
X284480000Y-138430000D03*
D16*
X287020000Y-138430000D03*
D17*
X280670000Y-133350000D03*
X290830000Y-133350000D03*
D12*
X216812500Y-109800000D02*
X216852500Y-109220000D01*
D13*
X216852500Y-109220000D03*
D12*
X210502500Y-111760000D02*
X211812500Y-110300000D01*
D14*
X214312500Y-114300000D03*
D13*
X211812500Y-110300000D03*
D15*
X213042500Y-119380000D03*
D16*
X215582500Y-119380000D03*
D17*
X209232500Y-114300000D03*
X219392500Y-114300000D03*
D12*
X197762500Y-109800000D02*
X197802500Y-109220000D01*
D13*
X197802500Y-109220000D03*
D12*
X191452500Y-111760000D02*
X192762500Y-110300000D01*
D14*
X195262500Y-114300000D03*
D13*
X192762500Y-110300000D03*
D15*
X193992500Y-119380000D03*
D16*
X196532500Y-119380000D03*
D17*
X190182500Y-114300000D03*
X200342500Y-114300000D03*
D12*
X240625000Y-71700000D02*
X240665000Y-71120000D01*
D13*
X240665000Y-71120000D03*
D12*
X234315000Y-73660000D02*
X235625000Y-72200000D01*
D14*
X238125000Y-76200000D03*
D13*
X235625000Y-72200000D03*
D15*
X236855000Y-81280000D03*
D16*
X239395000Y-81280000D03*
D17*
X233045000Y-76200000D03*
X243205000Y-76200000D03*
D12*
X259675000Y-71700000D02*
X259715000Y-71120000D01*
D13*
X259715000Y-71120000D03*
D12*
X253365000Y-73660000D02*
X254675000Y-72200000D01*
D14*
X257175000Y-76200000D03*
D13*
X254675000Y-72200000D03*
D15*
X255905000Y-81280000D03*
D16*
X258445000Y-81280000D03*
D17*
X252095000Y-76200000D03*
X262255000Y-76200000D03*
D12*
X88225000Y-71700000D02*
X88265000Y-71120000D01*
D13*
X88265000Y-71120000D03*
D12*
X81915000Y-73660000D02*
X83225000Y-72200000D01*
D14*
X85725000Y-76200000D03*
D13*
X83225000Y-72200000D03*
D15*
X84455000Y-81280000D03*
D16*
X86995000Y-81280000D03*
D17*
X80645000Y-76200000D03*
X90805000Y-76200000D03*
D12*
X145375000Y-71700000D02*
X145415000Y-71120000D01*
D13*
X145415000Y-71120000D03*
D12*
X139065000Y-73660000D02*
X140375000Y-72200000D01*
D14*
X142875000Y-76200000D03*
D13*
X140375000Y-72200000D03*
D15*
X141605000Y-81280000D03*
D16*
X144145000Y-81280000D03*
D17*
X137795000Y-76200000D03*
X147955000Y-76200000D03*
D12*
X326350000Y-128850000D02*
X326390000Y-128270000D01*
D13*
X326390000Y-128270000D03*
D12*
X320040000Y-130810000D02*
X321350000Y-129350000D01*
D14*
X323850000Y-133350000D03*
D13*
X321350000Y-129350000D03*
D15*
X322580000Y-138430000D03*
D16*
X325120000Y-138430000D03*
D17*
X318770000Y-133350000D03*
X328930000Y-133350000D03*
D12*
X326350000Y-109800000D02*
X326390000Y-109220000D01*
D13*
X326390000Y-109220000D03*
D12*
X320040000Y-111760000D02*
X321350000Y-110300000D01*
D14*
X323850000Y-114300000D03*
D13*
X321350000Y-110300000D03*
D15*
X322580000Y-119380000D03*
D16*
X325120000Y-119380000D03*
D17*
X318770000Y-114300000D03*
X328930000Y-114300000D03*
D12*
X112037500Y-90750000D02*
X112077500Y-90170000D01*
D13*
X112077500Y-90170000D03*
D12*
X105727500Y-92710000D02*
X107037500Y-91250000D01*
D14*
X109537500Y-95250000D03*
D13*
X107037500Y-91250000D03*
D15*
X108267500Y-100330000D03*
D16*
X110807500Y-100330000D03*
D17*
X104457500Y-95250000D03*
X114617500Y-95250000D03*
D12*
X71556250Y-109800000D02*
X71596250Y-109220000D01*
D13*
X71596250Y-109220000D03*
D12*
X65246250Y-111760000D02*
X66556250Y-110300000D01*
D14*
X69056250Y-114300000D03*
D13*
X66556250Y-110300000D03*
D15*
X67786250Y-119380000D03*
D16*
X70326250Y-119380000D03*
D17*
X63976250Y-114300000D03*
X74136250Y-114300000D03*
D24*
X57150000Y-107315000D03*
X80962500Y-107315000D03*
D14*
X57150000Y-122555000D03*
X80962500Y-122555000D03*
D12*
X181093750Y-128850000D02*
X181133750Y-128270000D01*
D13*
X181133750Y-128270000D03*
D12*
X174783750Y-130810000D02*
X176093750Y-129350000D01*
D14*
X178593750Y-133350000D03*
D13*
X176093750Y-129350000D03*
D15*
X177323750Y-138430000D03*
D16*
X179863750Y-138430000D03*
D17*
X173513750Y-133350000D03*
X183673750Y-133350000D03*
D24*
X128593850Y-140335000D03*
X228593650Y-140335000D03*
D14*
X128593850Y-125095000D03*
X228593650Y-125095000D03*
D12*
X193000000Y-128850000D02*
X193040000Y-128270000D01*
D13*
X193040000Y-128270000D03*
D12*
X186690000Y-130810000D02*
X188000000Y-129350000D01*
D14*
X190500000Y-133350000D03*
D13*
X188000000Y-129350000D03*
D15*
X189230000Y-138430000D03*
D16*
X191770000Y-138430000D03*
D17*
X185420000Y-133350000D03*
X195580000Y-133350000D03*
D12*
X164425000Y-71700000D02*
X164465000Y-71120000D01*
D13*
X164465000Y-71120000D03*
D12*
X158115000Y-73660000D02*
X159425000Y-72200000D01*
D14*
X161925000Y-76200000D03*
D13*
X159425000Y-72200000D03*
D15*
X160655000Y-81280000D03*
D16*
X163195000Y-81280000D03*
D17*
X156845000Y-76200000D03*
X167005000Y-76200000D03*
D12*
X64412500Y-71700000D02*
X64452500Y-71120000D01*
D13*
X64452500Y-71120000D03*
D12*
X58102500Y-73660000D02*
X59412500Y-72200000D01*
D14*
X61912500Y-76200000D03*
D13*
X59412500Y-72200000D03*
D15*
X60642500Y-81280000D03*
D16*
X63182500Y-81280000D03*
D17*
X56832500Y-76200000D03*
X66992500Y-76200000D03*
D12*
X202525000Y-71700000D02*
X202565000Y-71120000D01*
D13*
X202565000Y-71120000D03*
D12*
X196215000Y-73660000D02*
X197525000Y-72200000D01*
D14*
X200025000Y-76200000D03*
D13*
X197525000Y-72200000D03*
D15*
X198755000Y-81280000D03*
D16*
X201295000Y-81280000D03*
D17*
X194945000Y-76200000D03*
X205105000Y-76200000D03*
D12*
X307300000Y-109800000D02*
X307340000Y-109220000D01*
D13*
X307340000Y-109220000D03*
D12*
X300990000Y-111760000D02*
X302300000Y-110300000D01*
D14*
X304800000Y-114300000D03*
D13*
X302300000Y-110300000D03*
D15*
X303530000Y-119380000D03*
D16*
X306070000Y-119380000D03*
D17*
X299720000Y-114300000D03*
X309880000Y-114300000D03*
D12*
X159662500Y-109800000D02*
X159702500Y-109220000D01*
D13*
X159702500Y-109220000D03*
D12*
X153352500Y-111760000D02*
X154662500Y-110300000D01*
D14*
X157162500Y-114300000D03*
D13*
X154662500Y-110300000D03*
D15*
X155892500Y-119380000D03*
D16*
X158432500Y-119380000D03*
D17*
X152082500Y-114300000D03*
X162242500Y-114300000D03*
D12*
X107275000Y-71700000D02*
X107315000Y-71120000D01*
D13*
X107315000Y-71120000D03*
D12*
X100965000Y-73660000D02*
X102275000Y-72200000D01*
D14*
X104775000Y-76200000D03*
D13*
X102275000Y-72200000D03*
D15*
X103505000Y-81280000D03*
D16*
X106045000Y-81280000D03*
D17*
X99695000Y-76200000D03*
X109855000Y-76200000D03*
D12*
X85843750Y-128850000D02*
X85883750Y-128270000D01*
D13*
X85883750Y-128270000D03*
D12*
X79533750Y-130810000D02*
X80843750Y-129350000D01*
D14*
X83343750Y-133350000D03*
D13*
X80843750Y-129350000D03*
D15*
X82073750Y-138430000D03*
D16*
X84613750Y-138430000D03*
D17*
X78263750Y-133350000D03*
X88423750Y-133350000D03*
D12*
X121562500Y-109800000D02*
X121602500Y-109220000D01*
D13*
X121602500Y-109220000D03*
D12*
X115252500Y-111760000D02*
X116562500Y-110300000D01*
D14*
X119062500Y-114300000D03*
D13*
X116562500Y-110300000D03*
D15*
X117792500Y-119380000D03*
D16*
X120332500Y-119380000D03*
D17*
X113982500Y-114300000D03*
X124142500Y-114300000D03*
D12*
X183475000Y-71700000D02*
X183515000Y-71120000D01*
D13*
X183515000Y-71120000D03*
D12*
X177165000Y-73660000D02*
X178475000Y-72200000D01*
D14*
X180975000Y-76200000D03*
D13*
X178475000Y-72200000D03*
D15*
X179705000Y-81280000D03*
D16*
X182245000Y-81280000D03*
D17*
X175895000Y-76200000D03*
X186055000Y-76200000D03*
D12*
X102512500Y-109800000D02*
X102552500Y-109220000D01*
D13*
X102552500Y-109220000D03*
D12*
X96202500Y-111760000D02*
X97512500Y-110300000D01*
D14*
X100012500Y-114300000D03*
D13*
X97512500Y-110300000D03*
D15*
X98742500Y-119380000D03*
D16*
X101282500Y-119380000D03*
D17*
X94932500Y-114300000D03*
X105092500Y-114300000D03*
D12*
X278725000Y-71700000D02*
X278765000Y-71120000D01*
D13*
X278765000Y-71120000D03*
D12*
X272415000Y-73660000D02*
X273725000Y-72200000D01*
D14*
X276225000Y-76200000D03*
D13*
X273725000Y-72200000D03*
D15*
X274955000Y-81280000D03*
D16*
X277495000Y-81280000D03*
D17*
X271145000Y-76200000D03*
X281305000Y-76200000D03*
D12*
X321587500Y-71700000D02*
X321627500Y-71120000D01*
D13*
X321627500Y-71120000D03*
D12*
X315277500Y-73660000D02*
X316587500Y-72200000D01*
D14*
X319087500Y-76200000D03*
D13*
X316587500Y-72200000D03*
D15*
X317817500Y-81280000D03*
D16*
X320357500Y-81280000D03*
D17*
X314007500Y-76200000D03*
X324167500Y-76200000D03*
D12*
X297775000Y-71700000D02*
X297815000Y-71120000D01*
D13*
X297815000Y-71120000D03*
D12*
X291465000Y-73660000D02*
X292775000Y-72200000D01*
D14*
X295275000Y-76200000D03*
D13*
X292775000Y-72200000D03*
D15*
X294005000Y-81280000D03*
D16*
X296545000Y-81280000D03*
D17*
X290195000Y-76200000D03*
X300355000Y-76200000D03*
D12*
X269200000Y-128850000D02*
X269240000Y-128270000D01*
D13*
X269240000Y-128270000D03*
D12*
X262890000Y-130810000D02*
X264200000Y-129350000D01*
D14*
X266700000Y-133350000D03*
D13*
X264200000Y-129350000D03*
D15*
X265430000Y-138430000D03*
D16*
X267970000Y-138430000D03*
D17*
X261620000Y-133350000D03*
X271780000Y-133350000D03*
D25*
X170688000Y-131318000D03*
D26*
X164388000Y-131318000D03*
X164388000Y-129018000D03*
X164388000Y-133618000D03*
D27*
X154098000Y-135382000D03*
X156798000Y-135382000D03*
D18*
X69342000Y-63262500D03*
X69342000Y-60562500D03*
X66675000Y-63262500D03*
X66675000Y-60562500D03*
D27*
X156798000Y-132588000D03*
X154098000Y-132588000D03*
D28*
X166706250Y-122175000D03*
X166706250Y-125475000D03*
X161906250Y-125475000D03*
X161906250Y-122175000D03*
X192900000Y-122175000D03*
X192900000Y-125475000D03*
X188100000Y-125475000D03*
X188100000Y-122175000D03*
X225158000Y-122175000D03*
X225158000Y-125475000D03*
X220358000Y-125475000D03*
X220358000Y-122175000D03*
X264337500Y-122175000D03*
X264337500Y-125475000D03*
X259537500Y-125475000D03*
X259537500Y-122175000D03*
X303644000Y-122302000D03*
X303644000Y-125602000D03*
X298844000Y-125602000D03*
X298844000Y-122302000D03*
X297675000Y-65025000D03*
X297675000Y-68325000D03*
X292875000Y-68325000D03*
X292875000Y-65025000D03*
X264337500Y-65025000D03*
X264337500Y-68325000D03*
X259537500Y-68325000D03*
X259537500Y-65025000D03*
X228618750Y-65025000D03*
X228618750Y-68325000D03*
X223818750Y-68325000D03*
X223818750Y-65025000D03*
X192900000Y-65025000D03*
X192900000Y-68325000D03*
X188100000Y-68325000D03*
X188100000Y-65025000D03*
X157181250Y-65025000D03*
X157181250Y-68325000D03*
X152381250Y-68325000D03*
X152381250Y-65025000D03*
X121462500Y-65025000D03*
X121462500Y-68325000D03*
X116662500Y-68325000D03*
X116662500Y-65025000D03*
X85743750Y-65025000D03*
X85743750Y-68325000D03*
X80943750Y-68325000D03*
X80943750Y-65025000D03*
X89268000Y-122175000D03*
X89268000Y-125475000D03*
X84468000Y-125475000D03*
X84468000Y-122175000D03*
X121462500Y-122175000D03*
X121462500Y-125475000D03*
X116662500Y-125475000D03*
X116662500Y-122175000D03*
D29*
X79400000Y-93270000D03*
X74900000Y-99770000D03*
X74900000Y-93270000D03*
X79400000Y-99770000D03*
D30*
X142353500Y-134610000D03*
X142353500Y-133810000D03*
X142353500Y-133010000D03*
X142353500Y-132210000D03*
X142353500Y-131410000D03*
X142353500Y-130610000D03*
X142353500Y-129810000D03*
X142353500Y-129010000D03*
D31*
X143803500Y-127560000D03*
X144603500Y-127560000D03*
X145403500Y-127560000D03*
X146203500Y-127560000D03*
X147003500Y-127560000D03*
X147803500Y-127560000D03*
X148603500Y-127560000D03*
X149403500Y-127560000D03*
D30*
X150853500Y-129010000D03*
X150853500Y-129810000D03*
X150853500Y-130610000D03*
X150853500Y-131410000D03*
X150853500Y-132210000D03*
X150853500Y-133010000D03*
X150853500Y-133810000D03*
X150853500Y-134610000D03*
D31*
X149403500Y-136060000D03*
X148603500Y-136060000D03*
X147803500Y-136060000D03*
X147003500Y-136060000D03*
X146203500Y-136060000D03*
X145403500Y-136060000D03*
X144603500Y-136060000D03*
X143803500Y-136060000D03*
D32*
X67800000Y-54506250D03*
X67000000Y-54506250D03*
X66200000Y-54506250D03*
X65400000Y-54506250D03*
X64600000Y-54506250D03*
D12*
X62031250Y-109800000D02*
X62071250Y-109220000D01*
D13*
X62071250Y-109220000D03*
D12*
X55721250Y-111760000D02*
X57031250Y-110300000D01*
D14*
X59531250Y-114300000D03*
D13*
X57031250Y-110300000D03*
D15*
X58261250Y-119380000D03*
D16*
X60801250Y-119380000D03*
D17*
X54451250Y-114300000D03*
X64611250Y-114300000D03*
D12*
X116800000Y-128850000D02*
X116840000Y-128270000D01*
D13*
X116840000Y-128270000D03*
D12*
X110490000Y-130810000D02*
X111800000Y-129350000D01*
D14*
X114300000Y-133350000D03*
D13*
X111800000Y-129350000D03*
D15*
X113030000Y-138430000D03*
D16*
X115570000Y-138430000D03*
D17*
X109220000Y-133350000D03*
X119380000Y-133350000D03*
D12*
X295393750Y-128850000D02*
X295433750Y-128270000D01*
D13*
X295433750Y-128270000D03*
D12*
X289083750Y-130810000D02*
X290393750Y-129350000D01*
D14*
X292893750Y-133350000D03*
D13*
X290393750Y-129350000D03*
D15*
X291623750Y-138430000D03*
D16*
X294163750Y-138430000D03*
D17*
X287813750Y-133350000D03*
X297973750Y-133350000D03*
D12*
X325968750Y-88225000D02*
X326548750Y-88264998D01*
D13*
X326548750Y-88265000D03*
D12*
X324008750Y-81915000D02*
X325468758Y-83224990D01*
D14*
X321468750Y-85725000D03*
D13*
X325468750Y-83225000D03*
D16*
X316388750Y-86995000D03*
D15*
X316388750Y-84455000D03*
D17*
X321468750Y-80645000D03*
X321468750Y-90805000D03*
D13*
X323968750Y-89725000D03*
X318968750Y-90225000D03*
D24*
X328453750Y-97631250D03*
X328453750Y-73818750D03*
D14*
X313213750Y-97631250D03*
X313213750Y-73818750D03*
D33*
X257175000Y-51578125D03*
X257175000Y-55578125D03*
X85725000Y-51578125D03*
X85725000Y-55578125D03*
X104775000Y-51578125D03*
X104775000Y-55578125D03*
X123825000Y-51578125D03*
X123825000Y-55578125D03*
X142875000Y-51578125D03*
X142875000Y-55578125D03*
X161925000Y-51578125D03*
X161925000Y-55578125D03*
X180975000Y-51578125D03*
X180975000Y-55578125D03*
X200025000Y-51578125D03*
X200025000Y-55578125D03*
X219075000Y-51578125D03*
X219075000Y-55578125D03*
X238125000Y-51578125D03*
X238125000Y-55578125D03*
X288250000Y-89678125D03*
X288250000Y-93678125D03*
X242887500Y-108728125D03*
X242887500Y-112728125D03*
X276225000Y-51578125D03*
X276225000Y-55578125D03*
X261937500Y-108728125D03*
X261937500Y-112728125D03*
X286940625Y-108728125D03*
X286940625Y-112728125D03*
X271462500Y-89678125D03*
X271462500Y-93678125D03*
X293000000Y-51578125D03*
X293000000Y-55578125D03*
X100012500Y-89678125D03*
X100012500Y-93678125D03*
X124714000Y-129064000D03*
X124714000Y-133064000D03*
X185737500Y-108728125D03*
X185737500Y-112728125D03*
D34*
X293275000Y-60706000D03*
X297275000Y-60706000D03*
D33*
X147637500Y-108728125D03*
X147637500Y-112728125D03*
D34*
X76866500Y-89979500D03*
X72866500Y-89979500D03*
D33*
X71437500Y-127778125D03*
X71437500Y-131778125D03*
X138112500Y-89678125D03*
X138112500Y-93678125D03*
X297250000Y-51578125D03*
X297250000Y-55578125D03*
X311943750Y-127250000D03*
X311943750Y-131250000D03*
X133350000Y-70628125D03*
X133350000Y-74628125D03*
D34*
X306250000Y-81500000D03*
X310250000Y-81500000D03*
X72866000Y-70612000D03*
X68866000Y-70612000D03*
D33*
X157162500Y-89678125D03*
X157162500Y-93678125D03*
X255016000Y-127032000D03*
X255016000Y-131032000D03*
D34*
X178212500Y-89296875D03*
X174212500Y-89296875D03*
D33*
X195262500Y-89678125D03*
X195262500Y-93678125D03*
X228600000Y-71818750D03*
X228600000Y-75818750D03*
X92500000Y-108728125D03*
X92500000Y-112728125D03*
X292500000Y-89678125D03*
X292500000Y-93678125D03*
X214312500Y-89678125D03*
X214312500Y-93678125D03*
X233362500Y-89678125D03*
X233362500Y-93678125D03*
X252412500Y-89678125D03*
X252412500Y-93678125D03*
X278250000Y-127750000D03*
X278250000Y-131750000D03*
X223837500Y-108728125D03*
X223837500Y-112728125D03*
X204787500Y-108728125D03*
X204787500Y-112728125D03*
X247650000Y-70628125D03*
X247650000Y-74628125D03*
X266700000Y-71818750D03*
X266700000Y-75818750D03*
X95250000Y-70628125D03*
X95250000Y-74628125D03*
X152400000Y-71818750D03*
X152400000Y-75818750D03*
X329184000Y-116840000D03*
X329184000Y-120840000D03*
D34*
X319468750Y-100012500D03*
X323468750Y-100012500D03*
D33*
X119062500Y-89678125D03*
X119062500Y-93678125D03*
X88250000Y-108728125D03*
X88250000Y-112728125D03*
X202438000Y-130588000D03*
X202438000Y-134588000D03*
X171450000Y-70628125D03*
X171450000Y-74628125D03*
X78486000Y-71660000D03*
X78486000Y-75660000D03*
X209550000Y-70628125D03*
X209550000Y-74628125D03*
X291703125Y-108728125D03*
X291703125Y-112728125D03*
X166687500Y-108728125D03*
X166687500Y-112728125D03*
X114300000Y-71818750D03*
X114300000Y-75818750D03*
X97631250Y-127778125D03*
X97631250Y-131778125D03*
X128587500Y-108728125D03*
X128587500Y-112728125D03*
X190500000Y-71818750D03*
X190500000Y-75818750D03*
X109537500Y-108728125D03*
X109537500Y-112728125D03*
X285750000Y-70628125D03*
X285750000Y-74628125D03*
D34*
X307562500Y-70246875D03*
X311562500Y-70246875D03*
D33*
X302750000Y-70628125D03*
X302750000Y-74628125D03*
X274000000Y-127750000D03*
X274000000Y-131750000D03*
D35*
X137396000Y-135380000D03*
X134496000Y-135380000D03*
X134496000Y-133080000D03*
X137396000Y-133080000D03*
D18*
X253603125Y-60562500D03*
X253603125Y-63262500D03*
D27*
X87075000Y-61912500D03*
X84375000Y-61912500D03*
D18*
X101203125Y-60562500D03*
X101203125Y-63262500D03*
D27*
X125175000Y-61912500D03*
X122475000Y-61912500D03*
D18*
X139303125Y-60562500D03*
X139303125Y-63262500D03*
D27*
X163275000Y-61912500D03*
X160575000Y-61912500D03*
D18*
X177403125Y-60562500D03*
X177403125Y-63262500D03*
D27*
X201248000Y-62230000D03*
X198548000Y-62230000D03*
D18*
X215503125Y-60562500D03*
X215503125Y-63262500D03*
X234553125Y-60562500D03*
X234553125Y-63262500D03*
X275034375Y-98662500D03*
X275034375Y-101362500D03*
X242824000Y-117712500D03*
X242824000Y-120412500D03*
X272653125Y-60562500D03*
X272653125Y-63262500D03*
D27*
X263224000Y-118110000D03*
X260524000Y-118110000D03*
X288878000Y-118110000D03*
X286178000Y-118110000D03*
D18*
X267890625Y-98662500D03*
X267890625Y-101362500D03*
X279796875Y-60562500D03*
X279796875Y-63262500D03*
X96440625Y-98662500D03*
X96440625Y-101362500D03*
X120253125Y-136762500D03*
X120253125Y-139462500D03*
X182165625Y-117712500D03*
X182165625Y-120412500D03*
X319087500Y-60562500D03*
X319087500Y-63262500D03*
X144065625Y-117712500D03*
X144065625Y-120412500D03*
X70246875Y-98662500D03*
X70246875Y-101362500D03*
X67865625Y-136762500D03*
X67865625Y-139462500D03*
X134540625Y-98662500D03*
X134540625Y-101362500D03*
X309562500Y-60562500D03*
X309562500Y-63262500D03*
X298846875Y-136762500D03*
X298846875Y-139462500D03*
X129778125Y-79612500D03*
X129778125Y-82312500D03*
X305990625Y-98662500D03*
X305990625Y-101362500D03*
X52070000Y-60562500D03*
X52070000Y-63262500D03*
X153590625Y-98662500D03*
X153590625Y-101362500D03*
X253603125Y-136762500D03*
X253603125Y-139462500D03*
X160734375Y-98662500D03*
X160734375Y-101362500D03*
X191690625Y-98662500D03*
X191690625Y-101362500D03*
X225028125Y-79612500D03*
X225028125Y-82312500D03*
D27*
X91774000Y-118110000D03*
X89074000Y-118110000D03*
X289162500Y-101203125D03*
X291862500Y-101203125D03*
D18*
X210740625Y-98662500D03*
X210740625Y-101362500D03*
X229790625Y-98662500D03*
X229790625Y-101362500D03*
X248840625Y-98662500D03*
X248840625Y-101362500D03*
D27*
X274875000Y-138430000D03*
X277575000Y-138430000D03*
X225187500Y-118110000D03*
X222487500Y-118110000D03*
D18*
X204724000Y-117712500D03*
X204724000Y-120412500D03*
X244078125Y-79612500D03*
X244078125Y-82312500D03*
X263128125Y-79612500D03*
X263128125Y-82312500D03*
X91678125Y-79612500D03*
X91678125Y-82312500D03*
X148828125Y-79612500D03*
X148828125Y-82312500D03*
X311943750Y-136762500D03*
X311943750Y-139462500D03*
X315515625Y-117712500D03*
X315515625Y-120412500D03*
X115490625Y-98662500D03*
X115490625Y-101362500D03*
X75009375Y-117712500D03*
X75009375Y-120412500D03*
X197612000Y-135128000D03*
X197612000Y-137828000D03*
X167878125Y-79612500D03*
X167878125Y-82312500D03*
X67865625Y-79612500D03*
X67865625Y-82312500D03*
X205978125Y-79612500D03*
X205978125Y-82312500D03*
X297434000Y-115236000D03*
X297434000Y-117936000D03*
D27*
X167974000Y-118110000D03*
X165274000Y-118110000D03*
D18*
X110728125Y-79612500D03*
X110728125Y-82312500D03*
X94059375Y-136762500D03*
X94059375Y-139462500D03*
X125015625Y-117712500D03*
X125015625Y-120412500D03*
X186928125Y-79612500D03*
X186928125Y-82312500D03*
X105965625Y-117712500D03*
X105965625Y-120412500D03*
X282178125Y-79612500D03*
X282178125Y-82312500D03*
X327723500Y-77136000D03*
X327723500Y-79836000D03*
X289321875Y-79612500D03*
X289321875Y-82312500D03*
X260746875Y-136762500D03*
X260746875Y-139462500D03*
D12*
X62031250Y-90750000D02*
X62071250Y-90170000D01*
D13*
X62071250Y-90170000D03*
D12*
X55721250Y-92710000D02*
X57031250Y-91250000D01*
D14*
X59531250Y-95250000D03*
D13*
X57031250Y-91250000D03*
D16*
X58261250Y-100330000D03*
D15*
X60801250Y-100330000D03*
D17*
X54451250Y-95250000D03*
X64611250Y-95250000D03*
D12*
X64412500Y-128850000D02*
X64452500Y-128270000D01*
D13*
X64452500Y-128270000D03*
D12*
X58102500Y-130810000D02*
X59412500Y-129350000D01*
D14*
X61912500Y-133350000D03*
D13*
X59412500Y-129350000D03*
D16*
X60642500Y-138430000D03*
D15*
X63182500Y-138430000D03*
D17*
X56832500Y-133350000D03*
X66992500Y-133350000D03*
D12*
X90606250Y-128850000D02*
X90646250Y-128270000D01*
D13*
X90646250Y-128270000D03*
D12*
X84296250Y-130810000D02*
X85606250Y-129350000D01*
D14*
X88106250Y-133350000D03*
D13*
X85606250Y-129350000D03*
D16*
X86836250Y-138430000D03*
D15*
X89376250Y-138430000D03*
D17*
X83026250Y-133350000D03*
X93186250Y-133350000D03*
D12*
X321587500Y-128850000D02*
X321627500Y-128270000D01*
D13*
X321627500Y-128270000D03*
D12*
X315277500Y-130810000D02*
X316587500Y-129350000D01*
D14*
X319087500Y-133350000D03*
D13*
X316587500Y-129350000D03*
D16*
X317817500Y-138430000D03*
D15*
X320357500Y-138430000D03*
D17*
X314007500Y-133350000D03*
X324167500Y-133350000D03*
D12*
X309681250Y-109800000D02*
X309721250Y-109220000D01*
D13*
X309721250Y-109220000D03*
D12*
X303371250Y-111760000D02*
X304681250Y-110300000D01*
D14*
X307181250Y-114300000D03*
D13*
X304681250Y-110300000D03*
D16*
X305911250Y-119380000D03*
D15*
X308451250Y-119380000D03*
D17*
X302101250Y-114300000D03*
X312261250Y-114300000D03*
D24*
X295275000Y-107315000D03*
X319087500Y-107315000D03*
D14*
X295275000Y-122555000D03*
X319087500Y-122555000D03*
D36*
X209677000Y-132842000D03*
X210185000Y-133858000D03*
X209169000Y-133858000D03*
X208153000Y-133858000D03*
X208661000Y-132842000D03*
X209169000Y-131826000D03*
X210693000Y-134874000D03*
X207645000Y-134874000D03*
M02*
