M48
INCH,TZ
T1C0.016
T2C0.028
T3C0.039
T4C0.041
T5C0.058
T6C0.098
T7C0.098
%
G90
G05
T1
X24000Y-23700
X25600Y-24434
X27300Y-30900
X27500Y-27100
X27900Y-24100
X31100Y-25400
X31200Y-26900
X31200Y-40900
X32900Y-19626
X33000Y-26900
X33200Y-47500
X34000Y-48800
X37600Y-49600
X45200Y-26900
X46900Y-49400
X47500Y-40700
X48100Y-53700
X48300Y-46500
X48500Y-51500
X49200Y-45600
X49200Y-50000
X49600Y-41900
X49900Y-43100
X49900Y-46100
X51400Y-50700
X51400Y-52000
X51400Y-53300
X51400Y-54600
X51400Y-55900
X51900Y-33900
X52100Y-33500
X52100Y-47800
X52400Y-19300
X52500Y-47800
X52700Y-55900
X52900Y-47800
X53300Y-28300
X53600Y-27400
X53600Y-33900
X53700Y-23500
X53700Y-41300
X54000Y-55900
X54500Y-36100
X54900Y-20400
X55200Y-20000
X55300Y-55900
X56600Y-52600
X56600Y-55900
X56700Y-49000
X57202Y-54194
X57300Y-51900
X57300Y-52600
X57593Y-54194
X57700Y-47200
X57900Y-49600
X57900Y-55900
X58100Y-47200
X58500Y-47200
X58900Y-47200
X59100Y-41400
X59200Y-55900
X59300Y-47200
X59600Y-41500
X59700Y-47200
X60100Y-47200
X60100Y-48100
X60100Y-53300
X60400Y-47800
X60500Y-47200
X60500Y-49600
X60500Y-55900
X60700Y-26800
X61200Y-23700
X61200Y-51300
X61400Y-40500
X61500Y-31600
X61700Y-41800
X61800Y-55900
X62000Y-41600
X62100Y-51300
X63100Y-54600
X63100Y-55900
X63300Y-40600
X63300Y-53300
X63800Y-39500
X64000Y-48800
X65500Y-50800
X66400Y-51200
X66800Y-46000
X67600Y-46700
X70500Y-40500
X71200Y-26900
X73400Y-48800
X78300Y-46800
X78300Y-53200
X79200Y-45600
X79700Y-45800
X80400Y-51000
X80600Y-50000
X82000Y-41800
X86300Y-26900
X86500Y-40600
X86800Y-48800
X96900Y-41600
X100700Y-26900
X101900Y-40700
X102200Y-48800
X102300Y-29300
X102300Y-53000
X104300Y-46700
X108500Y-46000
X108500Y-50100
X109600Y-41400
X114700Y-26900
X115800Y-40800
X117800Y-48800
X120200Y-49500
X120400Y-26700
X121300Y-40300
T3
X29488Y-36720
X29488Y-39280
X31260Y-36720
X31260Y-39280
T4
X22000Y-24500
X22937Y-39500
X22937Y-47000
X22937Y-54500
X23000Y-24500
X23875Y-32000
X23875Y-54500
X23938Y-39500
X23938Y-47000
X23938Y-54500
X24812Y-39500
X24875Y-32000
X24875Y-54500
X25813Y-39500
X26687Y-47000
X27688Y-47000
X29500Y-24500
X30500Y-24500
X31375Y-47000
X32313Y-54500
X32375Y-47000
X33250Y-32000
X33313Y-54500
X34188Y-54500
X34250Y-32000
X35125Y-39500
X35188Y-54500
X36125Y-39500
X37000Y-24500
X38000Y-24500
X38875Y-47000
X39875Y-47000
X40750Y-32000
X41688Y-54500
X41750Y-32000
X42625Y-39500
X42688Y-54500
X43625Y-39500
X44500Y-24500
X44500Y-54500
X45500Y-24500
X45500Y-54500
X46375Y-47000
X47375Y-47000
X48250Y-32000
X49250Y-32000
X50125Y-39500
X51125Y-39500
X52000Y-24500
X53000Y-24500
X53875Y-47000
X54875Y-47000
X55750Y-32000
X56750Y-32000
X57625Y-39500
X58625Y-39500
X59500Y-24500
X60500Y-24500
X61375Y-47000
X62375Y-47000
X63250Y-32000
X64250Y-32000
X65125Y-39500
X66125Y-39500
X67000Y-24500
X68000Y-24500
X68875Y-47000
X69813Y-54500
X69875Y-47000
X70750Y-32000
X70813Y-54500
X71750Y-32000
X72625Y-39500
X73625Y-39500
X74500Y-24500
X74500Y-54500
X75500Y-24500
X75500Y-54500
X76375Y-47000
X77375Y-47000
X78250Y-32000
X79250Y-32000
X80125Y-39500
X81125Y-39500
X82000Y-24500
X83000Y-24500
X83875Y-47000
X84875Y-47000
X85750Y-32000
X86750Y-32000
X87625Y-39500
X88625Y-39500
X89500Y-24500
X90500Y-24500
X91375Y-47000
X92375Y-47000
X93250Y-32000
X94250Y-32000
X95125Y-39500
X96125Y-39500
X97000Y-24500
X97000Y-54500
X98000Y-24500
X98000Y-54500
X98875Y-47000
X99875Y-47000
X100750Y-32000
X101750Y-32000
X102625Y-39500
X103625Y-39500
X104500Y-24500
X104500Y-54500
X105500Y-24500
X105500Y-54500
X106375Y-47000
X107375Y-47000
X108250Y-32000
X109188Y-47000
X109250Y-32000
X110125Y-39500
X110187Y-47000
X111125Y-39500
X112000Y-24500
X112000Y-54500
X113000Y-24500
X113000Y-54500
X114813Y-54500
X115750Y-32000
X115812Y-54500
X116750Y-32000
X117625Y-39500
X118625Y-39500
X119500Y-24500
X119500Y-47000
X119500Y-54500
X120438Y-47000
X120500Y-24500
X120500Y-47000
X120500Y-54500
X121437Y-47000
X122313Y-39500
X123250Y-24500
X123312Y-39500
X124250Y-24500
X124562Y-33250
X124562Y-34250
X125125Y-32000
X125125Y-54500
X126125Y-32000
X126125Y-54500
X127000Y-24500
X127000Y-47000
X127000Y-54500
X128000Y-24500
X128000Y-47000
X128000Y-54500
T5
X21000Y-21500
X21516Y-20925
X21938Y-36500
X21938Y-44000
X21938Y-51500
X22453Y-35925
X22453Y-43425
X22453Y-50925
X22875Y-29000
X22875Y-51500
X23391Y-28425
X23391Y-50925
X23484Y-20728
X23500Y-20500
X23813Y-36500
X24328Y-35925
X24422Y-35728
X24422Y-43228
X24422Y-50728
X24438Y-35500
X24438Y-43000
X24438Y-50500
X25359Y-28228
X25359Y-50728
X25375Y-28000
X25375Y-50500
X25688Y-44000
X26203Y-43425
X26297Y-35728
X26313Y-35500
X28172Y-43228
X28188Y-43000
X28500Y-21500
X29016Y-20925
X30375Y-44000
X30891Y-43425
X30984Y-20728
X31000Y-20500
X31313Y-51500
X31828Y-50925
X32250Y-29000
X32766Y-28425
X32859Y-43228
X32875Y-43000
X33188Y-51500
X33703Y-50925
X33797Y-50728
X33813Y-50500
X34125Y-36500
X34641Y-35925
X34734Y-28228
X34750Y-28000
X35672Y-50728
X35688Y-50500
X36000Y-21500
X36516Y-20925
X36609Y-35728
X36625Y-35500
X37875Y-44000
X38391Y-43425
X38484Y-20728
X38500Y-20500
X39750Y-29000
X40266Y-28425
X40359Y-43228
X40375Y-43000
X40688Y-51500
X41203Y-50925
X41625Y-36500
X42141Y-35925
X42234Y-28228
X42250Y-28000
X43172Y-50728
X43188Y-50500
X43500Y-21500
X43500Y-51500
X44016Y-20925
X44016Y-50925
X44109Y-35728
X44125Y-35500
X45375Y-44000
X45891Y-43425
X45984Y-20728
X45984Y-50728
X46000Y-20500
X46000Y-50500
X47250Y-29000
X47766Y-28425
X47859Y-43228
X47875Y-43000
X49125Y-36500
X49641Y-35925
X49734Y-28228
X49750Y-28000
X51000Y-21500
X51516Y-20925
X51609Y-35728
X51625Y-35500
X52875Y-44000
X53391Y-43425
X53484Y-20728
X53500Y-20500
X54750Y-29000
X55266Y-28425
X55359Y-43228
X55375Y-43000
X56625Y-36500
X57141Y-35925
X57234Y-28228
X57250Y-28000
X58500Y-21500
X59016Y-20925
X59109Y-35728
X59125Y-35500
X60375Y-44000
X60891Y-43425
X60984Y-20728
X61000Y-20500
X62250Y-29000
X62766Y-28425
X62859Y-43228
X62875Y-43000
X64125Y-36500
X64641Y-35925
X64734Y-28228
X64750Y-28000
X66000Y-21500
X66516Y-20925
X66609Y-35728
X66625Y-35500
X67875Y-44000
X68391Y-43425
X68484Y-20728
X68500Y-20500
X68813Y-51500
X69328Y-50925
X69750Y-29000
X70266Y-28425
X70359Y-43228
X70375Y-43000
X71297Y-50728
X71313Y-50500
X71625Y-36500
X72141Y-35925
X72234Y-28228
X72250Y-28000
X73500Y-21500
X73500Y-51500
X74016Y-20925
X74016Y-50925
X74109Y-35728
X74125Y-35500
X75375Y-44000
X75891Y-43425
X75984Y-20728
X75984Y-50728
X76000Y-20500
X76000Y-50500
X77250Y-29000
X77766Y-28425
X77859Y-43228
X77875Y-43000
X79125Y-36500
X79641Y-35925
X79734Y-28228
X79750Y-28000
X81000Y-21500
X81516Y-20925
X81609Y-35728
X81625Y-35500
X82875Y-44000
X83391Y-43425
X83484Y-20728
X83500Y-20500
X84750Y-29000
X85266Y-28425
X85359Y-43228
X85375Y-43000
X86625Y-36500
X87141Y-35925
X87234Y-28228
X87250Y-28000
X88500Y-21500
X89016Y-20925
X89109Y-35728
X89125Y-35500
X90375Y-44000
X90891Y-43425
X90984Y-20728
X91000Y-20500
X92250Y-29000
X92766Y-28425
X92859Y-43228
X92875Y-43000
X94125Y-36500
X94641Y-35925
X94734Y-28228
X94750Y-28000
X96000Y-21500
X96000Y-51500
X96516Y-20925
X96516Y-50925
X96609Y-35728
X96625Y-35500
X97875Y-44000
X98391Y-43425
X98484Y-20728
X98484Y-50728
X98500Y-20500
X98500Y-50500
X99750Y-29000
X100266Y-28425
X100359Y-43228
X100375Y-43000
X101625Y-36500
X102141Y-35925
X102234Y-28228
X102250Y-28000
X103500Y-21500
X103500Y-51500
X104016Y-20925
X104016Y-50925
X104109Y-35728
X104125Y-35500
X105375Y-44000
X105891Y-43425
X105984Y-20728
X105984Y-50728
X106000Y-20500
X106000Y-50500
X107250Y-29000
X107766Y-28425
X107859Y-43228
X107875Y-43000
X108188Y-44000
X108703Y-43425
X109125Y-36500
X109641Y-35925
X109734Y-28228
X109750Y-28000
X110672Y-43228
X110688Y-43000
X111000Y-21500
X111000Y-51500
X111516Y-20925
X111516Y-50925
X111609Y-35728
X111625Y-35500
X113484Y-20728
X113484Y-50728
X113500Y-20500
X113500Y-50500
X113813Y-51500
X114328Y-50925
X114750Y-29000
X115266Y-28425
X116297Y-50728
X116313Y-50500
X116625Y-36500
X117141Y-35925
X117234Y-28228
X117250Y-28000
X118500Y-21500
X118500Y-44000
X118500Y-51500
X119016Y-20925
X119016Y-43425
X119016Y-50925
X119109Y-35728
X119125Y-35500
X119438Y-44000
X119953Y-43425
X120984Y-20728
X120984Y-43228
X120984Y-50728
X121000Y-20500
X121000Y-43000
X121000Y-50500
X121313Y-36500
X121828Y-35925
X121922Y-43228
X121938Y-43000
X122250Y-21500
X122766Y-20925
X123797Y-35728
X123813Y-35500
X124125Y-29000
X124125Y-51500
X124641Y-28425
X124641Y-50925
X124734Y-20728
X124750Y-20500
X125578Y-35522
X126000Y-21500
X126000Y-44000
X126000Y-51500
X126516Y-20925
X126516Y-43425
X126516Y-50925
X126609Y-28228
X126609Y-50728
X126625Y-28000
X126625Y-50500
X127547Y-35325
X127563Y-32250
X128137Y-32766
X128334Y-34734
X128484Y-20728
X128484Y-43228
X128484Y-50728
X128500Y-20500
X128500Y-43000
X128500Y-50500
X128563Y-34750
T7
X28824Y-29980
T2
X24626Y-19451G85X24626Y-19924
G05
X24626Y-21223G85X24626Y-21695
G05
X27500Y-21223G85X27500Y-21695
G05
T6
X68883Y-37500G85X69868Y-37500
G05
X93410Y-52539G85X94395Y-52539
G05
X120792Y-29980G85X121777Y-29980
G05
T0
M30
